{"glyphs":{"0":{"ha":750,"x_min":53,"x_max":696,"o":"m 375 974 q 476 957 431 974 q 554 913 522 940 q 610 848 586 885 q 649 771 635 811 q 674 690 664 731 q 689 614 685 650 q 694 550 693 578 q 696 505 696 522 q 694 489 696 488 q 683 323 694 397 q 651 199 671 249 q 606 112 632 150 q 551 53 579 74 q 494 19 522 33 q 440 3 465 6 q 394 -1 414 0 q 361 0 374 -3 l 350 1 q 231 28 283 1 q 148 99 178 56 q 97 194 118 142 q 67 297 75 246 q 56 392 60 349 q 54 461 53 435 l 56 489 q 66 647 56 575 q 95 767 76 718 q 138 853 114 815 q 189 912 163 890 q 242 948 215 933 q 292 967 268 963 q 335 974 317 972 q 364 975 353 976 l 375 974 m 506 193 q 517 197 510 194 q 546 213 525 200 q 582 242 567 225 q 611 290 597 258 q 626 360 625 322 q 613 457 628 399 q 564 583 599 515 q 556 600 561 590 q 533 639 550 610 q 496 692 515 668 q 446 742 476 715 q 384 782 415 768 q 312 796 353 796 q 229 775 271 796 q 222 772 226 774 q 206 763 218 771 q 182 746 193 756 q 158 719 171 736 q 138 683 146 703 q 126 633 129 663 q 126 569 122 603 q 144 489 129 535 q 185 392 160 443 q 190 381 188 388 q 203 356 193 375 q 225 318 214 336 q 255 276 236 300 q 292 235 274 253 q 336 201 311 217 q 387 178 361 185 q 443 174 413 171 q 506 193 474 176 z "},"1":{"ha":565,"x_min":67,"x_max":521,"o":"m 429 601 q 437 383 431 472 q 453 247 443 294 q 472 173 463 200 q 494 117 482 146 q 514 64 507 89 q 506 21 521 40 q 467 1 490 1 l 308 1 q 267 24 282 1 q 263 71 251 46 q 364 588 354 292 q 336 743 357 660 q 321 756 332 754 q 303 747 310 757 q 280 713 290 728 q 265 693 269 699 q 255 680 260 688 q 245 663 250 672 q 233 636 240 653 q 200 607 224 613 q 157 615 176 601 l 89 672 q 69 715 68 689 q 94 756 71 742 q 175 808 140 782 q 233 858 210 835 q 289 921 257 882 q 289 922 289 921 q 289 922 289 922 q 308 939 296 929 q 360 962 321 949 q 447 975 399 975 q 487 956 472 975 q 496 913 501 936 q 472 849 489 889 q 443 754 454 808 q 429 601 432 700 z "},"2":{"ha":736,"x_min":40,"x_max":692,"o":"m 639 268 q 683 201 674 268 q 665 68 692 135 q 589 1 639 1 l 211 1 q 136 12 168 1 q 88 40 104 22 q 65 71 72 57 q 56 99 58 85 q 51 160 51 126 q 84 249 51 208 q 170 323 117 290 q 281 386 224 356 q 400 458 339 417 q 497 540 461 499 q 547 679 561 621 q 476 769 533 738 q 360 792 419 801 q 253 726 288 781 q 188 673 229 689 q 104 668 146 657 q 94 672 99 671 q 53 766 42 694 q 118 883 65 838 q 159 912 132 896 q 226 943 186 928 q 310 967 267 958 q 401 974 353 976 q 494 953 450 971 q 580 893 539 936 q 650 786 621 850 q 657 646 679 717 q 438 378 600 465 q 422 372 432 376 q 383 349 413 367 q 325 312 353 332 q 261 259 297 292 q 197 189 225 226 q 196 103 168 150 q 275 58 224 57 q 355 69 311 60 q 451 108 399 79 q 528 179 504 138 q 531 185 529 182 q 538 197 532 188 q 549 215 543 207 q 565 233 556 224 q 585 251 575 243 q 610 263 596 258 q 639 268 625 268 z "},"3":{"ha":719,"x_min":39,"x_max":678,"o":"m 656 644 q 588 506 631 564 q 588 463 572 483 q 656 325 631 404 q 649 188 678 256 q 565 67 615 113 q 462 10 515 22 q 354 1 408 -1 q 251 22 300 4 q 168 58 201 40 q 117 90 135 75 q 52 206 64 135 q 93 300 40 278 q 103 303 97 301 q 186 299 144 315 q 251 246 228 283 q 358 182 286 193 q 475 203 418 172 q 546 292 532 235 q 496 431 560 350 q 492 436 493 433 q 444 451 472 457 q 308 385 365 435 q 261 378 288 365 q 235 419 235 390 l 235 536 q 258 576 235 564 q 303 576 281 589 q 447 521 368 538 q 496 538 476 515 q 546 678 560 619 q 475 769 532 738 q 358 790 418 800 q 250 724 285 779 q 190 672 228 688 q 111 665 151 656 q 93 671 101 667 q 52 765 40 693 q 117 883 64 838 q 168 917 135 899 q 251 953 201 935 q 354 974 300 971 q 462 964 408 976 q 565 906 515 951 q 649 785 615 860 q 656 644 678 715 z "},"4":{"ha":704,"x_min":22,"x_max":663,"o":"m 606 975 q 648 953 633 975 q 651 906 663 931 q 553 433 568 704 q 556 343 550 389 q 624 72 574 192 q 619 26 635 49 q 578 4 604 4 l 483 4 q 444 23 460 4 q 436 65 429 42 q 451 119 440 86 q 467 173 463 153 q 477 246 471 193 q 486 376 483 299 q 485 390 485 383 q 475 408 485 403 q 456 406 465 413 q 349 372 410 371 q 310 372 329 372 q 268 379 292 372 q 215 403 244 386 q 159 453 186 419 q 115 533 132 488 q 113 547 114 540 l 113 549 q 97 710 108 642 q 76 806 86 778 q 51 870 67 835 q 29 924 35 906 q 38 958 24 943 q 78 974 53 974 l 236 974 q 277 956 263 974 q 282 918 292 939 q 194 617 219 801 q 246 531 194 553 q 328 519 285 519 q 329 519 329 519 l 331 519 q 436 543 394 518 q 474 643 481 574 q 452 769 465 722 q 423 851 439 817 q 400 913 407 885 q 409 956 394 936 q 449 975 424 975 l 606 975 z "},"5":{"ha":714,"x_min":51,"x_max":663,"o":"m 326 567 q 410 549 371 560 q 498 516 450 539 q 580 463 546 493 q 638 385 614 433 q 661 279 661 338 q 644 172 661 219 q 601 95 628 124 q 540 46 574 67 q 474 17 507 25 q 415 4 442 8 q 371 0 388 0 l 354 0 q 337 1 347 0 q 295 8 326 3 q 235 20 264 13 q 172 42 207 28 q 113 76 138 57 q 70 124 88 94 q 53 189 53 153 q 76 281 53 249 q 132 315 100 314 q 197 297 164 315 q 249 246 229 278 q 251 241 249 244 q 263 228 254 238 q 283 212 272 219 q 309 196 293 204 q 342 183 325 188 q 383 179 360 179 q 432 186 407 179 q 519 265 489 203 q 501 410 558 347 q 231 488 428 486 l 176 488 q 115 513 140 488 q 89 575 89 539 l 89 842 q 128 935 89 896 q 221 974 167 974 l 526 974 q 536 973 529 974 q 560 965 543 972 q 589 946 576 958 q 612 904 601 933 q 622 836 622 875 q 617 766 622 793 q 604 724 613 739 q 581 707 596 710 q 550 710 567 704 q 510 731 533 717 q 456 778 485 746 q 405 838 426 810 q 355 887 383 865 q 300 908 326 908 q 219 839 246 908 q 193 663 193 769 q 194 656 193 660 q 202 639 194 651 q 222 615 210 626 q 263 590 235 603 q 326 567 290 576 z "},"6":{"ha":731,"x_min":54,"x_max":692,"o":"m 667 382 q 669 224 690 329 l 671 224 q 665 200 668 213 l 665 200 q 611 97 647 140 q 532 35 575 54 q 455 8 489 15 q 392 0 421 0 q 342 0 367 0 q 283 4 313 0 q 209 26 253 8 q 133 73 165 43 q 78 161 101 103 q 54 297 54 219 q 54 318 54 307 l 54 317 q 61 446 58 399 q 74 572 64 493 q 97 699 83 651 q 135 806 110 747 q 192 897 160 864 q 274 952 225 929 q 385 975 324 975 q 502 956 451 975 q 582 902 553 936 q 627 835 611 868 q 651 764 643 801 q 635 698 658 726 q 575 669 613 669 q 510 704 533 669 q 399 789 469 767 q 369 792 385 793 q 269 772 311 790 q 208 723 228 753 q 179 665 188 693 q 169 607 171 638 q 172 588 169 596 q 184 572 174 579 q 211 569 194 565 q 224 575 218 572 q 240 581 233 579 q 342 593 289 594 q 392 593 367 593 q 455 585 419 594 q 533 554 490 575 q 613 488 576 533 q 667 382 650 443 m 371 174 q 530 210 460 168 q 590 315 600 251 q 590 318 590 317 q 580 345 589 332 q 558 368 571 358 q 528 388 546 378 q 495 403 511 397 q 460 417 479 410 q 368 432 413 433 q 367 432 368 432 l 365 432 q 316 428 347 433 q 238 411 285 424 q 160 369 192 399 q 128 297 128 339 q 365 174 128 165 q 367 174 365 174 l 368 174 q 371 174 369 174 z "},"7":{"ha":718,"x_min":40,"x_max":649,"o":"m 649 910 q 624 833 649 869 q 551 731 600 797 q 463 582 503 664 q 394 405 421 482 q 358 283 367 328 q 344 201 349 238 q 344 144 340 164 q 349 98 349 125 q 344 47 349 71 q 335 21 342 31 q 314 7 328 11 q 278 3 300 3 l 178 3 q 133 19 153 3 q 108 61 114 35 q 132 163 92 125 q 200 238 167 196 q 257 315 233 281 q 306 397 281 350 q 344 472 331 444 q 376 542 357 499 q 401 599 396 586 q 461 849 446 728 q 449 891 464 872 q 413 910 435 910 l 376 910 l 376 908 q 367 910 371 910 q 338 902 354 910 q 303 880 322 894 q 268 851 285 865 q 231 816 251 838 q 198 783 210 794 q 169 751 186 771 q 150 731 151 732 q 81 707 119 699 q 43 760 43 715 l 43 776 q 42 789 43 779 q 42 808 42 799 q 42 832 42 818 q 44 858 43 846 q 48 886 44 871 q 56 913 51 901 q 67 937 60 925 q 83 956 74 949 q 105 969 92 964 q 133 974 118 974 l 508 974 q 521 974 515 975 l 611 974 q 638 963 626 974 q 649 935 649 951 l 649 910 z "},"8":{"ha":729,"x_min":51,"x_max":690,"o":"m 665 357 q 668 210 689 307 l 669 210 q 664 188 667 199 l 664 186 q 610 91 646 131 q 531 33 574 51 q 453 7 488 14 q 390 0 419 0 q 340 0 365 0 q 301 1 321 0 q 251 10 281 3 q 195 28 221 17 q 142 60 169 39 q 97 110 115 82 q 65 181 78 138 q 53 278 53 225 q 153 501 53 431 q 96 696 96 572 q 116 824 96 769 q 164 906 136 878 q 229 950 192 933 q 292 970 267 967 q 344 974 318 974 q 386 974 365 974 q 428 969 406 974 q 482 951 451 965 q 539 917 513 938 q 589 859 565 896 q 624 775 613 822 q 628 629 644 726 q 622 607 625 618 l 622 606 q 565 497 606 542 q 665 357 639 444 m 364 824 q 322 819 349 824 q 254 803 294 815 q 186 764 214 792 q 158 696 158 736 q 176 636 158 661 q 219 601 193 611 q 273 585 244 592 q 324 581 301 579 q 360 582 347 583 q 364 582 363 582 l 364 583 q 365 583 365 583 l 367 583 l 367 582 q 368 582 367 582 q 506 616 446 578 q 558 714 567 654 q 558 715 558 715 q 446 808 551 769 q 367 824 406 824 q 365 824 365 824 l 364 824 m 369 161 q 528 196 458 157 q 589 294 599 235 q 589 297 589 296 q 458 390 581 350 q 379 404 419 403 q 358 404 368 404 q 316 401 336 403 q 258 390 296 399 q 194 368 221 381 q 147 332 168 356 q 126 278 126 308 q 364 161 126 154 q 365 161 364 161 l 367 161 q 369 161 367 161 z "},"9":{"ha":731,"x_min":39,"x_max":676,"o":"m 676 678 q 676 657 676 668 q 669 528 672 575 q 656 401 665 481 q 634 275 647 322 q 596 169 621 228 q 538 78 571 110 q 456 23 506 46 q 346 0 407 0 q 248 13 292 0 q 176 48 204 26 q 128 99 149 69 q 97 154 107 128 q 79 211 86 181 q 84 256 75 235 q 112 292 93 278 q 156 306 131 306 q 221 269 197 306 q 332 186 261 208 q 361 182 346 182 q 461 203 419 185 q 523 252 503 222 q 551 310 543 282 q 561 368 560 338 q 559 387 561 378 q 547 403 557 396 q 519 404 536 410 q 506 400 513 401 q 490 394 497 396 q 389 381 442 381 q 339 381 364 381 q 290 385 317 381 q 228 405 264 390 q 163 442 193 419 q 105 503 132 464 q 64 592 78 543 q 60 750 40 644 q 65 774 63 761 l 65 774 q 119 876 83 833 q 199 939 156 919 q 276 966 242 958 q 339 974 310 974 q 389 974 364 974 q 448 969 418 974 q 522 948 478 965 q 597 901 565 931 q 653 813 629 871 q 676 678 676 754 m 365 542 q 400 544 378 542 q 459 554 422 546 q 527 576 496 563 q 581 616 558 589 q 603 676 603 643 q 365 800 603 808 q 364 800 365 800 l 363 800 q 360 800 361 800 q 201 764 271 806 q 140 658 131 722 q 140 657 140 657 q 180 599 144 622 q 271 557 215 576 q 363 542 318 542 q 364 542 363 542 l 365 542 z "},"\u0000":{"ha":0,"x_min":0,"x_max":0,"o":""},"\n":{"ha":0,"x_min":0,"x_max":0,"o":""},"\r":{"ha":0,"x_min":0,"x_max":0,"o":""}," ":{"ha":397,"x_min":0,"x_max":0,"o":""},"!":{"ha":356,"x_min":40,"x_max":310,"o":"m 258 24 q 247 8 258 24 q 199 -13 236 -7 q 132 3 163 -19 q 95 62 101 25 q 111 129 89 99 q 170 166 133 160 q 238 150 207 172 q 274 91 268 128 q 258 24 281 54 m 254 958 q 294 941 279 958 q 303 903 310 924 q 286 850 300 894 q 267 781 272 806 q 253 699 263 756 q 239 565 243 643 q 232 383 235 488 q 238 315 232 349 l 257 261 q 257 252 256 260 q 251 235 258 244 q 229 226 244 226 l 132 226 q 128 226 131 226 q 120 228 126 226 q 111 235 114 231 q 105 246 108 239 q 106 265 101 253 q 107 268 107 267 q 135 401 133 332 q 51 896 138 711 q 56 938 40 918 q 97 958 71 958 l 254 958 z "},"\"":{"ha":460,"x_min":39,"x_max":419,"o":"m 418 865 q 417 849 418 860 q 410 813 417 839 q 390 765 403 786 q 349 724 378 743 q 282 700 321 704 q 265 706 272 700 q 258 722 258 713 q 275 743 258 740 q 329 769 307 751 q 330 773 331 771 q 328 775 329 775 q 261 803 288 775 q 236 872 235 832 q 263 930 239 906 q 321 956 288 954 q 390 931 361 958 q 418 865 418 904 m 126 956 q 174 947 151 958 q 210 913 197 935 q 224 865 224 892 q 223 857 224 863 q 220 835 222 851 q 214 805 218 819 q 199 772 210 790 q 175 740 189 754 q 138 715 161 726 q 88 700 115 704 q 70 706 78 700 q 63 722 63 713 q 81 743 63 740 q 135 769 111 751 q 135 773 136 771 q 132 775 135 775 q 66 803 93 775 q 42 872 39 832 q 69 930 44 906 q 126 956 93 954 z "},"#":{"ha":868,"x_min":53,"x_max":817,"o":"m 815 550 q 796 511 815 526 q 753 503 776 496 q 697 519 736 507 q 626 536 657 532 q 632 383 628 451 q 739 417 688 396 q 746 419 743 418 q 778 422 763 425 q 805 404 794 418 q 815 374 815 390 l 815 279 q 796 240 815 254 q 753 231 776 225 q 699 247 732 236 q 644 261 667 257 q 681 126 656 186 q 711 46 707 65 q 703 3 718 22 q 664 -15 688 -15 l 506 -15 q 464 7 479 -15 q 460 53 449 29 q 526 275 501 153 q 426 271 476 276 q 335 260 375 265 q 371 126 346 186 q 401 46 396 65 q 392 3 407 22 q 353 -15 378 -15 l 194 -15 q 153 7 168 -15 q 149 53 139 29 q 208 240 185 139 q 115 218 174 233 q 85 219 100 214 q 62 238 71 225 q 53 267 53 250 l 53 375 q 75 417 53 403 q 122 421 97 432 q 236 399 160 407 q 249 519 244 458 q 115 490 193 510 q 85 492 100 486 q 62 510 71 497 q 53 539 53 522 l 53 647 q 75 689 53 674 q 122 693 97 704 q 235 669 160 678 q 167 889 213 778 q 172 935 157 913 q 213 957 186 957 l 335 957 q 374 938 358 957 q 382 896 389 919 q 361 837 375 869 q 337 765 347 804 q 321 660 326 725 q 344 656 333 658 q 551 643 447 633 q 478 889 529 763 q 482 935 467 913 q 524 957 497 957 l 644 957 q 684 938 669 957 q 693 896 699 919 q 672 837 686 869 q 647 763 657 804 q 631 656 636 722 q 739 689 686 667 q 746 692 742 690 q 793 687 771 701 q 815 646 815 672 l 815 550 m 543 371 q 560 544 556 457 q 426 543 494 550 q 317 529 364 536 q 322 388 318 450 q 344 383 333 386 q 543 371 443 363 z "},"$":{"ha":678,"x_min":44,"x_max":631,"o":"m 382 499 q 536 438 482 468 q 606 383 590 407 q 624 322 621 358 q 619 263 625 293 q 603 198 614 231 q 573 124 593 165 q 517 48 553 82 q 433 -1 481 14 q 443 -44 439 -24 q 435 -97 450 -74 q 396 -119 419 -119 l 276 -119 q 235 -92 250 -119 q 231 -36 221 -65 q 242 -3 236 -19 q 54 208 86 43 q 72 267 47 242 q 132 293 96 293 q 201 254 179 293 q 283 176 235 196 q 311 449 304 297 q 228 471 272 460 q 203 477 218 472 q 151 503 188 482 q 92 550 114 524 q 57 674 44 603 q 67 722 61 697 q 88 783 74 747 q 122 847 103 818 q 173 903 142 876 q 243 943 204 931 q 232 978 238 961 q 235 1034 221 1007 q 278 1061 250 1061 l 399 1061 q 438 1038 424 1061 q 447 986 453 1014 q 436 943 442 964 q 624 731 592 899 q 606 672 629 697 q 544 646 582 646 q 475 685 497 646 q 390 765 440 746 q 381 607 383 701 q 382 499 381 550 m 313 521 q 314 558 314 535 q 315 592 314 582 q 289 769 308 675 q 139 671 193 753 q 131 637 129 656 q 147 606 133 618 q 313 521 193 563 m 546 299 q 548 309 547 303 q 542 329 549 315 q 521 357 536 343 q 470 390 506 371 q 383 426 435 408 q 397 171 388 263 q 483 206 449 178 q 542 290 518 233 q 546 299 544 296 z "},"%":{"ha":939,"x_min":47,"x_max":897,"o":"m 229 486 q 228 486 228 486 q 108 533 156 486 q 47 722 47 594 q 108 910 47 849 q 228 957 156 957 q 229 957 228 957 q 258 957 244 957 q 260 957 258 957 q 303 949 279 957 q 353 923 326 940 q 401 871 379 906 q 432 789 422 836 q 438 678 446 750 l 435 665 q 432 647 433 656 l 429 638 q 383 546 415 582 q 319 498 350 510 q 260 486 289 486 q 258 486 258 486 q 229 486 244 486 m 113 722 q 136 660 113 683 q 232 626 168 629 l 232 628 l 244 626 l 256 628 l 256 626 q 339 664 304 628 q 367 735 371 696 l 367 736 q 353 769 364 753 q 326 796 342 785 q 294 815 311 807 q 253 825 275 824 l 244 825 l 240 825 q 190 813 221 824 q 138 781 158 801 q 113 722 113 756 m 883 288 q 888 176 897 250 l 886 164 q 882 146 885 156 l 881 136 q 833 44 867 81 q 769 -3 800 8 q 710 -14 739 -15 q 681 -14 694 -14 q 679 -14 679 -14 q 560 33 607 -14 q 499 221 499 93 q 560 408 499 349 q 681 456 607 457 q 710 456 694 456 q 753 448 729 456 q 803 423 776 440 q 851 370 829 406 q 883 288 874 335 m 790 163 q 817 233 821 194 l 817 235 q 793 281 814 260 q 746 314 772 303 q 703 325 725 322 l 694 325 l 690 325 q 672 321 683 324 q 646 313 661 318 q 615 299 631 308 q 589 279 600 290 q 563 221 563 254 q 588 158 563 182 q 683 126 619 128 l 694 126 l 706 126 l 706 125 q 790 163 756 126 m 803 865 q 824 824 824 853 q 803 774 824 796 q 708 671 744 714 q 590 510 672 628 q 375 185 508 392 q 329 101 350 144 l 306 28 q 303 24 304 26 q 297 13 301 21 q 286 3 292 6 q 272 -3 281 0 q 257 1 264 -6 l 135 76 q 128 83 132 79 q 124 103 124 88 q 142 136 125 118 q 146 140 144 138 q 267 282 215 201 q 311 349 268 282 q 365 435 354 417 q 413 516 375 453 q 469 614 451 579 q 513 703 486 649 q 556 806 540 758 q 585 900 572 854 q 619 948 592 932 q 669 950 647 964 l 803 865 z "},"&":{"ha":794,"x_min":46,"x_max":757,"o":"m 703 507 q 741 489 726 507 q 751 447 756 471 q 749 431 750 440 q 654 147 731 294 l 708 72 q 716 17 729 47 q 669 -12 703 -12 q 631 6 646 -12 q 604 36 618 19 l 578 67 q 571 60 575 64 q 553 47 567 57 q 526 28 540 38 q 488 9 511 19 q 442 -9 465 -1 q 386 -22 418 -17 q 321 -28 354 -28 q 315 -28 319 -28 l 313 -28 q 119 50 192 -28 q 47 239 47 128 q 217 517 47 415 l 217 521 q 144 719 144 619 q 203 883 144 813 q 364 953 263 953 q 501 897 447 953 q 556 751 556 842 q 515 621 556 679 q 386 510 475 563 l 575 254 q 650 450 628 346 q 653 465 651 458 q 670 495 656 483 q 703 507 685 507 m 207 729 q 304 596 206 653 q 317 589 313 592 q 501 704 490 642 q 440 767 510 747 q 356 778 403 778 q 207 729 225 778 m 418 110 q 500 157 461 122 l 256 440 q 204 281 192 375 q 239 190 211 231 q 310 128 267 150 q 418 110 363 100 z "},"'":{"ha":265,"x_min":39,"x_max":224,"o":"m 224 865 q 223 849 224 860 q 215 813 222 839 q 196 765 208 786 q 155 724 183 743 q 88 700 126 704 q 70 706 78 700 q 63 722 63 713 q 81 743 63 740 q 135 769 111 751 q 135 773 136 771 q 132 775 135 775 q 66 803 93 775 q 42 872 39 832 q 69 930 44 906 q 126 956 93 954 q 174 947 151 958 q 210 913 197 935 q 224 865 224 892 z "},"(":{"ha":683,"x_min":51,"x_max":654,"o":"m 453 100 q 483 110 468 106 q 518 116 497 114 q 556 117 539 118 q 592 110 574 117 q 622 92 610 104 q 643 57 635 79 q 651 4 651 35 q 652 -7 651 0 q 650 -31 653 -14 q 639 -62 647 -49 q 610 -87 631 -76 q 560 -99 590 -99 q 543 -99 560 -94 q 497 -97 526 -103 q 429 -85 467 -90 q 349 -60 392 -81 q 265 -14 307 -39 q 185 57 224 11 q 117 159 147 103 q 70 298 88 215 q 53 479 53 381 q 53 480 53 479 q 53 481 53 481 q 53 482 53 482 q 70 663 53 581 q 117 802 88 746 q 185 903 147 858 q 265 975 222 949 q 349 1019 307 1001 q 428 1045 390 1038 q 496 1056 467 1053 q 543 1058 525 1060 l 560 1058 q 610 1048 590 1058 q 638 1022 631 1038 q 649 992 646 1007 q 653 967 653 978 l 651 956 q 641 897 651 921 q 613 861 631 872 q 574 845 594 850 q 531 843 554 840 q 489 850 507 846 q 453 860 471 854 q 368 860 410 875 q 288 808 325 844 q 224 722 250 771 q 181 631 197 672 q 154 546 165 589 q 153 417 136 481 q 181 331 165 372 q 223 240 197 289 q 286 153 249 190 q 367 101 324 117 q 453 100 410 86 z "},")":{"ha":683,"x_min":29,"x_max":631,"o":"m 629 482 q 629 481 629 482 q 629 479 629 481 l 629 479 q 612 298 629 381 q 565 158 594 215 q 498 57 536 101 q 418 -14 460 13 q 334 -59 376 -40 q 253 -85 292 -78 q 186 -96 215 -92 q 140 -99 157 -100 l 122 -99 q 72 -87 93 -99 q 44 -62 51 -76 q 33 -32 36 -47 q 31 -7 29 -17 l 32 4 q 47 72 32 46 q 84 108 63 99 q 135 118 106 118 q 185 113 164 118 q 229 100 207 108 q 315 101 272 86 q 396 153 358 117 q 459 240 433 190 q 501 331 485 289 q 529 417 517 372 q 529 546 547 481 q 501 631 517 589 q 459 722 485 672 q 396 808 433 771 q 314 860 358 844 q 229 860 272 875 q 185 848 207 853 q 135 843 164 843 q 84 852 106 843 q 47 888 63 861 q 32 956 32 914 q 31 967 31 960 q 33 992 31 974 q 44 1023 36 1010 q 72 1047 51 1036 q 122 1058 93 1058 q 140 1059 124 1056 q 187 1056 157 1063 q 254 1045 217 1050 q 334 1019 292 1040 q 418 974 376 999 q 498 903 460 950 q 565 801 536 857 q 612 663 594 746 q 629 482 629 581 z "},"*":{"ha":524,"x_min":44,"x_max":481,"o":"m 440 810 q 467 808 454 814 q 479 790 479 801 l 479 749 q 468 733 479 739 q 443 728 457 726 q 436 731 440 729 q 339 738 426 733 q 418 672 379 701 q 422 671 419 672 q 437 650 433 663 q 432 631 440 638 l 399 597 q 379 593 392 589 q 358 608 367 597 q 354 615 356 613 q 294 686 326 649 q 306 590 299 636 q 307 586 306 588 q 302 561 308 572 q 286 550 296 550 l 239 550 q 222 562 228 550 q 218 586 215 574 q 219 594 219 592 q 228 688 225 638 q 167 611 194 649 q 165 608 167 611 q 144 592 157 596 q 125 597 132 589 l 92 631 q 88 651 83 638 q 103 671 92 664 q 110 675 107 674 q 181 735 143 703 q 85 724 131 731 q 82 724 83 724 q 81 724 81 724 q 56 727 67 721 q 44 744 44 733 l 44 790 q 56 808 44 801 q 81 811 68 815 q 89 810 86 811 q 188 801 136 804 q 110 861 142 844 q 107 863 108 863 q 89 883 93 869 q 92 906 85 897 l 121 935 q 141 938 129 942 q 161 924 153 935 q 165 917 164 921 q 233 839 175 901 q 221 942 232 907 q 219 944 219 943 q 222 972 215 960 q 239 985 228 985 l 281 985 q 297 974 290 985 q 301 949 304 963 q 300 942 300 946 q 298 928 299 936 q 295 893 297 919 q 292 839 293 867 q 356 919 339 888 q 357 924 357 921 q 378 941 364 936 q 400 938 392 946 l 429 908 q 433 889 436 901 q 418 868 429 876 q 411 864 415 867 q 401 856 408 861 q 374 833 394 850 q 333 796 354 815 q 436 808 401 799 q 440 810 438 810 z "},"+":{"ha":557,"x_min":46,"x_max":513,"o":"m 468 603 q 497 598 483 613 q 511 557 511 583 l 511 461 q 499 422 511 438 q 472 414 488 407 q 465 417 469 415 q 460 418 464 417 q 445 422 456 419 q 422 426 435 424 q 390 431 408 428 q 353 435 372 433 q 379 314 361 371 q 381 310 381 313 q 372 283 388 294 q 333 271 357 271 l 224 271 q 184 283 199 271 q 176 311 169 296 q 179 319 179 315 q 201 429 193 371 q 89 403 143 421 q 85 401 88 403 q 58 410 69 396 q 46 450 46 425 l 46 558 q 58 598 46 583 q 85 607 71 613 q 94 603 90 604 q 213 579 150 589 q 183 690 208 653 q 181 694 182 692 q 178 714 175 704 q 195 730 182 724 q 226 736 208 736 l 321 736 q 360 724 346 736 q 369 699 375 713 q 365 690 367 694 q 349 571 353 660 q 465 600 425 574 q 468 603 467 601 z "},",":{"ha":260,"x_min":36,"x_max":221,"o":"m 221 76 q 220 60 221 71 q 213 24 219 50 q 193 -24 206 -3 q 152 -65 181 -46 q 85 -89 124 -85 q 67 -83 75 -90 q 60 -67 60 -76 q 78 -46 60 -50 q 132 -19 108 -37 q 133 -16 133 -18 q 129 -14 132 -14 q 63 15 90 -14 q 39 83 36 43 q 66 140 42 117 q 124 167 90 164 q 172 156 149 168 q 208 123 194 144 q 221 76 221 101 z "},"-":{"ha":550,"x_min":42,"x_max":508,"o":"m 464 603 q 493 598 479 613 q 507 557 507 583 l 507 461 q 495 422 507 438 q 468 414 483 407 q 461 417 465 415 q 440 422 453 419 q 385 431 426 425 q 301 436 343 436 q 199 428 258 436 q 85 403 139 421 q 81 401 83 403 q 53 410 65 396 q 42 450 42 425 l 42 558 q 54 598 42 583 q 81 607 67 613 q 90 603 86 604 q 153 589 118 596 q 251 574 189 582 q 371 572 314 565 q 461 600 428 578 q 464 603 463 601 z "},".":{"ha":260,"x_min":32,"x_max":228,"o":"m 218 55 q 214 36 218 55 q 178 -1 210 18 q 109 -12 146 -21 q 53 28 72 -4 q 42 97 33 60 q 82 153 50 133 q 151 164 114 172 q 207 124 188 156 q 218 55 226 92 z "},"/":{"ha":839,"x_min":69,"x_max":771,"o":"m 749 865 q 769 824 769 853 q 749 774 769 796 q 654 671 690 714 q 536 510 618 628 q 321 185 454 392 q 275 101 296 144 l 251 28 q 249 24 250 26 q 242 13 247 21 q 231 3 236 6 q 218 -3 226 0 q 201 1 210 -6 l 81 76 q 74 83 78 79 q 70 103 69 88 q 88 136 71 118 q 92 140 89 138 q 213 282 161 201 q 251 342 219 292 q 297 413 283 392 q 341 484 310 433 q 388 565 372 535 q 430 645 404 596 q 472 732 456 694 q 503 815 488 769 q 531 900 519 860 q 565 948 538 932 q 615 950 593 964 l 749 865 z "},":":{"ha":274,"x_min":46,"x_max":228,"o":"m 201 13 q 187 -1 201 13 q 136 -14 174 -14 q 72 13 99 -14 q 46 76 46 39 q 72 140 46 114 q 136 167 99 167 q 201 140 174 167 q 228 76 228 114 q 201 13 228 39 m 201 369 q 187 355 201 369 q 136 342 174 342 q 72 369 99 342 q 46 433 46 396 q 72 497 46 471 q 136 524 99 524 q 201 497 174 524 q 228 433 228 471 q 201 369 228 396 z "},";":{"ha":274,"x_min":39,"x_max":235,"o":"m 225 455 q 229 436 225 455 q 214 386 233 418 q 158 345 194 354 q 89 356 121 336 q 49 413 57 376 q 60 482 40 450 q 116 522 79 514 q 185 511 153 531 q 225 455 217 492 m 228 76 q 227 60 228 71 q 219 24 226 50 q 200 -24 213 -3 q 159 -65 188 -46 q 92 -89 131 -85 q 75 -83 82 -90 q 68 -67 68 -76 q 85 -46 68 -50 q 139 -19 117 -37 q 140 -16 140 -18 q 138 -14 139 -14 q 71 15 97 -14 q 46 83 44 43 q 54 114 47 99 q 72 140 61 129 q 99 158 83 151 q 131 167 114 165 q 199 142 171 169 q 228 76 228 115 z "},"<":{"ha":636,"x_min":35,"x_max":590,"o":"m 561 324 q 582 219 582 304 q 563 108 589 128 q 547 104 556 104 q 528 111 538 104 q 515 119 524 114 q 185 296 311 269 l 178 297 q 111 321 142 307 q 35 394 35 354 q 100 464 35 429 q 192 500 139 483 q 206 504 199 503 l 207 506 q 326 548 267 524 q 440 603 386 572 q 524 664 494 635 l 525 665 l 526 665 q 557 664 542 675 q 582 572 582 646 q 567 458 590 481 q 533 453 553 446 q 470 461 515 460 q 369 452 425 463 q 285 418 313 442 q 271 394 271 406 q 275 374 271 382 q 300 354 279 365 q 361 333 321 343 q 499 331 410 322 q 536 333 526 333 q 561 324 550 335 z "},"=":{"ha":567,"x_min":49,"x_max":517,"o":"m 472 671 q 501 666 488 681 q 515 625 515 651 l 515 531 q 503 491 515 506 q 476 482 492 476 q 469 486 474 483 q 448 490 461 488 q 393 499 435 493 q 309 505 351 504 q 207 498 267 506 q 93 472 147 490 q 89 469 89 471 q 62 479 74 464 q 50 518 50 494 l 50 628 q 63 667 50 653 q 89 675 75 682 q 99 672 94 672 q 162 658 126 664 q 260 643 197 651 q 379 640 322 635 q 469 668 436 646 q 472 671 471 669 m 472 426 q 501 422 488 436 q 515 381 515 407 l 515 286 q 503 247 515 261 q 476 238 492 232 q 469 242 474 239 q 448 246 461 243 q 393 254 435 249 q 309 260 351 260 q 207 253 267 261 q 93 228 147 246 q 89 225 89 225 q 62 234 74 219 q 50 274 50 249 l 50 382 q 63 422 50 407 q 89 431 75 438 q 99 426 94 428 q 162 413 126 419 q 260 399 197 407 q 379 396 322 390 q 469 424 436 401 q 472 426 471 425 z "},">":{"ha":636,"x_min":44,"x_max":601,"o":"m 535 464 q 600 394 600 429 q 524 321 600 354 q 457 297 493 307 l 451 296 q 119 119 324 269 q 107 111 113 114 q 88 104 97 104 q 72 108 79 104 q 53 219 46 128 q 74 324 54 304 q 99 333 85 335 q 136 331 108 333 q 274 333 225 322 q 348 361 331 347 q 365 394 365 375 q 350 418 365 406 q 266 452 322 442 q 165 461 210 463 q 101 453 119 460 q 68 458 82 446 q 53 572 44 481 q 78 664 53 646 q 108 665 93 675 l 110 665 l 111 664 q 244 578 154 621 q 429 506 335 535 l 429 504 q 443 500 436 503 q 535 464 496 483 z "},"?":{"ha":679,"x_min":15,"x_max":654,"o":"m 422 33 q 413 17 422 33 q 368 -10 404 0 q 299 -3 332 -21 q 256 50 267 14 q 263 119 244 86 q 315 164 281 153 q 363 165 340 169 q 404 143 386 160 q 429 103 422 126 q 422 33 440 67 m 625 779 q 632 638 654 710 q 612 600 626 619 q 565 551 597 581 q 519 509 532 521 q 460 458 506 497 q 424 371 419 425 q 431 294 428 306 q 422 250 438 269 q 383 231 407 231 l 289 231 q 258 242 271 231 q 240 268 244 253 q 243 301 236 283 q 253 349 249 317 q 315 460 260 418 q 392 529 363 493 q 456 639 440 586 q 458 725 471 692 q 411 775 444 758 q 335 785 378 792 q 228 718 261 774 q 160 663 203 679 q 75 661 118 647 q 69 664 72 663 q 28 759 17 686 q 93 879 40 832 q 144 913 111 894 q 227 949 178 931 q 331 970 276 968 q 438 960 385 972 q 542 902 492 949 q 625 779 592 856 z "},"@":{"ha":1031,"x_min":49,"x_max":986,"o":"m 513 960 q 677 944 603 960 q 800 906 751 929 q 885 849 849 882 q 940 784 921 815 q 969 717 958 753 q 983 657 981 681 q 985 610 985 633 q 985 558 985 581 q 957 424 985 485 q 887 331 929 364 q 801 280 844 297 q 722 263 758 263 q 679 272 697 263 q 653 294 661 281 q 640 320 644 307 q 635 343 635 333 l 635 353 q 583 310 617 326 q 526 292 550 294 l 501 288 q 474 288 488 289 q 447 290 460 288 q 413 301 433 293 q 376 326 393 308 q 343 368 358 343 q 319 435 328 393 q 310 532 310 478 q 323 643 310 596 q 355 715 336 690 q 399 753 374 739 q 440 772 424 768 q 474 775 457 775 q 501 775 488 775 q 596 732 551 775 q 599 731 597 731 q 601 735 601 732 q 610 761 600 750 q 635 772 619 772 q 658 762 649 772 q 668 736 668 751 q 678 446 668 547 q 679 435 679 444 q 680 419 679 426 q 682 410 681 411 q 718 342 690 342 q 759 389 738 342 q 788 509 781 436 q 772 671 796 582 l 771 671 q 747 743 763 710 q 703 811 732 776 q 625 867 674 846 q 513 888 576 888 q 415 870 458 888 q 343 826 371 853 q 295 763 315 799 q 265 694 275 726 q 250 628 256 661 q 244 576 244 594 q 243 547 243 558 l 243 544 l 243 544 q 243 543 243 544 l 243 504 q 243 500 243 504 q 243 504 243 504 q 244 492 243 499 q 251 439 246 465 q 265 378 256 413 q 294 313 275 343 q 338 255 313 283 q 402 206 363 226 q 490 176 442 186 q 538 148 519 174 q 557 89 557 122 q 531 22 557 49 q 468 0 504 -4 q 274 44 358 13 q 261 50 268 47 q 235 64 249 56 q 200 89 222 72 q 160 127 178 106 q 120 181 142 149 q 85 251 99 213 q 60 342 72 290 q 51 456 49 394 q 61 593 54 517 q 88 676 72 636 q 129 758 104 715 q 190 836 154 801 q 272 899 226 871 q 378 944 317 928 q 513 960 440 960 m 597 536 q 593 579 600 558 q 573 617 586 600 q 542 643 560 633 l 540 643 q 489 656 514 657 l 488 656 l 488 656 q 460 650 479 656 q 415 632 440 644 q 370 593 389 619 q 351 532 351 567 q 365 475 351 499 q 394 441 378 451 q 433 424 411 431 q 467 417 456 418 q 488 417 479 417 l 488 417 l 489 417 q 490 417 489 417 q 507 417 499 417 q 567 447 542 419 q 596 514 593 475 q 597 536 597 525 z "},"A":{"ha":697,"x_min":47,"x_max":650,"o":"m 353 972 q 381 968 365 971 q 421 957 396 965 q 469 933 446 949 q 520 894 493 917 q 569 833 547 871 q 610 749 592 796 q 638 634 628 701 q 649 486 649 567 l 649 57 q 633 17 649 33 q 596 1 618 1 l 501 1 q 455 28 471 1 q 453 83 439 56 q 489 153 472 118 q 492 164 490 157 q 498 190 494 171 q 501 225 501 208 q 490 263 500 242 q 463 298 481 283 q 410 323 446 313 q 326 333 375 333 q 315 333 322 333 q 288 332 307 333 q 252 326 268 331 q 218 312 236 322 q 190 285 200 301 q 181 242 181 269 q 197 178 182 214 q 243 83 218 131 q 249 46 251 64 q 231 15 246 28 q 196 1 215 1 l 101 1 q 74 9 86 1 q 54 29 61 17 q 47 57 47 42 l 47 486 q 58 634 47 567 q 87 749 68 701 q 128 833 106 796 q 177 894 150 871 q 227 933 204 917 q 276 957 250 949 q 316 968 301 965 q 343 972 331 971 q 349 972 346 972 l 353 972 m 593 569 q 349 753 569 750 q 103 553 117 750 q 106 528 103 540 q 122 497 108 515 q 159 466 136 479 q 225 444 182 453 q 326 435 268 435 q 342 434 332 435 q 382 435 353 433 q 438 440 411 436 q 496 453 464 444 q 549 477 528 463 q 584 515 571 492 q 593 569 597 539 z "},"À":{"ha":697,"x_min":47,"x_max":650,"o":"m 353 972 q 381 968 365 971 q 421 957 396 965 q 469 933 446 949 q 520 894 493 917 q 569 833 547 871 q 610 749 592 796 q 638 634 628 701 q 649 486 649 567 l 649 57 q 633 17 649 33 q 596 1 618 1 l 501 1 q 455 28 471 1 q 453 83 439 56 q 489 153 472 118 q 492 164 490 157 q 498 190 494 171 q 501 225 501 208 q 490 263 500 242 q 463 298 481 283 q 410 323 446 313 q 326 333 375 333 q 315 333 322 333 q 288 332 307 333 q 252 326 268 331 q 218 312 236 322 q 190 285 200 301 q 181 242 181 269 q 197 178 182 214 q 243 83 218 131 q 249 46 251 64 q 231 15 246 28 q 196 1 215 1 l 101 1 q 74 9 86 1 q 54 29 61 17 q 47 57 47 42 l 47 486 q 58 634 47 567 q 87 749 68 701 q 128 833 106 796 q 177 894 150 871 q 227 933 204 917 q 276 957 250 949 q 316 968 301 965 q 343 972 331 971 q 349 972 346 972 l 353 972 m 593 569 q 349 753 569 750 q 103 553 117 750 q 106 528 103 540 q 122 497 108 515 q 159 466 136 479 q 225 444 182 453 q 326 435 268 435 q 342 434 332 435 q 382 435 353 433 q 438 440 411 436 q 496 453 464 444 q 549 477 528 463 q 584 515 571 492 q 593 569 597 539 z "},"Á":{"ha":697,"x_min":47,"x_max":650,"o":"m 353 972 q 381 968 365 971 q 421 957 396 965 q 469 933 446 949 q 520 894 493 917 q 569 833 547 871 q 610 749 592 796 q 638 634 628 701 q 649 486 649 567 l 649 57 q 633 17 649 33 q 596 1 618 1 l 501 1 q 455 28 471 1 q 453 83 439 56 q 489 153 472 118 q 492 164 490 157 q 498 190 494 171 q 501 225 501 208 q 490 263 500 242 q 463 298 481 283 q 410 323 446 313 q 326 333 375 333 q 315 333 322 333 q 288 332 307 333 q 252 326 268 331 q 218 312 236 322 q 190 285 200 301 q 181 242 181 269 q 197 178 182 214 q 243 83 218 131 q 249 46 251 64 q 231 15 246 28 q 196 1 215 1 l 101 1 q 74 9 86 1 q 54 29 61 17 q 47 57 47 42 l 47 486 q 58 634 47 567 q 87 749 68 701 q 128 833 106 796 q 177 894 150 871 q 227 933 204 917 q 276 957 250 949 q 316 968 301 965 q 343 972 331 971 q 349 972 346 972 l 353 972 m 593 569 q 349 753 569 750 q 103 553 117 750 q 106 528 103 540 q 122 497 108 515 q 159 466 136 479 q 225 444 182 453 q 326 435 268 435 q 342 434 332 435 q 382 435 353 433 q 438 440 411 436 q 496 453 464 444 q 549 477 528 463 q 584 515 571 492 q 593 569 597 539 z "},"Â":{"ha":697,"x_min":47,"x_max":650,"o":"m 353 972 q 381 968 365 971 q 421 957 396 965 q 469 933 446 949 q 520 894 493 917 q 569 833 547 871 q 610 749 592 796 q 638 634 628 701 q 649 486 649 567 l 649 57 q 633 17 649 33 q 596 1 618 1 l 501 1 q 455 28 471 1 q 453 83 439 56 q 489 153 472 118 q 492 164 490 157 q 498 190 494 171 q 501 225 501 208 q 490 263 500 242 q 463 298 481 283 q 410 323 446 313 q 326 333 375 333 q 315 333 322 333 q 288 332 307 333 q 252 326 268 331 q 218 312 236 322 q 190 285 200 301 q 181 242 181 269 q 197 178 182 214 q 243 83 218 131 q 249 46 251 64 q 231 15 246 28 q 196 1 215 1 l 101 1 q 74 9 86 1 q 54 29 61 17 q 47 57 47 42 l 47 486 q 58 634 47 567 q 87 749 68 701 q 128 833 106 796 q 177 894 150 871 q 227 933 204 917 q 276 957 250 949 q 316 968 301 965 q 343 972 331 971 q 349 972 346 972 l 353 972 m 593 569 q 349 753 569 750 q 103 553 117 750 q 106 528 103 540 q 122 497 108 515 q 159 466 136 479 q 225 444 182 453 q 326 435 268 435 q 342 434 332 435 q 382 435 353 433 q 438 440 411 436 q 496 453 464 444 q 549 477 528 463 q 584 515 571 492 q 593 569 597 539 z "},"Ã":{"ha":697,"x_min":47,"x_max":650,"o":"m 353 972 q 381 968 365 971 q 421 957 396 965 q 469 933 446 949 q 520 894 493 917 q 569 833 547 871 q 610 749 592 796 q 638 634 628 701 q 649 486 649 567 l 649 57 q 633 17 649 33 q 596 1 618 1 l 501 1 q 455 28 471 1 q 453 83 439 56 q 489 153 472 118 q 492 164 490 157 q 498 190 494 171 q 501 225 501 208 q 490 263 500 242 q 463 298 481 283 q 410 323 446 313 q 326 333 375 333 q 315 333 322 333 q 288 332 307 333 q 252 326 268 331 q 218 312 236 322 q 190 285 200 301 q 181 242 181 269 q 197 178 182 214 q 243 83 218 131 q 249 46 251 64 q 231 15 246 28 q 196 1 215 1 l 101 1 q 74 9 86 1 q 54 29 61 17 q 47 57 47 42 l 47 486 q 58 634 47 567 q 87 749 68 701 q 128 833 106 796 q 177 894 150 871 q 227 933 204 917 q 276 957 250 949 q 316 968 301 965 q 343 972 331 971 q 349 972 346 972 l 353 972 m 593 569 q 349 753 569 750 q 103 553 117 750 q 106 528 103 540 q 122 497 108 515 q 159 466 136 479 q 225 444 182 453 q 326 435 268 435 q 342 434 332 435 q 382 435 353 433 q 438 440 411 436 q 496 453 464 444 q 549 477 528 463 q 584 515 571 492 q 593 569 597 539 z "},"Ä":{"ha":697,"x_min":47,"x_max":650,"o":"m 353 972 q 381 968 365 971 q 421 957 396 965 q 469 933 446 949 q 520 894 493 917 q 569 833 547 871 q 610 749 592 796 q 638 634 628 701 q 649 486 649 567 l 649 57 q 633 17 649 33 q 596 1 618 1 l 501 1 q 455 28 471 1 q 453 83 439 56 q 489 153 472 118 q 492 164 490 157 q 498 190 494 171 q 501 225 501 208 q 490 263 500 242 q 463 298 481 283 q 410 323 446 313 q 326 333 375 333 q 315 333 322 333 q 288 332 307 333 q 252 326 268 331 q 218 312 236 322 q 190 285 200 301 q 181 242 181 269 q 197 178 182 214 q 243 83 218 131 q 249 46 251 64 q 231 15 246 28 q 196 1 215 1 l 101 1 q 74 9 86 1 q 54 29 61 17 q 47 57 47 42 l 47 486 q 58 634 47 567 q 87 749 68 701 q 128 833 106 796 q 177 894 150 871 q 227 933 204 917 q 276 957 250 949 q 316 968 301 965 q 343 972 331 971 q 349 972 346 972 l 353 972 m 593 569 q 349 753 569 750 q 103 553 117 750 q 106 528 103 540 q 122 497 108 515 q 159 466 136 479 q 225 444 182 453 q 326 435 268 435 q 342 434 332 435 q 382 435 353 433 q 438 440 411 436 q 496 453 464 444 q 549 477 528 463 q 584 515 571 492 q 593 569 597 539 z "},"Å":{"ha":697,"x_min":47,"x_max":650,"o":"m 353 972 q 381 968 365 971 q 421 957 396 965 q 469 933 446 949 q 520 894 493 917 q 569 833 547 871 q 610 749 592 796 q 638 634 628 701 q 649 486 649 567 l 649 57 q 633 17 649 33 q 596 1 618 1 l 501 1 q 455 28 471 1 q 453 83 439 56 q 489 153 472 118 q 492 164 490 157 q 498 190 494 171 q 501 225 501 208 q 490 263 500 242 q 463 298 481 283 q 410 323 446 313 q 326 333 375 333 q 315 333 322 333 q 288 332 307 333 q 252 326 268 331 q 218 312 236 322 q 190 285 200 301 q 181 242 181 269 q 197 178 182 214 q 243 83 218 131 q 249 46 251 64 q 231 15 246 28 q 196 1 215 1 l 101 1 q 74 9 86 1 q 54 29 61 17 q 47 57 47 42 l 47 486 q 58 634 47 567 q 87 749 68 701 q 128 833 106 796 q 177 894 150 871 q 227 933 204 917 q 276 957 250 949 q 316 968 301 965 q 343 972 331 971 q 349 972 346 972 l 353 972 m 593 569 q 349 753 569 750 q 103 553 117 750 q 106 528 103 540 q 122 497 108 515 q 159 466 136 479 q 225 444 182 453 q 326 435 268 435 q 342 434 332 435 q 382 435 353 433 q 438 440 411 436 q 496 453 464 444 q 549 477 528 463 q 584 515 571 492 q 593 569 597 539 z "},"B":{"ha":678,"x_min":15,"x_max":642,"o":"m 411 476 q 642 242 642 418 q 617 138 642 182 q 556 67 593 93 q 463 26 519 42 q 352 6 406 11 q 231 0 299 0 l 229 0 q 168 0 201 -1 l 72 0 q 31 22 46 0 q 26 68 15 44 q 126 810 115 282 q 126 811 126 811 q 119 856 126 836 q 101 885 111 875 q 80 901 92 894 q 63 908 68 907 q 56 908 58 908 q 32 917 42 908 q 22 940 22 926 q 31 962 22 953 q 53 971 40 971 q 104 972 69 971 q 224 973 161 975 q 346 967 286 971 q 459 946 406 963 q 553 903 513 929 q 617 831 593 878 q 640 721 640 783 q 411 476 640 538 m 207 550 q 208 546 207 549 q 214 536 210 543 q 225 526 218 529 q 244 519 232 522 q 275 521 257 517 q 332 542 306 529 q 374 570 358 556 q 402 601 390 585 q 420 633 414 618 q 429 659 426 647 q 433 678 432 671 l 433 685 q 244 893 433 846 q 238 894 240 893 q 232 896 235 894 q 210 891 219 897 q 199 873 201 885 q 194 854 196 861 q 193 843 193 847 q 207 550 197 689 m 328 106 q 435 276 435 161 q 433 288 435 281 q 424 317 432 296 q 403 356 417 338 q 363 395 390 375 q 296 426 335 415 l 296 425 q 288 427 293 426 q 268 428 282 428 q 244 426 254 429 q 227 413 235 424 q 222 386 219 403 q 265 114 239 232 q 269 107 267 111 q 283 97 272 103 q 306 96 293 92 q 321 101 314 99 q 328 106 325 104 z "},"C":{"ha":689,"x_min":35,"x_max":665,"o":"m 583 376 q 642 350 619 376 q 657 290 664 324 q 612 155 642 213 q 551 68 582 97 q 482 22 519 39 q 421 2 444 6 q 374 0 397 -1 q 335 0 356 1 q 301 2 318 0 q 258 10 285 4 q 208 32 232 17 q 158 69 185 47 q 110 129 132 92 q 72 215 89 167 q 44 333 54 264 q 35 486 35 403 q 48 656 35 579 q 81 782 61 732 q 128 869 100 832 q 184 925 157 906 q 242 956 211 944 q 292 969 272 967 q 332 972 313 972 q 375 972 358 972 q 422 969 399 972 q 483 949 446 965 q 549 906 519 933 q 609 823 579 878 q 654 694 639 768 q 640 633 663 660 q 582 606 618 606 l 572 606 q 506 647 526 606 q 356 761 449 763 q 354 761 356 761 l 354 761 q 331 760 343 761 q 292 754 318 760 q 241 739 265 749 q 190 708 217 729 q 142 660 163 688 q 109 587 122 632 q 96 486 96 542 q 109 386 96 431 q 142 314 122 342 q 190 267 163 286 q 241 238 217 247 q 292 224 265 229 q 331 219 318 219 q 354 219 343 219 q 354 219 354 219 l 356 219 q 515 333 460 214 q 583 376 536 376 z "},"Ç":{"ha":689,"x_min":35,"x_max":665,"o":"m 583 376 q 642 350 619 376 q 657 290 664 324 q 612 155 642 213 q 551 68 582 97 q 482 22 519 39 q 421 2 444 6 q 374 0 397 -1 q 335 0 356 1 q 301 2 318 0 q 258 10 285 4 q 208 32 232 17 q 158 69 185 47 q 110 129 132 92 q 72 215 89 167 q 44 333 54 264 q 35 486 35 403 q 48 656 35 579 q 81 782 61 732 q 128 869 100 832 q 184 925 157 906 q 242 956 211 944 q 292 969 272 967 q 332 972 313 972 q 375 972 358 972 q 422 969 399 972 q 483 949 446 965 q 549 906 519 933 q 609 823 579 878 q 654 694 639 768 q 640 633 663 660 q 582 606 618 606 l 572 606 q 506 647 526 606 q 356 761 449 763 q 354 761 356 761 l 354 761 q 331 760 343 761 q 292 754 318 760 q 241 739 265 749 q 190 708 217 729 q 142 660 163 688 q 109 587 122 632 q 96 486 96 542 q 109 386 96 431 q 142 314 122 342 q 190 267 163 286 q 241 238 217 247 q 292 224 265 229 q 331 219 318 219 q 354 219 343 219 q 354 219 354 219 l 356 219 q 515 333 460 214 q 583 376 536 376 z "},"D":{"ha":669,"x_min":15,"x_max":642,"o":"m 167 972 q 192 972 168 968 q 260 966 217 976 q 353 944 303 956 q 454 896 403 932 q 547 813 506 860 q 614 685 588 767 q 640 501 640 603 q 622 332 640 408 q 576 206 604 256 q 509 117 549 156 q 433 57 469 78 q 354 22 396 36 q 285 5 313 8 q 233 0 258 1 l 207 0 l 72 0 q 31 22 46 0 q 26 68 15 44 q 126 811 115 282 q 126 811 126 811 q 119 857 126 838 q 101 886 111 876 q 80 902 90 896 q 61 910 69 908 l 54 911 l 53 911 q 31 920 40 911 q 22 942 22 929 q 31 963 22 954 q 53 972 40 972 l 167 972 m 347 138 q 431 501 431 244 q 276 874 431 782 q 236 887 253 888 q 212 878 219 886 q 199 856 204 871 q 194 835 194 842 q 194 825 194 829 q 263 125 203 404 q 269 110 265 118 q 295 103 274 101 q 347 138 317 104 z "},"E":{"ha":660,"x_min":13,"x_max":625,"o":"m 357 907 q 210 763 225 907 q 222 533 214 643 q 268 500 226 499 q 467 565 379 513 q 508 563 488 578 q 529 524 529 547 l 529 406 q 506 364 529 379 q 463 365 482 349 q 283 444 394 431 q 264 444 274 446 q 243 433 254 443 q 235 403 232 424 q 275 133 251 253 q 278 127 276 132 q 284 111 279 122 q 296 92 289 100 q 315 76 303 83 q 342 67 326 68 q 357 65 349 65 q 413 101 383 65 q 470 184 442 136 q 511 244 499 232 q 583 268 542 276 q 624 215 624 260 l 624 199 q 624 182 624 197 q 625 155 625 167 q 623 124 625 143 q 617 89 621 104 q 607 56 614 74 q 590 28 600 39 q 563 9 579 17 q 528 1 547 1 l 86 1 q 44 24 60 1 q 40 69 29 46 q 139 756 124 271 q 131 826 139 796 q 110 872 122 857 q 84 895 99 886 q 61 906 69 904 q 46 907 53 907 l 44 907 q 22 917 32 907 q 13 940 13 926 q 22 963 13 953 q 44 972 32 972 l 528 972 q 563 965 547 972 q 590 946 579 957 q 607 917 600 935 q 617 885 614 900 q 623 849 621 869 q 625 818 625 829 q 624 792 625 807 q 624 775 624 776 l 624 757 q 583 705 624 714 q 511 729 542 696 q 470 790 499 742 q 413 872 442 838 q 357 907 383 907 z "},"È":{"ha":660,"x_min":13,"x_max":625,"o":"m 357 907 q 210 763 225 907 q 222 533 214 643 q 268 500 226 499 q 467 565 379 513 q 508 563 488 578 q 529 524 529 547 l 529 406 q 506 364 529 379 q 463 365 482 349 q 283 444 394 431 q 264 444 274 446 q 243 433 254 443 q 235 403 232 424 q 275 133 251 253 q 278 127 276 132 q 284 111 279 122 q 296 92 289 100 q 315 76 303 83 q 342 67 326 68 q 357 65 349 65 q 413 101 383 65 q 470 184 442 136 q 511 244 499 232 q 583 268 542 276 q 624 215 624 260 l 624 199 q 624 182 624 197 q 625 155 625 167 q 623 124 625 143 q 617 89 621 104 q 607 56 614 74 q 590 28 600 39 q 563 9 579 17 q 528 1 547 1 l 86 1 q 44 24 60 1 q 40 69 29 46 q 139 756 124 271 q 131 826 139 796 q 110 872 122 857 q 84 895 99 886 q 61 906 69 904 q 46 907 53 907 l 44 907 q 22 917 32 907 q 13 940 13 926 q 22 963 13 953 q 44 972 32 972 l 528 972 q 563 965 547 972 q 590 946 579 957 q 607 917 600 935 q 617 885 614 900 q 623 849 621 869 q 625 818 625 829 q 624 792 625 807 q 624 775 624 776 l 624 757 q 583 705 624 714 q 511 729 542 696 q 470 790 499 742 q 413 872 442 838 q 357 907 383 907 z "},"É":{"ha":660,"x_min":13,"x_max":625,"o":"m 357 907 q 210 763 225 907 q 222 533 214 643 q 268 500 226 499 q 467 565 379 513 q 508 563 488 578 q 529 524 529 547 l 529 406 q 506 364 529 379 q 463 365 482 349 q 283 444 394 431 q 264 444 274 446 q 243 433 254 443 q 235 403 232 424 q 275 133 251 253 q 278 127 276 132 q 284 111 279 122 q 296 92 289 100 q 315 76 303 83 q 342 67 326 68 q 357 65 349 65 q 413 101 383 65 q 470 184 442 136 q 511 244 499 232 q 583 268 542 276 q 624 215 624 260 l 624 199 q 624 182 624 197 q 625 155 625 167 q 623 124 625 143 q 617 89 621 104 q 607 56 614 74 q 590 28 600 39 q 563 9 579 17 q 528 1 547 1 l 86 1 q 44 24 60 1 q 40 69 29 46 q 139 756 124 271 q 131 826 139 796 q 110 872 122 857 q 84 895 99 886 q 61 906 69 904 q 46 907 53 907 l 44 907 q 22 917 32 907 q 13 940 13 926 q 22 963 13 953 q 44 972 32 972 l 528 972 q 563 965 547 972 q 590 946 579 957 q 607 917 600 935 q 617 885 614 900 q 623 849 621 869 q 625 818 625 829 q 624 792 625 807 q 624 775 624 776 l 624 757 q 583 705 624 714 q 511 729 542 696 q 470 790 499 742 q 413 872 442 838 q 357 907 383 907 z "},"Ê":{"ha":660,"x_min":13,"x_max":625,"o":"m 357 907 q 210 763 225 907 q 222 533 214 643 q 268 500 226 499 q 467 565 379 513 q 508 563 488 578 q 529 524 529 547 l 529 406 q 506 364 529 379 q 463 365 482 349 q 283 444 394 431 q 264 444 274 446 q 243 433 254 443 q 235 403 232 424 q 275 133 251 253 q 278 127 276 132 q 284 111 279 122 q 296 92 289 100 q 315 76 303 83 q 342 67 326 68 q 357 65 349 65 q 413 101 383 65 q 470 184 442 136 q 511 244 499 232 q 583 268 542 276 q 624 215 624 260 l 624 199 q 624 182 624 197 q 625 155 625 167 q 623 124 625 143 q 617 89 621 104 q 607 56 614 74 q 590 28 600 39 q 563 9 579 17 q 528 1 547 1 l 86 1 q 44 24 60 1 q 40 69 29 46 q 139 756 124 271 q 131 826 139 796 q 110 872 122 857 q 84 895 99 886 q 61 906 69 904 q 46 907 53 907 l 44 907 q 22 917 32 907 q 13 940 13 926 q 22 963 13 953 q 44 972 32 972 l 528 972 q 563 965 547 972 q 590 946 579 957 q 607 917 600 935 q 617 885 614 900 q 623 849 621 869 q 625 818 625 829 q 624 792 625 807 q 624 775 624 776 l 624 757 q 583 705 624 714 q 511 729 542 696 q 470 790 499 742 q 413 872 442 838 q 357 907 383 907 z "},"Ë":{"ha":660,"x_min":13,"x_max":625,"o":"m 357 907 q 210 763 225 907 q 222 533 214 643 q 268 500 226 499 q 467 565 379 513 q 508 563 488 578 q 529 524 529 547 l 529 406 q 506 364 529 379 q 463 365 482 349 q 283 444 394 431 q 264 444 274 446 q 243 433 254 443 q 235 403 232 424 q 275 133 251 253 q 278 127 276 132 q 284 111 279 122 q 296 92 289 100 q 315 76 303 83 q 342 67 326 68 q 357 65 349 65 q 413 101 383 65 q 470 184 442 136 q 511 244 499 232 q 583 268 542 276 q 624 215 624 260 l 624 199 q 624 182 624 197 q 625 155 625 167 q 623 124 625 143 q 617 89 621 104 q 607 56 614 74 q 590 28 600 39 q 563 9 579 17 q 528 1 547 1 l 86 1 q 44 24 60 1 q 40 69 29 46 q 139 756 124 271 q 131 826 139 796 q 110 872 122 857 q 84 895 99 886 q 61 906 69 904 q 46 907 53 907 l 44 907 q 22 917 32 907 q 13 940 13 926 q 22 963 13 953 q 44 972 32 972 l 528 972 q 563 965 547 972 q 590 946 579 957 q 607 917 600 935 q 617 885 614 900 q 623 849 621 869 q 625 818 625 829 q 624 792 625 807 q 624 775 624 776 l 624 757 q 583 705 624 714 q 511 729 542 696 q 470 790 499 742 q 413 872 442 838 q 357 907 383 907 z "},"F":{"ha":636,"x_min":13,"x_max":625,"o":"m 528 972 q 563 965 547 972 q 590 946 579 957 q 607 917 600 935 q 617 884 614 899 q 623 849 621 869 q 625 818 625 829 q 624 791 625 807 q 624 775 624 775 l 624 757 q 583 705 624 714 q 511 728 542 696 q 480 772 500 739 q 442 833 460 804 q 401 884 425 861 q 357 907 378 907 q 210 763 225 907 q 221 554 214 654 q 224 538 221 547 q 240 513 226 528 q 274 500 253 499 q 467 565 382 513 q 508 563 488 578 q 529 522 529 547 l 529 406 q 506 363 529 379 q 463 365 482 347 q 283 443 394 431 q 278 443 282 443 q 265 441 274 443 q 249 434 256 439 q 238 419 243 429 q 235 394 233 408 q 292 63 257 197 q 283 19 299 39 q 244 0 268 0 l 86 0 q 44 22 60 0 q 40 69 29 44 q 139 756 124 269 q 131 826 139 796 q 110 872 122 857 q 84 895 99 886 q 61 906 69 904 q 46 907 53 907 l 44 907 q 22 917 32 907 q 13 940 13 926 q 22 963 13 953 q 44 972 32 972 l 528 972 z "},"G":{"ha":724,"x_min":35,"x_max":707,"o":"m 653 476 q 692 458 676 476 q 700 415 707 439 q 679 356 693 389 q 655 298 665 324 q 634 205 644 272 q 619 38 624 138 q 607 11 618 22 q 579 0 596 0 q 553 10 564 0 q 539 36 542 21 q 536 56 539 46 q 374 0 465 -4 q 335 0 356 0 q 295 1 315 -1 q 244 15 275 4 q 187 44 214 25 q 131 101 160 64 q 81 188 101 138 q 48 315 61 238 q 35 486 35 392 q 48 657 35 581 q 81 783 61 733 q 128 869 100 832 q 184 925 157 906 q 242 956 211 944 q 292 971 272 968 q 332 972 313 974 q 375 972 358 972 q 422 970 399 974 q 483 950 446 967 q 549 906 519 933 q 609 823 579 878 q 654 694 639 768 q 640 633 663 660 q 582 606 618 606 l 572 606 q 506 647 526 606 q 356 761 449 764 q 354 761 356 761 l 354 761 q 331 761 343 763 q 292 754 318 760 q 241 739 265 749 q 190 708 217 729 q 142 660 163 688 q 109 587 122 632 q 96 486 96 542 q 111 380 96 426 q 149 306 126 333 q 201 259 171 278 q 256 233 232 240 q 307 222 281 225 q 326 219 311 221 q 343 219 335 219 l 490 219 l 404 396 q 399 408 400 406 q 403 454 389 432 q 444 476 418 476 l 653 476 z "},"H":{"ha":701,"x_min":14,"x_max":683,"o":"m 592 599 q 603 340 593 442 q 624 204 614 239 q 652 130 635 169 q 676 63 669 90 q 668 20 683 39 q 629 1 653 1 l 471 1 q 430 24 444 1 q 425 69 415 46 q 499 322 472 182 q 481 396 504 374 q 356 432 424 432 q 231 394 288 432 q 204 326 200 372 q 204 319 204 324 q 206 317 204 318 q 226 199 213 243 q 254 123 239 156 q 276 63 269 90 q 268 20 283 39 q 229 1 253 1 l 71 1 q 29 24 44 1 q 25 69 14 46 q 126 585 117 290 q 53 903 111 764 q 51 935 47 919 q 68 960 54 950 q 99 971 82 971 l 193 971 q 233 952 218 971 q 242 910 247 933 q 226 857 236 889 q 210 805 215 825 q 200 735 206 785 q 192 613 194 686 q 224 547 192 567 q 359 517 288 517 q 494 550 431 518 q 524 615 525 571 q 453 903 506 776 q 451 935 447 919 q 468 960 454 950 q 499 971 482 971 l 593 971 q 633 952 618 971 q 642 910 647 933 q 626 856 636 890 q 610 802 615 822 q 600 729 606 782 q 592 599 594 676 z "},"I":{"ha":304,"x_min":15,"x_max":285,"o":"m 193 599 q 204 340 194 442 q 225 203 214 238 q 253 128 236 168 q 278 61 271 89 q 269 19 285 38 q 231 0 254 0 l 72 0 q 31 22 46 0 q 26 68 15 44 q 128 585 118 289 q 44 904 115 735 q 48 950 33 928 q 90 972 63 972 l 211 972 q 251 953 236 972 q 260 911 265 935 q 235 846 253 886 q 207 751 218 806 q 193 599 196 697 z "},"Ì":{"ha":304,"x_min":15,"x_max":285,"o":"m 193 599 q 204 340 194 442 q 225 203 214 238 q 253 128 236 168 q 278 61 271 89 q 269 19 285 38 q 231 0 254 0 l 72 0 q 31 22 46 0 q 26 68 15 44 q 128 585 118 289 q 44 904 115 735 q 48 950 33 928 q 90 972 63 972 l 211 972 q 251 953 236 972 q 260 911 265 935 q 235 846 253 886 q 207 751 218 806 q 193 599 196 697 z "},"Í":{"ha":304,"x_min":15,"x_max":285,"o":"m 193 599 q 204 340 194 442 q 225 203 214 238 q 253 128 236 168 q 278 61 271 89 q 269 19 285 38 q 231 0 254 0 l 72 0 q 31 22 46 0 q 26 68 15 44 q 128 585 118 289 q 44 904 115 735 q 48 950 33 928 q 90 972 63 972 l 211 972 q 251 953 236 972 q 260 911 265 935 q 235 846 253 886 q 207 751 218 806 q 193 599 196 697 z "},"Î":{"ha":304,"x_min":15,"x_max":285,"o":"m 193 599 q 204 340 194 442 q 225 203 214 238 q 253 128 236 168 q 278 61 271 89 q 269 19 285 38 q 231 0 254 0 l 72 0 q 31 22 46 0 q 26 68 15 44 q 128 585 118 289 q 44 904 115 735 q 48 950 33 928 q 90 972 63 972 l 211 972 q 251 953 236 972 q 260 911 265 935 q 235 846 253 886 q 207 751 218 806 q 193 599 196 697 z "},"Ï":{"ha":304,"x_min":15,"x_max":285,"o":"m 193 599 q 204 340 194 442 q 225 203 214 238 q 253 128 236 168 q 278 61 271 89 q 269 19 285 38 q 231 0 254 0 l 72 0 q 31 22 46 0 q 26 68 15 44 q 128 585 118 289 q 44 904 115 735 q 48 950 33 928 q 90 972 63 972 l 211 972 q 251 953 236 972 q 260 911 265 935 q 235 846 253 886 q 207 751 218 806 q 193 599 196 697 z "},"J":{"ha":607,"x_min":15,"x_max":589,"o":"m 558 967 q 581 942 574 958 q 583 910 588 926 q 501 265 519 661 q 499 214 503 239 q 482 145 493 178 q 450 77 471 113 q 390 21 429 42 q 300 0 351 0 q 190 26 240 0 q 108 88 139 51 q 56 168 78 125 q 26 244 35 211 q 17 296 17 276 q 24 344 17 324 q 47 374 32 364 q 82 385 61 385 q 128 372 111 385 q 165 326 144 358 q 188 292 179 304 q 217 262 197 281 q 261 234 236 243 q 318 225 286 225 q 404 253 381 225 q 424 358 428 282 q 422 385 424 371 q 421 396 422 390 q 331 903 397 744 q 295 891 318 925 q 244 799 272 857 q 204 728 217 742 q 134 705 174 696 q 94 757 94 714 l 94 775 q 94 790 94 775 q 94 817 94 806 q 96 849 94 829 q 101 884 97 869 q 111 916 104 899 q 128 945 118 933 q 153 965 138 957 q 188 972 168 972 l 561 972 l 558 967 z "},"K":{"ha":660,"x_min":14,"x_max":647,"o":"m 361 453 q 478 363 426 415 q 562 256 531 311 q 610 158 593 201 q 639 71 628 114 q 629 22 646 44 q 585 0 613 0 l 421 0 q 374 26 390 0 q 368 79 357 51 q 324 403 446 265 q 231 472 281 449 q 226 473 229 472 q 217 474 224 474 q 206 473 211 475 q 198 463 201 471 q 196 442 194 456 q 206 303 199 361 q 223 211 214 244 q 241 156 232 178 q 260 111 250 135 q 277 64 271 88 q 268 21 283 40 q 229 1 253 1 l 71 1 q 29 24 44 1 q 25 69 14 46 q 126 585 117 290 q 53 903 111 764 q 51 935 47 919 q 68 961 54 950 q 99 972 82 972 l 193 972 q 233 953 218 972 q 242 910 247 933 q 226 856 236 890 q 210 802 215 822 q 200 729 206 782 q 192 599 194 676 q 192 558 192 578 q 193 547 192 553 q 204 533 194 540 q 231 531 214 526 q 324 585 281 542 q 368 897 446 717 q 374 948 357 924 q 421 972 390 972 l 585 972 q 629 951 613 972 q 639 904 646 931 q 610 820 628 863 q 562 726 593 778 q 478 624 531 674 q 361 538 426 574 q 303 510 333 522 q 265 499 288 503 q 303 482 283 492 q 361 453 333 468 z "},"L":{"ha":615,"x_min":15,"x_max":613,"o":"m 611 215 l 611 197 q 611 181 611 197 q 611 154 611 165 q 610 123 611 143 q 605 88 608 103 q 594 56 601 74 q 577 27 588 39 q 551 8 567 15 q 514 0 535 0 l 54 0 q 32 10 42 0 q 22 33 22 19 q 36 60 22 50 l 36 60 q 38 60 36 60 q 68 86 54 71 q 91 116 82 101 q 106 147 100 131 q 116 176 113 164 q 122 201 119 189 q 124 218 124 214 q 125 225 125 222 q 26 903 110 704 q 31 950 15 928 q 72 972 46 972 l 231 972 q 258 963 246 972 q 276 940 271 954 q 278 910 282 925 q 200 303 218 678 l 201 310 q 200 300 200 306 q 196 219 197 261 q 206 166 199 190 q 229 117 214 142 q 274 79 244 93 q 343 65 303 65 q 400 101 371 65 q 457 184 429 136 q 497 244 485 232 q 570 267 529 276 q 611 215 611 258 z "},"M":{"ha":1022,"x_min":14,"x_max":1007,"o":"m 896 586 q 997 71 904 290 q 992 24 1007 46 q 951 1 978 1 l 793 1 q 753 21 768 1 q 744 64 739 40 q 769 130 751 90 q 797 204 786 169 q 819 340 808 239 q 831 599 829 442 q 810 807 825 742 q 805 819 808 813 q 790 839 801 826 q 766 853 779 851 q 733 835 753 854 q 693 775 714 817 q 672 733 689 768 q 647 678 656 697 q 623 621 639 660 q 599 551 607 582 q 581 478 590 519 q 569 394 572 438 q 567 306 565 350 q 581 217 574 261 q 638 64 599 146 q 640 57 639 61 q 640 42 640 53 q 637 23 640 31 q 621 8 633 15 q 589 1 608 1 l 564 1 q 557 0 560 0 l 465 0 q 457 1 461 0 l 432 1 q 425 3 429 1 q 409 8 421 4 q 392 19 397 13 q 381 40 386 26 q 386 71 376 53 q 456 306 439 210 q 454 384 457 344 q 446 456 451 424 q 431 525 440 489 q 412 586 421 561 q 390 643 403 611 q 368 692 376 675 q 347 738 360 710 q 329 775 333 765 q 267 851 296 842 q 225 835 238 860 l 213 810 q 192 599 197 743 q 203 340 193 442 q 224 204 213 239 q 252 130 235 169 q 276 64 269 90 q 268 21 283 40 q 229 1 253 1 l 71 1 q 29 24 44 1 q 25 71 14 46 q 126 586 117 290 q 53 903 111 764 q 58 950 43 928 q 99 972 72 972 l 193 972 q 200 971 196 972 q 308 925 250 968 q 367 869 339 901 q 511 619 454 774 q 656 869 568 774 q 713 925 683 901 q 821 971 772 968 q 828 972 825 972 l 922 972 q 965 950 950 972 q 968 903 979 928 q 896 586 911 764 z "},"N":{"ha":701,"x_min":14,"x_max":683,"o":"m 629 972 q 668 953 653 972 q 676 910 683 933 q 652 844 669 883 q 624 769 635 804 q 603 633 614 735 q 592 374 593 531 q 600 243 594 296 q 610 169 606 190 q 626 115 615 149 q 642 63 636 82 q 633 19 647 39 q 593 0 618 0 l 499 0 q 486 1 492 0 q 417 51 443 10 q 393 140 392 92 q 393 144 393 143 q 345 419 394 272 q 215 681 296 567 q 214 682 214 681 q 194 672 199 703 q 192 599 193 639 q 203 340 193 442 q 224 204 213 239 q 252 130 235 169 q 276 63 269 90 q 268 20 283 39 q 229 1 253 1 l 71 1 q 29 24 44 1 q 25 69 14 46 q 126 585 117 290 q 53 903 111 764 q 58 949 43 928 q 99 971 72 971 l 188 971 q 193 971 190 972 q 208 969 201 971 q 289 928 249 960 q 333 857 329 897 q 339 810 336 833 q 492 360 372 578 q 493 358 492 360 q 497 350 493 357 q 506 340 501 343 q 513 338 510 336 q 517 342 515 339 q 521 350 519 344 q 523 359 522 356 q 524 367 524 363 q 526 388 525 378 q 425 903 517 682 q 423 936 419 921 q 440 962 426 951 q 471 972 454 972 l 629 972 z "},"Ñ":{"ha":701,"x_min":14,"x_max":683,"o":"m 629 972 q 668 953 653 972 q 676 910 683 933 q 652 844 669 883 q 624 769 635 804 q 603 633 614 735 q 592 374 593 531 q 600 243 594 296 q 610 169 606 190 q 626 115 615 149 q 642 63 636 82 q 633 19 647 39 q 593 0 618 0 l 499 0 q 486 1 492 0 q 417 51 443 10 q 393 140 392 92 q 393 144 393 143 q 345 419 394 272 q 215 681 296 567 q 214 682 214 681 q 194 672 199 703 q 192 599 193 639 q 203 340 193 442 q 224 204 213 239 q 252 130 235 169 q 276 63 269 90 q 268 20 283 39 q 229 1 253 1 l 71 1 q 29 24 44 1 q 25 69 14 46 q 126 585 117 290 q 53 903 111 764 q 58 949 43 928 q 99 971 72 971 l 188 971 q 193 971 190 972 q 208 969 201 971 q 289 928 249 960 q 333 857 329 897 q 339 810 336 833 q 492 360 372 578 q 493 358 492 360 q 497 350 493 357 q 506 340 501 343 q 513 338 510 336 q 517 342 515 339 q 521 350 519 344 q 523 359 522 356 q 524 367 524 363 q 526 388 525 378 q 425 903 517 682 q 423 936 419 921 q 440 962 426 951 q 471 972 454 972 l 629 972 z "},"O":{"ha":710,"x_min":35,"x_max":675,"o":"m 381 972 q 415 970 397 972 q 458 960 432 968 q 507 938 483 953 q 556 899 531 922 q 602 838 582 875 q 639 752 622 800 q 665 636 656 704 q 675 486 675 568 q 667 351 675 414 q 647 243 660 289 q 615 160 633 197 q 577 98 597 122 q 534 55 557 74 q 490 26 511 36 q 448 9 469 15 q 410 1 426 3 q 381 0 394 0 q 329 0 354 0 q 289 3 310 0 q 238 17 268 6 q 181 49 207 29 q 126 106 154 68 q 79 192 99 143 q 47 317 60 242 q 35 486 35 393 q 47 655 35 579 q 79 780 60 731 q 126 867 99 829 q 181 924 154 904 q 238 955 207 943 q 289 969 268 967 q 329 972 310 972 q 381 972 354 972 m 356 219 q 378 219 365 219 q 418 224 392 219 q 468 238 444 229 q 519 267 492 247 q 567 314 547 286 q 601 386 588 342 q 614 486 614 431 q 601 587 614 542 q 567 660 588 632 q 519 708 547 688 q 468 739 492 729 q 418 754 444 749 q 378 760 392 760 q 356 761 365 761 q 354 761 356 761 l 354 761 q 335 760 346 761 q 302 757 324 760 q 260 747 281 754 q 215 726 240 739 q 170 692 190 714 q 133 644 150 671 q 106 576 115 617 q 96 486 96 535 q 109 386 96 431 q 142 314 122 342 q 190 267 163 286 q 241 238 217 247 q 292 224 265 229 q 331 219 318 219 q 354 219 343 219 q 354 219 354 219 l 356 219 z "},"Ò":{"ha":710,"x_min":35,"x_max":675,"o":"m 381 972 q 415 970 397 972 q 458 960 432 968 q 507 938 483 953 q 556 899 531 922 q 602 838 582 875 q 639 752 622 800 q 665 636 656 704 q 675 486 675 568 q 667 351 675 414 q 647 243 660 289 q 615 160 633 197 q 577 98 597 122 q 534 55 557 74 q 490 26 511 36 q 448 9 469 15 q 410 1 426 3 q 381 0 394 0 q 329 0 354 0 q 289 3 310 0 q 238 17 268 6 q 181 49 207 29 q 126 106 154 68 q 79 192 99 143 q 47 317 60 242 q 35 486 35 393 q 47 655 35 579 q 79 780 60 731 q 126 867 99 829 q 181 924 154 904 q 238 955 207 943 q 289 969 268 967 q 329 972 310 972 q 381 972 354 972 m 356 219 q 378 219 365 219 q 418 224 392 219 q 468 238 444 229 q 519 267 492 247 q 567 314 547 286 q 601 386 588 342 q 614 486 614 431 q 601 587 614 542 q 567 660 588 632 q 519 708 547 688 q 468 739 492 729 q 418 754 444 749 q 378 760 392 760 q 356 761 365 761 q 354 761 356 761 l 354 761 q 335 760 346 761 q 302 757 324 760 q 260 747 281 754 q 215 726 240 739 q 170 692 190 714 q 133 644 150 671 q 106 576 115 617 q 96 486 96 535 q 109 386 96 431 q 142 314 122 342 q 190 267 163 286 q 241 238 217 247 q 292 224 265 229 q 331 219 318 219 q 354 219 343 219 q 354 219 354 219 l 356 219 z "},"Ó":{"ha":710,"x_min":35,"x_max":675,"o":"m 381 972 q 415 970 397 972 q 458 960 432 968 q 507 938 483 953 q 556 899 531 922 q 602 838 582 875 q 639 752 622 800 q 665 636 656 704 q 675 486 675 568 q 667 351 675 414 q 647 243 660 289 q 615 160 633 197 q 577 98 597 122 q 534 55 557 74 q 490 26 511 36 q 448 9 469 15 q 410 1 426 3 q 381 0 394 0 q 329 0 354 0 q 289 3 310 0 q 238 17 268 6 q 181 49 207 29 q 126 106 154 68 q 79 192 99 143 q 47 317 60 242 q 35 486 35 393 q 47 655 35 579 q 79 780 60 731 q 126 867 99 829 q 181 924 154 904 q 238 955 207 943 q 289 969 268 967 q 329 972 310 972 q 381 972 354 972 m 356 219 q 378 219 365 219 q 418 224 392 219 q 468 238 444 229 q 519 267 492 247 q 567 314 547 286 q 601 386 588 342 q 614 486 614 431 q 601 587 614 542 q 567 660 588 632 q 519 708 547 688 q 468 739 492 729 q 418 754 444 749 q 378 760 392 760 q 356 761 365 761 q 354 761 356 761 l 354 761 q 335 760 346 761 q 302 757 324 760 q 260 747 281 754 q 215 726 240 739 q 170 692 190 714 q 133 644 150 671 q 106 576 115 617 q 96 486 96 535 q 109 386 96 431 q 142 314 122 342 q 190 267 163 286 q 241 238 217 247 q 292 224 265 229 q 331 219 318 219 q 354 219 343 219 q 354 219 354 219 l 356 219 z "},"Ô":{"ha":710,"x_min":35,"x_max":675,"o":"m 381 972 q 415 970 397 972 q 458 960 432 968 q 507 938 483 953 q 556 899 531 922 q 602 838 582 875 q 639 752 622 800 q 665 636 656 704 q 675 486 675 568 q 667 351 675 414 q 647 243 660 289 q 615 160 633 197 q 577 98 597 122 q 534 55 557 74 q 490 26 511 36 q 448 9 469 15 q 410 1 426 3 q 381 0 394 0 q 329 0 354 0 q 289 3 310 0 q 238 17 268 6 q 181 49 207 29 q 126 106 154 68 q 79 192 99 143 q 47 317 60 242 q 35 486 35 393 q 47 655 35 579 q 79 780 60 731 q 126 867 99 829 q 181 924 154 904 q 238 955 207 943 q 289 969 268 967 q 329 972 310 972 q 381 972 354 972 m 356 219 q 378 219 365 219 q 418 224 392 219 q 468 238 444 229 q 519 267 492 247 q 567 314 547 286 q 601 386 588 342 q 614 486 614 431 q 601 587 614 542 q 567 660 588 632 q 519 708 547 688 q 468 739 492 729 q 418 754 444 749 q 378 760 392 760 q 356 761 365 761 q 354 761 356 761 l 354 761 q 335 760 346 761 q 302 757 324 760 q 260 747 281 754 q 215 726 240 739 q 170 692 190 714 q 133 644 150 671 q 106 576 115 617 q 96 486 96 535 q 109 386 96 431 q 142 314 122 342 q 190 267 163 286 q 241 238 217 247 q 292 224 265 229 q 331 219 318 219 q 354 219 343 219 q 354 219 354 219 l 356 219 z "},"Õ":{"ha":710,"x_min":35,"x_max":675,"o":"m 381 972 q 415 970 397 972 q 458 960 432 968 q 507 938 483 953 q 556 899 531 922 q 602 838 582 875 q 639 752 622 800 q 665 636 656 704 q 675 486 675 568 q 667 351 675 414 q 647 243 660 289 q 615 160 633 197 q 577 98 597 122 q 534 55 557 74 q 490 26 511 36 q 448 9 469 15 q 410 1 426 3 q 381 0 394 0 q 329 0 354 0 q 289 3 310 0 q 238 17 268 6 q 181 49 207 29 q 126 106 154 68 q 79 192 99 143 q 47 317 60 242 q 35 486 35 393 q 47 655 35 579 q 79 780 60 731 q 126 867 99 829 q 181 924 154 904 q 238 955 207 943 q 289 969 268 967 q 329 972 310 972 q 381 972 354 972 m 356 219 q 378 219 365 219 q 418 224 392 219 q 468 238 444 229 q 519 267 492 247 q 567 314 547 286 q 601 386 588 342 q 614 486 614 431 q 601 587 614 542 q 567 660 588 632 q 519 708 547 688 q 468 739 492 729 q 418 754 444 749 q 378 760 392 760 q 356 761 365 761 q 354 761 356 761 l 354 761 q 335 760 346 761 q 302 757 324 760 q 260 747 281 754 q 215 726 240 739 q 170 692 190 714 q 133 644 150 671 q 106 576 115 617 q 96 486 96 535 q 109 386 96 431 q 142 314 122 342 q 190 267 163 286 q 241 238 217 247 q 292 224 265 229 q 331 219 318 219 q 354 219 343 219 q 354 219 354 219 l 356 219 z "},"Ö":{"ha":710,"x_min":35,"x_max":675,"o":"m 381 972 q 415 970 397 972 q 458 960 432 968 q 507 938 483 953 q 556 899 531 922 q 602 838 582 875 q 639 752 622 800 q 665 636 656 704 q 675 486 675 568 q 667 351 675 414 q 647 243 660 289 q 615 160 633 197 q 577 98 597 122 q 534 55 557 74 q 490 26 511 36 q 448 9 469 15 q 410 1 426 3 q 381 0 394 0 q 329 0 354 0 q 289 3 310 0 q 238 17 268 6 q 181 49 207 29 q 126 106 154 68 q 79 192 99 143 q 47 317 60 242 q 35 486 35 393 q 47 655 35 579 q 79 780 60 731 q 126 867 99 829 q 181 924 154 904 q 238 955 207 943 q 289 969 268 967 q 329 972 310 972 q 381 972 354 972 m 356 219 q 378 219 365 219 q 418 224 392 219 q 468 238 444 229 q 519 267 492 247 q 567 314 547 286 q 601 386 588 342 q 614 486 614 431 q 601 587 614 542 q 567 660 588 632 q 519 708 547 688 q 468 739 492 729 q 418 754 444 749 q 378 760 392 760 q 356 761 365 761 q 354 761 356 761 l 354 761 q 335 760 346 761 q 302 757 324 760 q 260 747 281 754 q 215 726 240 739 q 170 692 190 714 q 133 644 150 671 q 106 576 115 617 q 96 486 96 535 q 109 386 96 431 q 142 314 122 342 q 190 267 163 286 q 241 238 217 247 q 292 224 265 229 q 331 219 318 219 q 354 219 343 219 q 354 219 354 219 l 356 219 z "},"Ø":{"ha":710,"x_min":35,"x_max":675,"o":"m 381 972 q 415 970 397 972 q 458 960 432 968 q 507 938 483 953 q 556 899 531 922 q 602 838 582 875 q 639 752 622 800 q 665 636 656 704 q 675 486 675 568 q 667 351 675 414 q 647 243 660 289 q 615 160 633 197 q 577 98 597 122 q 534 55 557 74 q 490 26 511 36 q 448 9 469 15 q 410 1 426 3 q 381 0 394 0 q 329 0 354 0 q 289 3 310 0 q 238 17 268 6 q 181 49 207 29 q 126 106 154 68 q 79 192 99 143 q 47 317 60 242 q 35 486 35 393 q 47 655 35 579 q 79 780 60 731 q 126 867 99 829 q 181 924 154 904 q 238 955 207 943 q 289 969 268 967 q 329 972 310 972 q 381 972 354 972 m 356 219 q 378 219 365 219 q 418 224 392 219 q 468 238 444 229 q 519 267 492 247 q 567 314 547 286 q 601 386 588 342 q 614 486 614 431 q 601 587 614 542 q 567 660 588 632 q 519 708 547 688 q 468 739 492 729 q 418 754 444 749 q 378 760 392 760 q 356 761 365 761 q 354 761 356 761 l 354 761 q 335 760 346 761 q 302 757 324 760 q 260 747 281 754 q 215 726 240 739 q 170 692 190 714 q 133 644 150 671 q 106 576 115 617 q 96 486 96 535 q 109 386 96 431 q 142 314 122 342 q 190 267 163 286 q 241 238 217 247 q 292 224 265 229 q 331 219 318 219 q 354 219 343 219 q 354 219 354 219 l 356 219 z "},"P":{"ha":651,"x_min":15,"x_max":642,"o":"m 53 969 q 104 971 69 969 q 206 972 154 969 q 311 969 258 974 q 413 956 364 964 q 503 930 461 949 q 575 885 544 911 q 623 816 606 858 q 640 719 640 774 q 613 592 640 651 q 546 493 586 532 q 451 422 506 454 q 352 372 396 389 q 261 340 308 354 q 249 335 254 339 q 239 324 243 331 q 233 311 235 318 q 233 297 232 304 q 278 60 253 160 q 269 17 285 36 q 231 -1 254 -1 l 72 -1 q 31 21 46 -1 q 26 67 15 43 q 126 808 115 281 q 126 810 126 810 q 121 849 126 832 q 108 876 115 867 q 90 893 100 886 q 74 903 81 900 q 60 907 67 906 q 56 907 58 907 q 33 916 43 907 q 22 938 22 925 q 31 960 22 951 q 53 969 40 969 m 271 399 q 349 451 315 415 q 397 526 382 488 q 422 600 413 564 q 432 660 431 636 l 433 683 q 242 892 433 846 q 208 884 224 896 q 193 853 193 872 q 217 432 197 625 q 236 401 219 411 q 271 399 253 392 z "},"Q":{"ha":714,"x_min":35,"x_max":675,"o":"m 329 0 q 301 1 315 0 q 346 -39 301 -25 q 449 -51 390 -53 q 549 -18 504 -50 q 621 14 582 4 q 646 13 633 18 q 666 -5 658 7 q 674 -32 674 -17 l 674 -171 q 674 -174 674 -172 q 652 -209 672 -197 q 611 -211 632 -221 q 584 -192 604 -208 q 544 -165 564 -176 q 476 -144 524 -153 q 367 -139 429 -135 q 275 -158 349 -139 q 179 -175 201 -176 q 192 -32 63 -168 q 242 15 214 -8 q 169 60 203 31 q 104 141 136 89 q 53 281 72 193 q 35 486 35 369 q 47 655 35 579 q 79 780 60 731 q 126 867 99 829 q 181 924 154 904 q 238 955 207 943 q 289 969 268 967 q 329 972 310 972 q 381 972 354 972 q 415 970 397 972 q 458 960 432 968 q 507 938 483 953 q 556 899 531 922 q 602 838 582 875 q 639 752 622 800 q 665 636 656 704 q 675 486 675 568 q 663 317 675 393 q 630 192 650 242 q 582 106 610 143 q 528 49 554 68 q 472 17 501 29 q 421 3 442 6 q 381 0 400 0 q 329 0 354 0 m 109 587 q 102 564 109 587 q 96 486 96 542 q 109 386 96 431 q 142 314 122 342 q 190 267 163 286 q 241 238 217 247 q 292 224 265 229 q 331 219 318 219 q 354 219 343 219 q 354 219 354 219 l 356 219 q 378 219 365 219 q 418 224 392 219 q 468 238 444 229 q 519 267 492 247 q 567 314 547 286 q 601 386 588 342 q 614 486 614 431 q 601 587 614 542 q 567 660 588 632 q 519 708 547 688 q 468 739 492 729 q 418 754 444 749 q 378 760 392 760 q 356 761 365 761 q 354 761 356 761 l 354 761 q 331 760 343 761 q 292 754 318 760 q 241 739 265 749 q 190 708 217 729 q 142 660 163 688 q 109 587 122 632 z "},"R":{"ha":701,"x_min":15,"x_max":686,"o":"m 469 400 q 560 320 521 364 q 622 227 599 276 q 656 146 644 178 q 678 68 667 114 q 668 20 685 42 q 624 -1 651 -1 l 460 -1 q 413 24 429 -1 q 407 76 396 49 q 392 372 482 256 q 368 378 382 385 q 272 343 322 358 q 242 322 253 338 q 235 286 232 306 q 278 60 253 156 q 269 17 285 36 q 231 -1 254 -1 l 72 -1 q 31 21 46 -1 q 26 67 15 43 q 126 808 115 281 q 126 810 126 810 q 121 849 126 832 q 108 876 115 867 q 90 893 100 886 q 74 903 81 900 q 60 907 67 906 q 56 907 58 907 q 33 916 43 907 q 22 938 22 925 q 31 960 22 951 q 53 969 40 969 q 104 971 69 969 q 224 972 163 974 q 346 965 286 969 q 459 944 406 961 q 553 902 513 928 q 617 829 593 876 q 640 719 640 782 q 469 432 640 544 q 460 416 461 426 q 469 400 460 406 m 290 407 q 429 642 404 465 l 433 683 q 261 888 433 838 q 228 886 244 892 q 203 867 213 881 q 194 836 193 853 q 215 449 199 628 q 242 408 218 421 q 290 407 267 394 z "},"S":{"ha":635,"x_min":22,"x_max":606,"o":"m 322 790 q 117 688 185 790 q 109 653 107 671 q 125 621 111 635 q 343 519 181 569 q 509 456 451 488 q 583 400 567 425 q 601 338 599 375 q 597 278 603 308 q 583 219 592 249 q 554 147 575 189 q 506 75 533 106 q 432 23 478 44 q 329 1 386 1 q 315 0 325 0 q 279 3 306 0 q 227 12 253 6 q 169 34 201 18 q 110 73 136 50 q 63 135 85 96 q 32 225 42 175 q 38 266 28 246 q 67 298 47 286 q 110 310 86 310 q 179 271 157 310 q 310 182 231 182 q 401 192 365 182 q 468 229 438 201 q 519 307 499 257 q 524 314 522 313 q 471 392 539 350 q 206 486 390 443 q 181 494 196 489 q 128 519 165 499 q 69 565 92 539 q 35 689 22 619 q 47 749 39 719 q 76 821 56 778 q 125 895 97 864 q 199 949 153 926 q 303 972 246 972 q 317 973 308 972 q 353 971 326 974 q 406 962 381 968 q 463 940 431 956 q 522 900 496 924 q 569 837 547 876 q 601 747 592 797 q 595 706 604 725 q 567 674 586 686 q 522 661 547 661 q 453 701 475 661 q 322 790 401 790 z "},"T":{"ha":714,"x_min":1,"x_max":711,"o":"m 613 972 q 646 967 631 972 q 671 950 661 961 q 688 927 681 939 q 699 899 696 915 q 706 869 703 882 q 709 838 708 856 q 710 811 710 821 q 710 789 710 801 q 710 775 710 776 l 710 757 q 669 705 710 714 q 596 728 628 696 q 542 809 586 738 q 468 899 497 881 q 436 903 463 901 q 429 904 433 903 q 425 904 426 904 q 406 897 414 904 q 394 881 397 890 q 391 865 392 871 q 389 856 390 860 q 474 63 399 357 q 465 19 481 39 q 426 0 450 0 l 268 0 q 227 22 242 0 q 222 69 213 44 q 324 856 317 294 q 322 871 324 863 q 312 892 321 879 q 288 904 303 904 q 285 904 285 904 q 283 904 283 904 q 276 903 281 903 q 244 899 250 901 q 171 809 215 881 q 117 728 126 738 q 44 705 85 696 q 4 757 4 714 l 4 775 q 3 791 4 775 q 3 818 3 807 q 4 849 3 829 q 9 884 6 869 q 20 917 13 899 q 38 946 28 935 q 63 965 47 957 q 100 972 79 972 l 613 972 z "},"U":{"ha":729,"x_min":46,"x_max":682,"o":"m 624 972 q 653 965 640 972 q 673 944 665 957 q 681 917 681 932 l 681 486 q 670 340 681 407 q 640 225 660 272 q 597 140 619 178 q 545 80 574 103 q 492 41 517 57 q 440 17 467 25 q 399 6 414 8 q 369 1 383 3 q 364 1 367 1 l 360 1 q 331 6 346 3 q 288 17 315 8 q 236 41 261 25 q 183 80 211 57 q 131 140 154 103 q 89 225 108 178 q 58 340 69 272 q 47 486 47 407 l 47 917 q 55 944 47 932 q 76 965 63 957 q 104 972 89 972 l 228 972 q 276 945 260 972 q 278 890 293 918 q 238 816 256 850 q 196 728 219 782 q 156 631 172 675 q 128 533 140 586 q 115 437 115 479 q 126 353 114 394 q 165 285 138 313 q 244 240 193 257 q 364 221 294 222 q 485 240 435 222 q 563 285 535 257 q 603 353 590 313 q 615 438 615 394 q 603 533 615 481 q 575 631 590 586 q 535 728 560 676 q 493 816 511 781 q 454 890 475 851 q 456 945 439 918 q 504 972 472 972 l 624 972 z "},"Ù":{"ha":729,"x_min":46,"x_max":682,"o":"m 624 972 q 653 965 640 972 q 673 944 665 957 q 681 917 681 932 l 681 486 q 670 340 681 407 q 640 225 660 272 q 597 140 619 178 q 545 80 574 103 q 492 41 517 57 q 440 17 467 25 q 399 6 414 8 q 369 1 383 3 q 364 1 367 1 l 360 1 q 331 6 346 3 q 288 17 315 8 q 236 41 261 25 q 183 80 211 57 q 131 140 154 103 q 89 225 108 178 q 58 340 69 272 q 47 486 47 407 l 47 917 q 55 944 47 932 q 76 965 63 957 q 104 972 89 972 l 228 972 q 276 945 260 972 q 278 890 293 918 q 238 816 256 850 q 196 728 219 782 q 156 631 172 675 q 128 533 140 586 q 115 437 115 479 q 126 353 114 394 q 165 285 138 313 q 244 240 193 257 q 364 221 294 222 q 485 240 435 222 q 563 285 535 257 q 603 353 590 313 q 615 438 615 394 q 603 533 615 481 q 575 631 590 586 q 535 728 560 676 q 493 816 511 781 q 454 890 475 851 q 456 945 439 918 q 504 972 472 972 l 624 972 z "},"Ú":{"ha":729,"x_min":46,"x_max":682,"o":"m 624 972 q 653 965 640 972 q 673 944 665 957 q 681 917 681 932 l 681 486 q 670 340 681 407 q 640 225 660 272 q 597 140 619 178 q 545 80 574 103 q 492 41 517 57 q 440 17 467 25 q 399 6 414 8 q 369 1 383 3 q 364 1 367 1 l 360 1 q 331 6 346 3 q 288 17 315 8 q 236 41 261 25 q 183 80 211 57 q 131 140 154 103 q 89 225 108 178 q 58 340 69 272 q 47 486 47 407 l 47 917 q 55 944 47 932 q 76 965 63 957 q 104 972 89 972 l 228 972 q 276 945 260 972 q 278 890 293 918 q 238 816 256 850 q 196 728 219 782 q 156 631 172 675 q 128 533 140 586 q 115 437 115 479 q 126 353 114 394 q 165 285 138 313 q 244 240 193 257 q 364 221 294 222 q 485 240 435 222 q 563 285 535 257 q 603 353 590 313 q 615 438 615 394 q 603 533 615 481 q 575 631 590 586 q 535 728 560 676 q 493 816 511 781 q 454 890 475 851 q 456 945 439 918 q 504 972 472 972 l 624 972 z "},"Û":{"ha":729,"x_min":46,"x_max":682,"o":"m 624 972 q 653 965 640 972 q 673 944 665 957 q 681 917 681 932 l 681 486 q 670 340 681 407 q 640 225 660 272 q 597 140 619 178 q 545 80 574 103 q 492 41 517 57 q 440 17 467 25 q 399 6 414 8 q 369 1 383 3 q 364 1 367 1 l 360 1 q 331 6 346 3 q 288 17 315 8 q 236 41 261 25 q 183 80 211 57 q 131 140 154 103 q 89 225 108 178 q 58 340 69 272 q 47 486 47 407 l 47 917 q 55 944 47 932 q 76 965 63 957 q 104 972 89 972 l 228 972 q 276 945 260 972 q 278 890 293 918 q 238 816 256 850 q 196 728 219 782 q 156 631 172 675 q 128 533 140 586 q 115 437 115 479 q 126 353 114 394 q 165 285 138 313 q 244 240 193 257 q 364 221 294 222 q 485 240 435 222 q 563 285 535 257 q 603 353 590 313 q 615 438 615 394 q 603 533 615 481 q 575 631 590 586 q 535 728 560 676 q 493 816 511 781 q 454 890 475 851 q 456 945 439 918 q 504 972 472 972 l 624 972 z "},"Ü":{"ha":729,"x_min":46,"x_max":682,"o":"m 624 972 q 653 965 640 972 q 673 944 665 957 q 681 917 681 932 l 681 486 q 670 340 681 407 q 640 225 660 272 q 597 140 619 178 q 545 80 574 103 q 492 41 517 57 q 440 17 467 25 q 399 6 414 8 q 369 1 383 3 q 364 1 367 1 l 360 1 q 331 6 346 3 q 288 17 315 8 q 236 41 261 25 q 183 80 211 57 q 131 140 154 103 q 89 225 108 178 q 58 340 69 272 q 47 486 47 407 l 47 917 q 55 944 47 932 q 76 965 63 957 q 104 972 89 972 l 228 972 q 276 945 260 972 q 278 890 293 918 q 238 816 256 850 q 196 728 219 782 q 156 631 172 675 q 128 533 140 586 q 115 437 115 479 q 126 353 114 394 q 165 285 138 313 q 244 240 193 257 q 364 221 294 222 q 485 240 435 222 q 563 285 535 257 q 603 353 590 313 q 615 438 615 394 q 603 533 615 481 q 575 631 590 586 q 535 728 560 676 q 493 816 511 781 q 454 890 475 851 q 456 945 439 918 q 504 972 472 972 l 624 972 z "},"V":{"ha":693,"x_min":-18,"x_max":699,"o":"m 588 971 q 697 921 697 971 l 694 908 q 637 800 667 871 q 583 656 607 729 q 535 492 560 582 q 497 344 511 403 q 471 228 483 285 q 458 140 461 182 q 463 110 457 129 q 483 64 472 86 q 485 57 483 61 q 486 42 486 53 q 482 23 486 31 q 466 8 478 15 q 435 1 454 1 l 403 1 q 357 -1 382 -1 q 313 1 332 -1 l 276 1 q 269 3 274 1 q 253 8 265 4 q 237 19 242 13 q 227 40 232 26 q 231 71 222 53 q 238 88 233 78 q 247 119 239 97 q 254 147 254 140 q 251 199 253 176 q 182 487 239 319 q 80 753 125 654 q 1 913 35 851 q 14 961 -18 946 q 86 974 46 976 l 126 971 q 176 965 156 971 q 206 952 197 960 q 218 936 214 944 q 222 922 222 928 l 222 917 q 229 772 222 857 q 251 592 236 686 q 293 432 265 497 q 356 367 321 367 q 437 490 401 367 q 485 744 472 613 q 486 917 497 876 q 502 963 476 949 q 558 974 528 976 l 588 971 z "},"W":{"ha":1138,"x_min":-7,"x_max":1144,"o":"m 1071 972 q 1125 960 1107 972 q 1143 928 1143 947 q 1139 892 1143 908 q 1126 860 1135 876 q 1119 849 1124 854 l 1118 847 q 876 381 968 661 q 857 56 840 204 q 853 27 860 40 q 833 6 846 14 q 804 0 819 -1 l 726 0 q 715 2 722 0 q 690 23 708 4 q 661 76 672 42 q 657 90 658 85 q 568 400 622 181 q 517 206 542 292 q 475 76 493 121 q 447 23 463 42 q 419 1 431 4 l 410 0 l 332 0 q 325 0 329 0 q 292 17 306 1 q 279 56 278 33 q 261 381 296 204 q 19 847 169 661 q 11 861 14 853 q -2 892 3 876 q -7 928 -7 908 q 12 960 -7 947 q 68 972 31 972 q 204 972 168 972 q 214 972 210 972 q 245 956 232 969 q 258 924 258 943 q 254 853 260 896 q 248 774 249 810 q 266 638 247 738 q 328 386 285 538 q 382 239 358 292 q 385 233 383 236 q 392 222 386 229 q 403 213 397 215 q 415 217 408 211 q 429 238 422 222 q 485 696 514 460 l 464 828 q 461 847 463 835 q 463 886 460 858 q 482 932 467 914 q 513 960 493 951 q 549 969 533 969 l 563 968 q 569 968 565 968 q 575 968 572 968 q 590 969 578 967 q 624 961 603 971 q 656 932 644 951 q 670 906 665 921 q 676 877 675 890 q 676 853 676 864 q 674 835 675 842 l 672 828 l 653 696 q 708 239 624 460 q 710 233 708 236 q 717 223 713 229 q 727 214 722 217 q 739 215 732 211 q 751 231 746 218 q 756 239 753 235 q 758 246 757 243 q 810 386 781 299 q 863 597 844 510 q 886 731 882 683 q 888 808 890 779 q 882 867 886 838 q 879 924 878 897 q 896 960 879 946 q 933 972 913 974 q 1071 972 967 972 z "},"X":{"ha":713,"x_min":1,"x_max":710,"o":"m 665 154 q 672 146 668 151 q 687 124 676 140 q 703 94 697 108 q 710 61 710 79 q 700 31 710 43 q 663 9 690 18 q 593 0 636 0 l 482 1 q 478 1 479 1 l 478 1 q 447 14 460 3 q 429 43 433 25 q 424 101 425 69 q 422 158 422 133 q 408 233 421 182 q 369 354 396 285 q 363 365 367 363 q 356 367 358 368 q 349 362 353 365 q 344 357 346 358 q 343 354 343 356 q 299 210 310 264 q 288 114 288 156 q 283 43 289 72 q 266 14 279 25 q 235 1 253 3 l 235 1 q 231 1 233 1 l 118 0 q 49 8 76 0 q 13 31 22 17 q 3 61 4 44 q 9 94 1 78 q 25 124 17 110 q 40 146 33 138 l 47 154 q 51 158 50 157 q 293 456 181 275 q 300 522 313 485 q 274 579 288 549 q 209 697 238 650 q 167 760 181 743 q 129 803 154 776 q 92 846 104 831 q 86 854 88 850 q 69 885 76 869 q 58 922 63 900 q 71 958 54 944 q 125 972 88 972 l 217 971 q 221 971 219 971 l 221 971 q 254 956 240 969 q 269 922 268 942 q 340 594 276 768 q 346 585 343 590 q 358 581 351 579 q 368 589 364 583 l 372 594 q 443 922 436 768 q 458 956 444 942 q 492 971 472 969 l 492 971 q 494 971 493 971 l 588 972 q 641 959 624 972 q 655 924 658 946 q 644 888 651 903 q 628 856 638 872 q 621 846 625 851 q 583 803 608 831 q 545 760 558 776 q 503 697 532 743 q 439 579 475 650 q 419 538 429 558 q 418 458 399 493 q 661 158 531 276 q 665 154 663 157 z "},"Y":{"ha":642,"x_min":-7,"x_max":649,"o":"m 532 971 q 619 955 590 971 q 647 916 647 939 q 638 871 647 893 q 616 833 628 849 q 603 817 604 817 q 599 813 601 814 q 546 758 571 786 q 499 697 521 729 q 460 640 476 665 q 423 578 444 614 q 389 521 401 542 q 369 435 364 482 q 438 61 389 250 q 428 18 443 38 q 389 -1 414 -1 l 232 -1 q 190 21 204 -1 q 186 68 175 43 q 275 433 249 218 q 256 522 281 482 q 213 590 249 531 q 162 672 178 649 q 111 738 146 696 q 42 813 76 781 q 38 817 40 814 q 31 825 35 819 q 16 847 26 831 q -1 877 6 863 q -7 910 -7 892 q 3 940 -7 928 q 40 962 13 953 q 108 971 67 971 l 175 969 q 181 969 178 969 l 181 969 q 201 963 192 968 q 218 949 211 958 q 228 928 225 939 q 232 873 232 903 q 229 819 232 843 q 233 752 226 796 q 256 656 239 708 q 308 601 274 608 q 321 600 315 600 q 378 642 358 600 q 413 775 406 719 q 417 854 421 831 q 422 928 413 878 q 439 957 425 946 q 469 969 453 968 l 469 969 q 474 969 472 969 l 532 971 z "},"Ý":{"ha":642,"x_min":-7,"x_max":649,"o":"m 532 971 q 619 955 590 971 q 647 916 647 939 q 638 871 647 893 q 616 833 628 849 q 603 817 604 817 q 599 813 601 814 q 546 758 571 786 q 499 697 521 729 q 460 640 476 665 q 423 578 444 614 q 389 521 401 542 q 369 435 364 482 q 438 61 389 250 q 428 18 443 38 q 389 -1 414 -1 l 232 -1 q 190 21 204 -1 q 186 68 175 43 q 275 433 249 218 q 256 522 281 482 q 213 590 249 531 q 162 672 178 649 q 111 738 146 696 q 42 813 76 781 q 38 817 40 814 q 31 825 35 819 q 16 847 26 831 q -1 877 6 863 q -7 910 -7 892 q 3 940 -7 928 q 40 962 13 953 q 108 971 67 971 l 175 969 q 181 969 178 969 l 181 969 q 201 963 192 968 q 218 949 211 958 q 228 928 225 939 q 232 873 232 903 q 229 819 232 843 q 233 752 226 796 q 256 656 239 708 q 308 601 274 608 q 321 600 315 600 q 378 642 358 600 q 413 775 406 719 q 417 854 421 831 q 422 928 413 878 q 439 957 425 946 q 469 969 453 968 l 469 969 q 474 969 472 969 l 532 971 z "},"Ÿ":{"ha":642,"x_min":-7,"x_max":649,"o":"m 532 971 q 619 955 590 971 q 647 916 647 939 q 638 871 647 893 q 616 833 628 849 q 603 817 604 817 q 599 813 601 814 q 546 758 571 786 q 499 697 521 729 q 460 640 476 665 q 423 578 444 614 q 389 521 401 542 q 369 435 364 482 q 438 61 389 250 q 428 18 443 38 q 389 -1 414 -1 l 232 -1 q 190 21 204 -1 q 186 68 175 43 q 275 433 249 218 q 256 522 281 482 q 213 590 249 531 q 162 672 178 649 q 111 738 146 696 q 42 813 76 781 q 38 817 40 814 q 31 825 35 819 q 16 847 26 831 q -1 877 6 863 q -7 910 -7 892 q 3 940 -7 928 q 40 962 13 953 q 108 971 67 971 l 175 969 q 181 969 178 969 l 181 969 q 201 963 192 968 q 218 949 211 958 q 228 928 225 939 q 232 873 232 903 q 229 819 232 843 q 233 752 226 796 q 256 656 239 708 q 308 601 274 608 q 321 600 315 600 q 378 642 358 600 q 413 775 406 719 q 417 854 421 831 q 422 928 413 878 q 439 957 425 946 q 469 969 453 968 l 469 969 q 474 969 472 969 l 532 971 z "},"Z":{"ha":704,"x_min":13,"x_max":683,"o":"m 682 197 q 682 181 682 196 q 682 154 682 165 q 680 123 682 143 q 674 88 678 103 q 663 55 671 72 q 644 26 656 38 q 616 8 633 15 q 576 0 599 0 l 83 0 q 32 26 49 0 q 14 93 13 51 q 46 161 15 135 q 388 596 235 315 q 461 881 447 744 q 414 907 458 907 l 360 907 q 347 907 353 907 q 286 872 318 907 q 224 788 254 836 q 179 728 193 740 q 100 705 144 696 q 56 757 56 714 l 56 775 q 55 791 56 775 q 54 818 54 807 q 56 849 54 829 q 62 884 58 869 q 74 917 65 899 q 93 946 82 935 q 122 965 104 957 q 161 972 139 972 l 513 972 q 526 972 519 972 l 631 972 q 661 960 649 972 q 674 932 674 949 l 674 907 q 665 865 674 885 q 643 826 657 844 q 608 784 629 808 q 565 734 588 760 q 513 667 542 708 q 460 581 485 626 q 368 383 403 465 q 319 248 333 301 q 303 172 306 194 q 300 113 300 150 q 302 95 300 104 q 316 76 304 86 q 349 65 328 65 l 378 65 q 390 65 385 65 q 451 101 419 65 q 514 183 483 136 q 558 243 544 231 q 637 267 592 276 q 682 215 682 258 l 682 197 z "},"[":{"ha":456,"x_min":36,"x_max":421,"o":"m 210 797 q 206 768 207 783 q 202 658 203 732 q 202 503 201 583 q 205 349 203 424 q 208 225 207 274 l 210 176 q 232 79 217 125 q 282 78 257 76 q 325 82 307 79 q 358 88 343 85 q 380 94 374 92 q 388 97 386 96 q 393 100 390 99 q 406 99 400 104 q 417 81 413 93 q 421 51 421 68 l 421 -43 q 414 -78 421 -64 q 399 -92 407 -92 l 399 -92 l 222 -93 q 214 -94 218 -94 l 93 -94 q 51 -68 67 -94 q 47 -11 36 -42 q 114 242 92 117 q 122 369 121 293 q 121 514 124 444 q 113 650 118 583 q 105 753 108 717 q 100 797 101 789 q 47 985 79 892 q 51 1041 36 1014 q 93 1068 67 1068 l 214 1068 q 222 1067 218 1068 l 399 1065 l 399 1065 q 414 1051 407 1065 q 421 1015 421 1036 l 421 921 q 417 892 421 906 q 406 874 413 879 q 393 872 400 868 q 388 876 390 874 q 366 883 379 879 q 312 892 353 888 q 232 893 271 897 q 211 807 218 851 q 210 797 211 801 z "},"\\":{"ha":839,"x_min":68,"x_max":772,"o":"m 750 136 q 769 103 767 118 q 764 82 771 89 l 758 76 q 636 1 665 18 q 621 -3 628 -4 q 608 2 614 -3 q 597 13 601 7 q 590 24 593 18 l 588 28 l 564 101 q 518 185 543 144 q 303 510 385 392 q 185 671 221 628 q 90 774 149 714 q 69 824 69 796 q 90 865 69 853 l 224 950 q 274 948 246 964 q 308 900 301 932 q 337 806 321 854 q 380 703 353 758 q 424 614 407 649 q 480 516 442 579 q 528 435 518 453 q 582 349 539 417 q 626 282 625 282 q 747 140 678 201 l 750 136 z "},"]":{"ha":456,"x_min":33,"x_max":419,"o":"m 342 242 q 408 -11 364 117 q 403 -68 418 -42 q 363 -94 389 -94 l 242 -94 q 233 -93 238 -94 l 57 -92 l 57 -92 q 46 -85 51 -92 q 38 -68 40 -79 q 35 -43 35 -57 l 35 51 q 39 81 35 68 q 49 99 43 93 q 63 100 56 104 q 68 97 65 99 q 224 79 136 71 q 246 176 238 125 q 249 301 247 228 q 253 558 251 374 q 250 768 256 742 q 246 797 249 783 q 244 807 244 801 q 224 893 238 851 q 68 876 153 900 q 63 872 65 874 q 57 871 60 871 q 51 873 54 871 q 46 878 49 875 q 41 885 43 881 q 38 896 39 890 q 35 908 36 901 q 35 921 35 914 l 35 1015 q 41 1051 35 1036 q 57 1065 47 1065 l 57 1065 l 233 1067 q 242 1068 238 1068 l 363 1068 q 403 1041 389 1068 q 408 985 418 1014 q 354 797 376 892 q 345 689 351 772 q 333 465 339 606 q 342 242 328 325 z "},"^":{"ha":440,"x_min":31,"x_max":408,"o":"m 401 657 q 399 633 408 646 q 339 617 386 617 q 317 615 328 615 q 263 628 275 615 q 258 653 253 638 q 262 722 267 663 q 238 804 257 781 q 225 813 231 813 q 217 812 219 813 q 209 806 214 811 q 199 790 204 801 q 190 758 194 778 q 188 674 183 729 q 190 650 190 656 q 183 631 190 639 q 114 617 169 617 q 40 631 53 613 q 42 657 31 643 q 47 665 43 660 q 158 872 142 793 q 169 906 163 889 q 191 947 175 924 q 225 969 207 969 q 296 868 264 969 q 299 858 297 863 q 319 802 308 831 q 343 747 331 774 q 370 697 356 719 q 399 660 385 674 l 400 658 l 401 657 l 392 651 l 401 657 z "},"_":{"ha":764,"x_min":42,"x_max":722,"o":"m 658 203 q 701 198 681 213 q 721 157 721 183 l 721 63 q 703 23 721 38 q 665 14 686 8 q 653 18 660 15 q 623 22 642 19 q 543 31 604 25 q 420 37 482 36 q 272 29 358 38 q 104 3 185 21 q 101 2 103 3 q 97 1 99 1 q 71 3 83 -3 q 50 21 58 8 q 42 50 42 33 l 42 158 q 60 199 42 183 q 99 207 78 214 q 111 203 107 204 q 205 189 153 196 q 348 174 257 182 q 522 172 439 167 q 653 200 606 178 q 658 203 656 201 z "},"`":{"ha":290,"x_min":33,"x_max":264,"o":"m 235 764 q 225 667 264 667 q 190 678 204 667 q 165 706 175 690 q 134 748 156 722 q 85 794 113 774 q 42 844 50 819 q 45 886 33 869 q 74 916 57 903 q 107 936 92 929 l 122 943 q 217 901 215 981 q 235 764 217 826 z "},"a":{"ha":672,"x_min":21,"x_max":657,"o":"m 650 64 q 645 26 656 43 q 615 3 635 8 q 606 1 611 1 q 604 1 606 1 q 603 1 604 1 l 601 1 q 556 0 586 1 q 435 -1 497 -3 q 314 5 374 1 q 201 25 254 8 q 108 67 149 42 q 44 136 68 92 q 21 242 21 181 q 42 337 21 294 q 101 406 64 379 q 181 451 139 432 q 274 481 224 471 q 363 494 325 490 q 438 500 400 499 q 494 544 492 503 q 497 596 496 571 q 497 608 497 601 q 492 631 497 615 q 477 658 486 646 q 448 678 468 669 q 399 688 428 688 q 395 688 397 688 q 391 688 393 688 q 388 688 389 688 q 332 652 361 688 q 274 569 303 617 q 233 508 246 521 q 162 485 203 476 q 121 538 121 494 l 121 556 q 120 571 121 556 q 119 598 119 586 q 122 630 119 610 q 127 665 124 650 q 138 697 131 679 q 155 726 144 714 q 181 745 165 738 q 217 753 197 753 l 500 753 q 546 733 526 753 q 565 688 565 714 q 578 412 567 529 q 598 251 589 294 q 627 142 607 207 q 650 64 647 76 m 478 386 q 473 422 481 410 q 458 438 465 435 q 442 439 450 440 q 345 414 388 433 q 281 372 303 394 q 247 327 260 349 q 231 290 233 306 l 226 276 q 344 100 226 154 q 356 97 350 99 q 376 94 363 94 q 401 101 389 93 q 419 126 413 108 q 476 374 456 232 q 476 378 476 375 q 478 386 476 379 z "},"à":{"ha":672,"x_min":21,"x_max":657,"o":"m 650 64 q 645 26 656 43 q 615 3 635 8 q 606 1 611 1 q 604 1 606 1 q 603 1 604 1 l 601 1 q 556 0 586 1 q 435 -1 497 -3 q 314 5 374 1 q 201 25 254 8 q 108 67 149 42 q 44 136 68 92 q 21 242 21 181 q 42 337 21 294 q 101 406 64 379 q 181 451 139 432 q 274 481 224 471 q 363 494 325 490 q 438 500 400 499 q 494 544 492 503 q 497 596 496 571 q 497 608 497 601 q 492 631 497 615 q 477 658 486 646 q 448 678 468 669 q 399 688 428 688 q 395 688 397 688 q 391 688 393 688 q 388 688 389 688 q 332 652 361 688 q 274 569 303 617 q 233 508 246 521 q 162 485 203 476 q 121 538 121 494 l 121 556 q 120 571 121 556 q 119 598 119 586 q 122 630 119 610 q 127 665 124 650 q 138 697 131 679 q 155 726 144 714 q 181 745 165 738 q 217 753 197 753 l 500 753 q 546 733 526 753 q 565 688 565 714 q 578 412 567 529 q 598 251 589 294 q 627 142 607 207 q 650 64 647 76 m 478 386 q 473 422 481 410 q 458 438 465 435 q 442 439 450 440 q 345 414 388 433 q 281 372 303 394 q 247 327 260 349 q 231 290 233 306 l 226 276 q 344 100 226 154 q 356 97 350 99 q 376 94 363 94 q 401 101 389 93 q 419 126 413 108 q 476 374 456 232 q 476 378 476 375 q 478 386 476 379 z "},"á":{"ha":672,"x_min":21,"x_max":657,"o":"m 650 64 q 645 26 656 43 q 615 3 635 8 q 606 1 611 1 q 604 1 606 1 q 603 1 604 1 l 601 1 q 556 0 586 1 q 435 -1 497 -3 q 314 5 374 1 q 201 25 254 8 q 108 67 149 42 q 44 136 68 92 q 21 242 21 181 q 42 337 21 294 q 101 406 64 379 q 181 451 139 432 q 274 481 224 471 q 363 494 325 490 q 438 500 400 499 q 494 544 492 503 q 497 596 496 571 q 497 608 497 601 q 492 631 497 615 q 477 658 486 646 q 448 678 468 669 q 399 688 428 688 q 395 688 397 688 q 391 688 393 688 q 388 688 389 688 q 332 652 361 688 q 274 569 303 617 q 233 508 246 521 q 162 485 203 476 q 121 538 121 494 l 121 556 q 120 571 121 556 q 119 598 119 586 q 122 630 119 610 q 127 665 124 650 q 138 697 131 679 q 155 726 144 714 q 181 745 165 738 q 217 753 197 753 l 500 753 q 546 733 526 753 q 565 688 565 714 q 578 412 567 529 q 598 251 589 294 q 627 142 607 207 q 650 64 647 76 m 478 386 q 473 422 481 410 q 458 438 465 435 q 442 439 450 440 q 345 414 388 433 q 281 372 303 394 q 247 327 260 349 q 231 290 233 306 l 226 276 q 344 100 226 154 q 356 97 350 99 q 376 94 363 94 q 401 101 389 93 q 419 126 413 108 q 476 374 456 232 q 476 378 476 375 q 478 386 476 379 z "},"â":{"ha":672,"x_min":21,"x_max":657,"o":"m 650 64 q 645 26 656 43 q 615 3 635 8 q 606 1 611 1 q 604 1 606 1 q 603 1 604 1 l 601 1 q 556 0 586 1 q 435 -1 497 -3 q 314 5 374 1 q 201 25 254 8 q 108 67 149 42 q 44 136 68 92 q 21 242 21 181 q 42 337 21 294 q 101 406 64 379 q 181 451 139 432 q 274 481 224 471 q 363 494 325 490 q 438 500 400 499 q 494 544 492 503 q 497 596 496 571 q 497 608 497 601 q 492 631 497 615 q 477 658 486 646 q 448 678 468 669 q 399 688 428 688 q 395 688 397 688 q 391 688 393 688 q 388 688 389 688 q 332 652 361 688 q 274 569 303 617 q 233 508 246 521 q 162 485 203 476 q 121 538 121 494 l 121 556 q 120 571 121 556 q 119 598 119 586 q 122 630 119 610 q 127 665 124 650 q 138 697 131 679 q 155 726 144 714 q 181 745 165 738 q 217 753 197 753 l 500 753 q 546 733 526 753 q 565 688 565 714 q 578 412 567 529 q 598 251 589 294 q 627 142 607 207 q 650 64 647 76 m 478 386 q 473 422 481 410 q 458 438 465 435 q 442 439 450 440 q 345 414 388 433 q 281 372 303 394 q 247 327 260 349 q 231 290 233 306 l 226 276 q 344 100 226 154 q 356 97 350 99 q 376 94 363 94 q 401 101 389 93 q 419 126 413 108 q 476 374 456 232 q 476 378 476 375 q 478 386 476 379 z "},"ã":{"ha":672,"x_min":21,"x_max":657,"o":"m 650 64 q 645 26 656 43 q 615 3 635 8 q 606 1 611 1 q 604 1 606 1 q 603 1 604 1 l 601 1 q 556 0 586 1 q 435 -1 497 -3 q 314 5 374 1 q 201 25 254 8 q 108 67 149 42 q 44 136 68 92 q 21 242 21 181 q 42 337 21 294 q 101 406 64 379 q 181 451 139 432 q 274 481 224 471 q 363 494 325 490 q 438 500 400 499 q 494 544 492 503 q 497 596 496 571 q 497 608 497 601 q 492 631 497 615 q 477 658 486 646 q 448 678 468 669 q 399 688 428 688 q 395 688 397 688 q 391 688 393 688 q 388 688 389 688 q 332 652 361 688 q 274 569 303 617 q 233 508 246 521 q 162 485 203 476 q 121 538 121 494 l 121 556 q 120 571 121 556 q 119 598 119 586 q 122 630 119 610 q 127 665 124 650 q 138 697 131 679 q 155 726 144 714 q 181 745 165 738 q 217 753 197 753 l 500 753 q 546 733 526 753 q 565 688 565 714 q 578 412 567 529 q 598 251 589 294 q 627 142 607 207 q 650 64 647 76 m 478 386 q 473 422 481 410 q 458 438 465 435 q 442 439 450 440 q 345 414 388 433 q 281 372 303 394 q 247 327 260 349 q 231 290 233 306 l 226 276 q 344 100 226 154 q 356 97 350 99 q 376 94 363 94 q 401 101 389 93 q 419 126 413 108 q 476 374 456 232 q 476 378 476 375 q 478 386 476 379 z "},"ä":{"ha":672,"x_min":21,"x_max":657,"o":"m 650 64 q 645 26 656 43 q 615 3 635 8 q 606 1 611 1 q 604 1 606 1 q 603 1 604 1 l 601 1 q 556 0 586 1 q 435 -1 497 -3 q 314 5 374 1 q 201 25 254 8 q 108 67 149 42 q 44 136 68 92 q 21 242 21 181 q 42 337 21 294 q 101 406 64 379 q 181 451 139 432 q 274 481 224 471 q 363 494 325 490 q 438 500 400 499 q 494 544 492 503 q 497 596 496 571 q 497 608 497 601 q 492 631 497 615 q 477 658 486 646 q 448 678 468 669 q 399 688 428 688 q 395 688 397 688 q 391 688 393 688 q 388 688 389 688 q 332 652 361 688 q 274 569 303 617 q 233 508 246 521 q 162 485 203 476 q 121 538 121 494 l 121 556 q 120 571 121 556 q 119 598 119 586 q 122 630 119 610 q 127 665 124 650 q 138 697 131 679 q 155 726 144 714 q 181 745 165 738 q 217 753 197 753 l 500 753 q 546 733 526 753 q 565 688 565 714 q 578 412 567 529 q 598 251 589 294 q 627 142 607 207 q 650 64 647 76 m 478 386 q 473 422 481 410 q 458 438 465 435 q 442 439 450 440 q 345 414 388 433 q 281 372 303 394 q 247 327 260 349 q 231 290 233 306 l 226 276 q 344 100 226 154 q 356 97 350 99 q 376 94 363 94 q 401 101 389 93 q 419 126 413 108 q 476 374 456 232 q 476 378 476 375 q 478 386 476 379 z "},"å":{"ha":672,"x_min":21,"x_max":657,"o":"m 650 64 q 645 26 656 43 q 615 3 635 8 q 606 1 611 1 q 604 1 606 1 q 603 1 604 1 l 601 1 q 556 0 586 1 q 435 -1 497 -3 q 314 5 374 1 q 201 25 254 8 q 108 67 149 42 q 44 136 68 92 q 21 242 21 181 q 42 337 21 294 q 101 406 64 379 q 181 451 139 432 q 274 481 224 471 q 363 494 325 490 q 438 500 400 499 q 494 544 492 503 q 497 596 496 571 q 497 608 497 601 q 492 631 497 615 q 477 658 486 646 q 448 678 468 669 q 399 688 428 688 q 395 688 397 688 q 391 688 393 688 q 388 688 389 688 q 332 652 361 688 q 274 569 303 617 q 233 508 246 521 q 162 485 203 476 q 121 538 121 494 l 121 556 q 120 571 121 556 q 119 598 119 586 q 122 630 119 610 q 127 665 124 650 q 138 697 131 679 q 155 726 144 714 q 181 745 165 738 q 217 753 197 753 l 500 753 q 546 733 526 753 q 565 688 565 714 q 578 412 567 529 q 598 251 589 294 q 627 142 607 207 q 650 64 647 76 m 478 386 q 473 422 481 410 q 458 438 465 435 q 442 439 450 440 q 345 414 388 433 q 281 372 303 394 q 247 327 260 349 q 231 290 233 306 l 226 276 q 344 100 226 154 q 356 97 350 99 q 376 94 363 94 q 401 101 389 93 q 419 126 413 108 q 476 374 456 232 q 476 378 476 375 q 478 386 476 379 z "},"b":{"ha":678,"x_min":8,"x_max":651,"o":"m 269 744 q 361 724 317 736 q 460 688 406 713 q 556 633 515 664 q 623 554 596 603 q 650 447 650 506 q 636 301 650 367 q 599 190 622 235 q 542 110 576 144 q 472 56 507 76 q 391 24 436 36 q 308 6 346 11 q 226 1 271 1 q 224 1 225 1 l 221 1 q 175 1 200 0 l 65 1 q 24 23 39 1 q 19 69 8 44 q 121 585 111 290 q 47 903 106 764 q 52 949 38 926 q 93 971 67 971 l 188 971 q 227 952 213 971 q 236 910 242 933 q 220 858 231 890 q 206 803 210 825 q 204 800 204 801 q 206 783 203 792 q 224 763 208 775 q 269 744 240 750 m 349 147 q 442 301 419 211 q 435 481 465 392 q 326 628 404 571 q 285 653 307 642 q 240 665 260 665 q 211 657 221 664 q 195 637 201 650 q 188 615 189 624 q 186 600 186 607 q 186 599 186 600 q 232 165 189 279 q 238 150 235 158 q 257 124 246 135 q 293 117 268 114 q 349 147 318 119 z "},"c":{"ha":661,"x_min":33,"x_max":640,"o":"m 571 286 q 622 260 603 286 q 629 204 640 233 q 572 100 608 143 q 497 37 536 57 q 428 8 458 17 q 371 0 397 0 q 321 0 346 1 q 281 3 301 0 q 231 15 261 6 q 176 39 201 24 q 123 83 150 54 q 77 150 96 111 q 46 247 58 189 q 33 378 33 306 q 46 508 33 450 q 77 606 58 567 q 123 673 96 644 q 176 717 150 701 q 231 742 201 732 q 281 753 261 751 q 321 756 301 756 q 371 756 346 756 q 405 752 386 756 q 448 740 424 749 q 497 717 472 732 q 544 680 521 701 q 590 626 568 658 q 625 554 611 593 q 619 497 638 524 q 568 469 600 469 l 565 469 q 518 492 536 469 q 448 546 489 526 q 385 568 407 565 q 347 571 364 571 q 346 571 347 571 l 344 571 q 311 566 335 571 q 253 548 288 561 q 190 514 219 535 q 139 458 160 493 q 118 378 118 422 q 140 291 118 328 q 190 238 161 254 q 255 211 218 221 q 311 201 292 201 q 344 200 331 200 q 346 200 344 200 l 347 200 q 357 199 347 200 q 374 199 367 199 q 394 199 381 199 q 418 202 407 200 q 444 208 429 204 q 471 219 458 213 q 497 238 483 226 q 522 263 511 249 q 571 286 542 286 z "},"ç":{"ha":661,"x_min":33,"x_max":640,"o":"m 571 286 q 622 260 603 286 q 629 204 640 233 q 572 100 608 143 q 497 37 536 57 q 428 8 458 17 q 371 0 397 0 q 321 0 346 1 q 281 3 301 0 q 231 15 261 6 q 176 39 201 24 q 123 83 150 54 q 77 150 96 111 q 46 247 58 189 q 33 378 33 306 q 46 508 33 450 q 77 606 58 567 q 123 673 96 644 q 176 717 150 701 q 231 742 201 732 q 281 753 261 751 q 321 756 301 756 q 371 756 346 756 q 405 752 386 756 q 448 740 424 749 q 497 717 472 732 q 544 680 521 701 q 590 626 568 658 q 625 554 611 593 q 619 497 638 524 q 568 469 600 469 l 565 469 q 518 492 536 469 q 448 546 489 526 q 385 568 407 565 q 347 571 364 571 q 346 571 347 571 l 344 571 q 311 566 335 571 q 253 548 288 561 q 190 514 219 535 q 139 458 160 493 q 118 378 118 422 q 140 291 118 328 q 190 238 161 254 q 255 211 218 221 q 311 201 292 201 q 344 200 331 200 q 346 200 344 200 l 347 200 q 357 199 347 200 q 374 199 367 199 q 394 199 381 199 q 418 202 407 200 q 444 208 429 204 q 471 219 458 213 q 497 238 483 226 q 522 263 511 249 q 571 286 542 286 z "},"d":{"ha":678,"x_min":25,"x_max":668,"o":"m 657 69 q 653 23 668 44 q 611 1 638 1 l 501 1 q 456 1 476 0 l 453 1 q 450 1 451 1 q 378 6 411 1 q 306 18 344 10 q 234 42 267 26 q 169 80 201 57 q 111 137 136 103 q 67 214 86 171 q 37 317 47 257 q 26 447 26 376 q 53 554 26 506 q 121 633 81 603 q 216 688 161 664 q 315 724 271 713 q 407 744 360 736 q 444 756 429 749 q 465 773 460 764 q 471 788 469 782 q 472 800 472 794 q 471 803 472 801 q 456 858 467 825 q 440 910 446 890 q 449 952 435 933 q 489 971 464 971 l 583 971 q 624 949 610 971 q 629 903 639 926 q 556 585 571 764 q 657 69 565 290 m 446 165 q 490 599 488 279 q 490 600 490 600 q 489 615 490 607 q 481 637 488 624 q 465 657 475 650 q 436 665 456 664 q 392 653 417 665 q 350 628 369 642 q 242 481 272 571 q 234 301 211 392 q 328 147 257 211 q 383 117 358 119 q 419 124 408 114 q 439 150 431 135 q 446 165 442 158 z "},"e":{"ha":672,"x_min":33,"x_max":650,"o":"m 571 286 q 622 260 603 286 q 629 204 640 233 q 572 100 608 143 q 497 37 536 57 q 428 8 458 17 q 371 0 397 0 q 321 0 346 0 q 262 6 292 0 q 188 33 232 11 q 113 94 144 56 q 57 206 81 132 q 33 378 33 279 q 46 508 33 450 q 77 606 58 567 q 123 673 96 644 q 176 717 150 701 q 231 742 201 732 q 281 753 261 751 q 321 756 301 756 q 371 756 346 756 q 420 749 393 756 q 481 726 447 742 q 548 676 514 710 q 606 599 582 643 q 624 558 615 583 q 625 554 625 554 q 629 543 628 549 q 633 394 649 472 q 632 390 632 392 l 632 390 q 608 367 628 376 q 564 357 589 357 l 165 357 q 160 357 163 357 q 148 355 157 357 q 135 348 139 353 q 126 335 131 343 q 128 313 122 326 q 136 296 132 304 q 138 293 138 294 q 188 240 156 261 q 254 211 219 218 q 310 202 289 204 q 344 200 331 200 q 346 200 344 200 l 347 200 q 357 199 347 200 q 374 199 367 199 q 394 199 381 199 q 418 202 407 200 q 444 208 429 204 q 471 219 458 213 q 497 238 483 226 q 522 263 511 249 q 571 286 542 286 m 146 469 q 144 465 146 468 q 139 453 142 461 q 136 438 136 444 q 142 427 136 432 q 161 422 149 422 l 511 422 q 520 424 515 422 q 531 429 525 425 q 538 440 538 433 q 536 460 539 447 q 536 461 536 460 q 535 463 535 461 q 519 490 529 478 q 518 492 518 492 q 481 526 501 511 q 458 540 471 533 q 347 571 404 572 q 346 571 347 571 l 344 571 q 322 568 338 571 q 283 558 307 565 q 235 540 258 551 q 187 511 211 529 q 146 469 163 493 z "},"è":{"ha":672,"x_min":33,"x_max":650,"o":"m 571 286 q 622 260 603 286 q 629 204 640 233 q 572 100 608 143 q 497 37 536 57 q 428 8 458 17 q 371 0 397 0 q 321 0 346 0 q 262 6 292 0 q 188 33 232 11 q 113 94 144 56 q 57 206 81 132 q 33 378 33 279 q 46 508 33 450 q 77 606 58 567 q 123 673 96 644 q 176 717 150 701 q 231 742 201 732 q 281 753 261 751 q 321 756 301 756 q 371 756 346 756 q 420 749 393 756 q 481 726 447 742 q 548 676 514 710 q 606 599 582 643 q 624 558 615 583 q 625 554 625 554 q 629 543 628 549 q 633 394 649 472 q 632 390 632 392 l 632 390 q 608 367 628 376 q 564 357 589 357 l 165 357 q 160 357 163 357 q 148 355 157 357 q 135 348 139 353 q 126 335 131 343 q 128 313 122 326 q 136 296 132 304 q 138 293 138 294 q 188 240 156 261 q 254 211 219 218 q 310 202 289 204 q 344 200 331 200 q 346 200 344 200 l 347 200 q 357 199 347 200 q 374 199 367 199 q 394 199 381 199 q 418 202 407 200 q 444 208 429 204 q 471 219 458 213 q 497 238 483 226 q 522 263 511 249 q 571 286 542 286 m 146 469 q 144 465 146 468 q 139 453 142 461 q 136 438 136 444 q 142 427 136 432 q 161 422 149 422 l 511 422 q 520 424 515 422 q 531 429 525 425 q 538 440 538 433 q 536 460 539 447 q 536 461 536 460 q 535 463 535 461 q 519 490 529 478 q 518 492 518 492 q 481 526 501 511 q 458 540 471 533 q 347 571 404 572 q 346 571 347 571 l 344 571 q 322 568 338 571 q 283 558 307 565 q 235 540 258 551 q 187 511 211 529 q 146 469 163 493 z "},"é":{"ha":672,"x_min":33,"x_max":650,"o":"m 571 286 q 622 260 603 286 q 629 204 640 233 q 572 100 608 143 q 497 37 536 57 q 428 8 458 17 q 371 0 397 0 q 321 0 346 0 q 262 6 292 0 q 188 33 232 11 q 113 94 144 56 q 57 206 81 132 q 33 378 33 279 q 46 508 33 450 q 77 606 58 567 q 123 673 96 644 q 176 717 150 701 q 231 742 201 732 q 281 753 261 751 q 321 756 301 756 q 371 756 346 756 q 420 749 393 756 q 481 726 447 742 q 548 676 514 710 q 606 599 582 643 q 624 558 615 583 q 625 554 625 554 q 629 543 628 549 q 633 394 649 472 q 632 390 632 392 l 632 390 q 608 367 628 376 q 564 357 589 357 l 165 357 q 160 357 163 357 q 148 355 157 357 q 135 348 139 353 q 126 335 131 343 q 128 313 122 326 q 136 296 132 304 q 138 293 138 294 q 188 240 156 261 q 254 211 219 218 q 310 202 289 204 q 344 200 331 200 q 346 200 344 200 l 347 200 q 357 199 347 200 q 374 199 367 199 q 394 199 381 199 q 418 202 407 200 q 444 208 429 204 q 471 219 458 213 q 497 238 483 226 q 522 263 511 249 q 571 286 542 286 m 146 469 q 144 465 146 468 q 139 453 142 461 q 136 438 136 444 q 142 427 136 432 q 161 422 149 422 l 511 422 q 520 424 515 422 q 531 429 525 425 q 538 440 538 433 q 536 460 539 447 q 536 461 536 460 q 535 463 535 461 q 519 490 529 478 q 518 492 518 492 q 481 526 501 511 q 458 540 471 533 q 347 571 404 572 q 346 571 347 571 l 344 571 q 322 568 338 571 q 283 558 307 565 q 235 540 258 551 q 187 511 211 529 q 146 469 163 493 z "},"ê":{"ha":672,"x_min":33,"x_max":650,"o":"m 571 286 q 622 260 603 286 q 629 204 640 233 q 572 100 608 143 q 497 37 536 57 q 428 8 458 17 q 371 0 397 0 q 321 0 346 0 q 262 6 292 0 q 188 33 232 11 q 113 94 144 56 q 57 206 81 132 q 33 378 33 279 q 46 508 33 450 q 77 606 58 567 q 123 673 96 644 q 176 717 150 701 q 231 742 201 732 q 281 753 261 751 q 321 756 301 756 q 371 756 346 756 q 420 749 393 756 q 481 726 447 742 q 548 676 514 710 q 606 599 582 643 q 624 558 615 583 q 625 554 625 554 q 629 543 628 549 q 633 394 649 472 q 632 390 632 392 l 632 390 q 608 367 628 376 q 564 357 589 357 l 165 357 q 160 357 163 357 q 148 355 157 357 q 135 348 139 353 q 126 335 131 343 q 128 313 122 326 q 136 296 132 304 q 138 293 138 294 q 188 240 156 261 q 254 211 219 218 q 310 202 289 204 q 344 200 331 200 q 346 200 344 200 l 347 200 q 357 199 347 200 q 374 199 367 199 q 394 199 381 199 q 418 202 407 200 q 444 208 429 204 q 471 219 458 213 q 497 238 483 226 q 522 263 511 249 q 571 286 542 286 m 146 469 q 144 465 146 468 q 139 453 142 461 q 136 438 136 444 q 142 427 136 432 q 161 422 149 422 l 511 422 q 520 424 515 422 q 531 429 525 425 q 538 440 538 433 q 536 460 539 447 q 536 461 536 460 q 535 463 535 461 q 519 490 529 478 q 518 492 518 492 q 481 526 501 511 q 458 540 471 533 q 347 571 404 572 q 346 571 347 571 l 344 571 q 322 568 338 571 q 283 558 307 565 q 235 540 258 551 q 187 511 211 529 q 146 469 163 493 z "},"ë":{"ha":672,"x_min":33,"x_max":650,"o":"m 571 286 q 622 260 603 286 q 629 204 640 233 q 572 100 608 143 q 497 37 536 57 q 428 8 458 17 q 371 0 397 0 q 321 0 346 0 q 262 6 292 0 q 188 33 232 11 q 113 94 144 56 q 57 206 81 132 q 33 378 33 279 q 46 508 33 450 q 77 606 58 567 q 123 673 96 644 q 176 717 150 701 q 231 742 201 732 q 281 753 261 751 q 321 756 301 756 q 371 756 346 756 q 420 749 393 756 q 481 726 447 742 q 548 676 514 710 q 606 599 582 643 q 624 558 615 583 q 625 554 625 554 q 629 543 628 549 q 633 394 649 472 q 632 390 632 392 l 632 390 q 608 367 628 376 q 564 357 589 357 l 165 357 q 160 357 163 357 q 148 355 157 357 q 135 348 139 353 q 126 335 131 343 q 128 313 122 326 q 136 296 132 304 q 138 293 138 294 q 188 240 156 261 q 254 211 219 218 q 310 202 289 204 q 344 200 331 200 q 346 200 344 200 l 347 200 q 357 199 347 200 q 374 199 367 199 q 394 199 381 199 q 418 202 407 200 q 444 208 429 204 q 471 219 458 213 q 497 238 483 226 q 522 263 511 249 q 571 286 542 286 m 146 469 q 144 465 146 468 q 139 453 142 461 q 136 438 136 444 q 142 427 136 432 q 161 422 149 422 l 511 422 q 520 424 515 422 q 531 429 525 425 q 538 440 538 433 q 536 460 539 447 q 536 461 536 460 q 535 463 535 461 q 519 490 529 478 q 518 492 518 492 q 481 526 501 511 q 458 540 471 533 q 347 571 404 572 q 346 571 347 571 l 344 571 q 322 568 338 571 q 283 558 307 565 q 235 540 258 551 q 187 511 211 529 q 146 469 163 493 z "},"f":{"ha":633,"x_min":14,"x_max":657,"o":"m 639 825 q 647 769 656 799 q 611 733 639 740 l 608 732 q 571 739 589 728 q 564 743 568 742 q 549 756 557 750 q 536 776 544 761 q 521 797 528 790 q 501 811 514 804 q 464 817 488 818 q 406 807 440 817 q 311 664 307 783 q 343 640 321 639 q 486 688 426 649 q 524 685 504 700 q 543 644 543 669 l 543 528 q 521 485 543 501 q 482 488 499 469 q 343 553 429 542 q 319 503 315 554 q 386 63 342 236 q 385 33 390 47 q 367 9 379 18 q 339 0 354 0 l 181 0 q 140 22 154 0 q 135 69 125 44 q 221 519 196 214 q 197 550 221 551 q 76 488 124 538 q 38 485 60 469 q 15 528 15 501 l 15 644 q 35 685 15 669 q 72 688 54 700 q 190 643 124 654 q 194 643 192 643 q 202 647 199 643 q 207 655 206 650 q 209 664 208 660 q 210 671 210 668 l 210 675 q 214 776 206 729 q 304 926 229 871 q 468 969 381 982 q 565 919 525 961 q 639 825 603 883 z "},"g":{"ha":678,"x_min":28,"x_max":660,"o":"m 613 753 q 657 722 656 753 q 633 611 658 692 q 625 582 628 593 q 594 405 610 525 q 569 193 578 285 l 563 101 q 558 58 561 81 q 545 -1 553 29 q 518 -72 538 -31 q 473 -144 499 -114 q 405 -197 447 -175 q 310 -218 363 -218 q 302 -219 307 -219 q 281 -219 297 -219 q 248 -215 264 -218 q 210 -206 232 -212 q 167 -190 188 -200 q 126 -162 147 -179 q 87 -122 104 -144 q 56 -67 69 -100 q 35 6 42 -35 q 51 65 29 39 q 107 90 72 90 q 171 51 150 90 q 292 -37 218 -37 q 383 -26 346 -37 q 446 15 419 -14 q 454 43 458 33 q 440 56 450 53 l 429 60 q 337 77 382 67 q 234 111 292 88 q 134 165 176 135 q 63 245 92 196 q 33 354 33 294 q 47 488 33 429 q 84 585 60 546 q 138 650 108 624 q 208 691 168 676 q 284 713 247 706 q 367 721 321 719 q 426 744 392 722 q 439 752 432 750 q 450 753 446 754 l 454 753 l 613 753 m 465 131 q 489 167 489 129 q 431 581 479 432 q 430 586 431 583 q 428 592 429 589 q 388 611 415 625 q 357 590 372 601 q 231 383 232 497 q 357 176 231 268 q 444 135 399 146 q 454 132 449 135 q 465 131 460 132 z "},"h":{"ha":660,"x_min":8,"x_max":649,"o":"m 642 64 q 633 21 649 40 q 593 1 618 1 l 436 1 q 394 24 410 1 q 390 71 379 46 q 481 492 458 232 q 463 535 482 517 q 417 559 444 553 q 372 567 389 565 q 343 569 354 569 q 342 569 343 569 l 342 569 q 322 569 332 569 q 291 565 313 569 q 253 552 269 560 q 219 526 236 544 q 194 483 201 508 q 190 443 189 464 q 201 303 193 361 q 217 211 208 244 q 235 156 226 178 q 255 110 244 135 q 272 63 265 86 q 263 19 278 39 q 224 0 247 0 l 65 0 q 24 22 39 0 q 19 69 8 44 q 110 442 86 229 q 76 822 132 639 q 47 903 64 864 q 52 949 38 926 q 93 971 67 971 l 188 971 q 227 952 213 971 q 236 910 242 933 q 222 862 231 889 q 207 810 213 835 q 197 753 201 786 q 194 735 196 744 q 197 709 193 718 q 211 708 200 700 q 324 754 260 754 q 361 754 342 754 q 420 739 386 754 q 485 688 454 724 q 561 483 553 597 q 561 476 561 478 l 561 476 q 577 305 567 378 q 597 199 588 232 q 622 126 607 167 q 642 64 636 86 z "},"i":{"ha":306,"x_min":17,"x_max":286,"o":"m 217 817 q 203 803 217 817 q 153 790 190 790 q 88 817 115 790 q 61 881 61 843 q 88 944 61 918 q 153 971 115 971 q 217 944 190 971 q 243 881 243 918 q 217 817 243 843 m 279 64 q 271 22 286 40 q 232 3 256 3 l 74 3 q 32 24 47 3 q 28 71 17 46 q 92 290 61 153 q 58 679 135 492 q 56 685 57 682 q 60 732 46 710 q 101 754 75 754 l 196 754 q 235 735 221 754 q 244 692 250 715 q 231 647 239 672 q 217 598 222 621 q 207 546 211 575 q 204 371 194 460 q 222 260 211 310 q 241 182 232 210 q 262 120 250 154 q 279 64 274 86 z "},"ì":{"ha":306,"x_min":17,"x_max":286,"o":"m 217 817 q 203 803 217 817 q 153 790 190 790 q 88 817 115 790 q 61 881 61 843 q 88 944 61 918 q 153 971 115 971 q 217 944 190 971 q 243 881 243 918 q 217 817 243 843 m 279 64 q 271 22 286 40 q 232 3 256 3 l 74 3 q 32 24 47 3 q 28 71 17 46 q 92 290 61 153 q 58 679 135 492 q 56 685 57 682 q 60 732 46 710 q 101 754 75 754 l 196 754 q 235 735 221 754 q 244 692 250 715 q 231 647 239 672 q 217 598 222 621 q 207 546 211 575 q 204 371 194 460 q 222 260 211 310 q 241 182 232 210 q 262 120 250 154 q 279 64 274 86 z "},"í":{"ha":306,"x_min":17,"x_max":286,"o":"m 217 817 q 203 803 217 817 q 153 790 190 790 q 88 817 115 790 q 61 881 61 843 q 88 944 61 918 q 153 971 115 971 q 217 944 190 971 q 243 881 243 918 q 217 817 243 843 m 279 64 q 271 22 286 40 q 232 3 256 3 l 74 3 q 32 24 47 3 q 28 71 17 46 q 92 290 61 153 q 58 679 135 492 q 56 685 57 682 q 60 732 46 710 q 101 754 75 754 l 196 754 q 235 735 221 754 q 244 692 250 715 q 231 647 239 672 q 217 598 222 621 q 207 546 211 575 q 204 371 194 460 q 222 260 211 310 q 241 182 232 210 q 262 120 250 154 q 279 64 274 86 z "},"î":{"ha":306,"x_min":17,"x_max":286,"o":"m 217 817 q 203 803 217 817 q 153 790 190 790 q 88 817 115 790 q 61 881 61 843 q 88 944 61 918 q 153 971 115 971 q 217 944 190 971 q 243 881 243 918 q 217 817 243 843 m 279 64 q 271 22 286 40 q 232 3 256 3 l 74 3 q 32 24 47 3 q 28 71 17 46 q 92 290 61 153 q 58 679 135 492 q 56 685 57 682 q 60 732 46 710 q 101 754 75 754 l 196 754 q 235 735 221 754 q 244 692 250 715 q 231 647 239 672 q 217 598 222 621 q 207 546 211 575 q 204 371 194 460 q 222 260 211 310 q 241 182 232 210 q 262 120 250 154 q 279 64 274 86 z "},"ï":{"ha":306,"x_min":17,"x_max":286,"o":"m 217 817 q 203 803 217 817 q 153 790 190 790 q 88 817 115 790 q 61 881 61 843 q 88 944 61 918 q 153 971 115 971 q 217 944 190 971 q 243 881 243 918 q 217 817 243 843 m 279 64 q 271 22 286 40 q 232 3 256 3 l 74 3 q 32 24 47 3 q 28 71 17 46 q 92 290 61 153 q 58 679 135 492 q 56 685 57 682 q 60 732 46 710 q 101 754 75 754 l 196 754 q 235 735 221 754 q 244 692 250 715 q 231 647 239 672 q 217 598 222 621 q 207 546 211 575 q 204 371 194 460 q 222 260 211 310 q 241 182 232 210 q 262 120 250 154 q 279 64 274 86 z "},"j":{"ha":543,"x_min":-8,"x_max":525,"o":"m 474 846 q 467 828 474 846 q 425 797 460 811 q 356 797 390 782 q 306 846 321 811 q 306 915 292 881 q 356 965 321 950 q 425 965 390 979 q 474 915 460 950 q 474 846 489 881 m 478 753 q 523 722 521 753 q 499 611 525 692 q 492 582 494 593 q 459 405 475 525 q 436 193 443 285 l 428 101 q 424 58 428 81 q 419 25 422 51 q 413 -18 415 -1 q 402 -63 410 -35 q 386 -110 394 -92 q 363 -151 378 -128 q 328 -187 347 -174 q 282 -209 310 -200 q 221 -218 254 -218 q 211 -219 218 -219 q 185 -217 204 -219 q 147 -208 165 -214 q 104 -185 128 -201 q 61 -147 81 -169 q 24 -84 42 -124 q -1 6 7 -44 q 15 65 -7 39 q 71 90 36 90 q 135 51 114 90 q 147 10 142 40 q 163 -36 151 -19 q 203 -53 175 -53 q 255 -47 236 -53 q 281 -34 274 -40 q 311 0 288 -28 q 356 146 357 57 q 296 586 347 429 q 306 751 246 738 q 321 753 321 753 l 478 753 z "},"k":{"ha":663,"x_min":8,"x_max":647,"o":"m 438 285 q 640 67 607 189 q 638 38 644 51 q 619 15 632 24 q 588 6 606 6 l 431 6 q 385 27 401 6 q 381 74 368 49 q 378 233 419 158 q 357 258 369 247 q 342 269 354 260 q 322 286 331 279 q 299 303 313 293 q 269 321 285 313 q 238 335 254 329 q 229 337 233 336 q 217 336 225 338 q 204 326 208 335 q 201 301 200 318 q 201 294 201 297 q 203 290 203 292 q 240 143 214 208 q 271 63 267 78 q 263 19 278 39 q 224 0 247 0 l 65 0 q 24 22 39 0 q 19 69 8 44 q 121 585 111 290 q 47 903 106 764 q 52 949 38 926 q 93 971 67 971 l 188 971 q 227 952 213 971 q 236 910 242 933 q 220 856 231 889 q 205 802 210 822 q 194 729 200 782 q 186 599 189 676 q 189 457 186 521 q 198 431 190 442 q 221 422 206 419 q 258 438 240 429 q 292 456 275 446 q 317 474 308 467 q 341 492 326 481 q 357 504 356 504 q 378 531 369 515 q 381 690 419 604 q 385 735 368 714 q 431 757 401 757 l 588 757 q 631 738 614 757 q 640 697 647 719 q 438 478 607 575 q 233 389 363 428 q 228 382 228 388 q 233 375 228 376 q 438 285 363 336 z "},"l":{"ha":267,"x_min":-4,"x_max":265,"o":"m 211 971 q 250 952 235 971 q 258 910 265 933 q 234 842 251 882 q 206 768 217 803 q 185 632 194 733 q 174 374 175 531 q 188 221 176 275 q 216 127 199 167 q 240 63 233 88 q 231 20 246 39 q 192 1 217 1 l 71 1 q 28 23 43 1 q 25 69 14 44 q 108 388 96 239 q 7 903 99 682 q 11 949 -4 926 q 53 971 26 971 l 211 971 z "},"m":{"ha":1026,"x_min":11,"x_max":1015,"o":"m 1008 61 q 1000 18 1015 38 q 961 -1 985 -1 l 803 -1 q 762 21 776 -1 q 757 68 747 43 q 867 489 849 288 q 847 533 868 515 q 793 558 825 551 q 742 566 761 564 q 710 568 722 568 q 710 568 710 568 l 708 568 q 604 540 646 569 q 565 493 581 521 q 551 449 550 465 q 562 278 550 349 q 589 180 574 208 q 623 119 604 151 q 647 61 642 88 q 639 18 654 38 q 600 -1 624 -1 l 442 -1 q 400 21 415 -1 q 396 68 385 43 q 500 489 479 268 q 480 533 500 515 q 429 558 460 551 q 379 566 399 564 q 349 568 360 568 q 347 568 349 568 l 347 568 q 243 540 285 569 q 226 526 238 536 q 210 513 214 517 l 208 513 q 195 497 203 507 q 178 456 188 488 q 172 383 169 424 q 175 363 174 372 q 176 353 175 357 q 206 226 186 281 q 247 129 226 171 q 274 61 267 88 q 265 18 281 38 q 225 -1 250 -1 l 68 -1 q 26 22 42 -1 q 22 68 11 44 q 73 240 53 143 q 98 418 93 336 q 105 579 103 500 q 103 699 107 658 q 117 735 101 719 q 153 750 132 750 q 174 745 164 750 q 192 731 185 740 q 201 711 199 722 l 201 711 l 201 710 q 217 707 204 696 q 329 753 265 753 q 367 753 347 751 q 471 706 418 753 q 474 704 472 706 q 479 699 476 701 q 514 653 499 679 q 539 653 525 631 q 690 753 593 753 q 728 753 710 751 q 832 706 779 753 q 835 704 833 706 q 840 699 838 701 q 896 612 874 665 q 922 521 918 558 l 928 485 q 947 276 935 353 q 983 138 960 200 q 1008 61 1006 75 z "},"n":{"ha":665,"x_min":11,"x_max":654,"o":"m 647 61 q 639 18 654 38 q 600 -1 624 -1 l 442 -1 q 400 21 415 -1 q 396 68 385 43 q 504 489 485 283 q 484 533 506 515 q 431 558 463 551 q 380 566 400 564 q 349 568 360 568 q 347 568 349 568 l 347 568 q 243 540 285 569 q 199 501 203 506 q 197 500 199 501 q 175 386 169 469 q 204 240 185 301 q 245 133 224 179 q 274 61 267 88 q 265 18 281 38 q 225 -1 250 -1 l 68 -1 q 26 22 42 -1 q 22 68 11 44 q 73 240 53 143 q 98 418 93 336 q 105 579 103 500 q 103 699 107 658 q 117 735 101 719 q 153 750 132 750 q 174 745 164 750 q 192 732 185 740 q 201 714 199 724 l 201 714 q 203 707 201 710 q 218 708 206 697 q 329 753 265 753 q 367 753 347 751 q 471 706 418 753 q 474 704 471 706 q 479 699 476 701 q 535 612 513 665 q 561 521 557 558 l 567 485 q 586 276 574 353 q 622 138 599 200 q 647 61 644 75 z "},"ñ":{"ha":665,"x_min":11,"x_max":654,"o":"m 647 61 q 639 18 654 38 q 600 -1 624 -1 l 442 -1 q 400 21 415 -1 q 396 68 385 43 q 504 489 485 283 q 484 533 506 515 q 431 558 463 551 q 380 566 400 564 q 349 568 360 568 q 347 568 349 568 l 347 568 q 243 540 285 569 q 199 501 203 506 q 197 500 199 501 q 175 386 169 469 q 204 240 185 301 q 245 133 224 179 q 274 61 267 88 q 265 18 281 38 q 225 -1 250 -1 l 68 -1 q 26 22 42 -1 q 22 68 11 44 q 73 240 53 143 q 98 418 93 336 q 105 579 103 500 q 103 699 107 658 q 117 735 101 719 q 153 750 132 750 q 174 745 164 750 q 192 732 185 740 q 201 714 199 724 l 201 714 q 203 707 201 710 q 218 708 206 697 q 329 753 265 753 q 367 753 347 751 q 471 706 418 753 q 474 704 471 706 q 479 699 476 701 q 535 612 513 665 q 561 521 557 558 l 567 485 q 586 276 574 353 q 622 138 599 200 q 647 61 644 75 z "},"o":{"ha":688,"x_min":33,"x_max":671,"o":"m 646 486 q 650 286 669 419 q 644 256 647 271 l 644 254 q 603 145 631 193 q 545 71 575 97 q 480 28 515 44 q 419 6 444 11 q 371 0 393 0 q 321 0 346 0 q 262 6 292 0 q 188 33 232 11 q 113 94 144 56 q 57 206 81 132 q 33 378 33 279 q 46 508 33 450 q 77 606 58 567 q 123 673 96 644 q 176 717 150 701 q 231 742 201 732 q 281 753 261 751 q 321 756 301 756 q 371 756 346 756 q 419 749 393 756 q 481 724 446 743 q 547 677 517 706 q 605 599 578 649 q 646 486 632 550 m 350 200 q 508 256 438 194 q 569 401 579 318 q 569 404 569 403 q 526 490 564 450 q 439 551 488 529 q 347 571 392 572 q 346 571 347 571 l 344 571 q 310 566 335 571 q 250 548 286 561 q 183 514 214 535 q 129 458 151 493 q 107 378 107 422 q 122 303 107 336 q 163 251 138 269 q 215 222 189 233 q 272 206 242 210 q 317 201 301 201 q 344 200 333 200 q 346 200 344 200 l 347 200 q 350 200 349 200 z "},"ò":{"ha":688,"x_min":33,"x_max":671,"o":"m 646 486 q 650 286 669 419 q 644 256 647 271 l 644 254 q 603 145 631 193 q 545 71 575 97 q 480 28 515 44 q 419 6 444 11 q 371 0 393 0 q 321 0 346 0 q 262 6 292 0 q 188 33 232 11 q 113 94 144 56 q 57 206 81 132 q 33 378 33 279 q 46 508 33 450 q 77 606 58 567 q 123 673 96 644 q 176 717 150 701 q 231 742 201 732 q 281 753 261 751 q 321 756 301 756 q 371 756 346 756 q 419 749 393 756 q 481 724 446 743 q 547 677 517 706 q 605 599 578 649 q 646 486 632 550 m 350 200 q 508 256 438 194 q 569 401 579 318 q 569 404 569 403 q 526 490 564 450 q 439 551 488 529 q 347 571 392 572 q 346 571 347 571 l 344 571 q 310 566 335 571 q 250 548 286 561 q 183 514 214 535 q 129 458 151 493 q 107 378 107 422 q 122 303 107 336 q 163 251 138 269 q 215 222 189 233 q 272 206 242 210 q 317 201 301 201 q 344 200 333 200 q 346 200 344 200 l 347 200 q 350 200 349 200 z "},"ó":{"ha":688,"x_min":33,"x_max":671,"o":"m 646 486 q 650 286 669 419 q 644 256 647 271 l 644 254 q 603 145 631 193 q 545 71 575 97 q 480 28 515 44 q 419 6 444 11 q 371 0 393 0 q 321 0 346 0 q 262 6 292 0 q 188 33 232 11 q 113 94 144 56 q 57 206 81 132 q 33 378 33 279 q 46 508 33 450 q 77 606 58 567 q 123 673 96 644 q 176 717 150 701 q 231 742 201 732 q 281 753 261 751 q 321 756 301 756 q 371 756 346 756 q 419 749 393 756 q 481 724 446 743 q 547 677 517 706 q 605 599 578 649 q 646 486 632 550 m 350 200 q 508 256 438 194 q 569 401 579 318 q 569 404 569 403 q 526 490 564 450 q 439 551 488 529 q 347 571 392 572 q 346 571 347 571 l 344 571 q 310 566 335 571 q 250 548 286 561 q 183 514 214 535 q 129 458 151 493 q 107 378 107 422 q 122 303 107 336 q 163 251 138 269 q 215 222 189 233 q 272 206 242 210 q 317 201 301 201 q 344 200 333 200 q 346 200 344 200 l 347 200 q 350 200 349 200 z "},"ô":{"ha":688,"x_min":33,"x_max":671,"o":"m 646 486 q 650 286 669 419 q 644 256 647 271 l 644 254 q 603 145 631 193 q 545 71 575 97 q 480 28 515 44 q 419 6 444 11 q 371 0 393 0 q 321 0 346 0 q 262 6 292 0 q 188 33 232 11 q 113 94 144 56 q 57 206 81 132 q 33 378 33 279 q 46 508 33 450 q 77 606 58 567 q 123 673 96 644 q 176 717 150 701 q 231 742 201 732 q 281 753 261 751 q 321 756 301 756 q 371 756 346 756 q 419 749 393 756 q 481 724 446 743 q 547 677 517 706 q 605 599 578 649 q 646 486 632 550 m 350 200 q 508 256 438 194 q 569 401 579 318 q 569 404 569 403 q 526 490 564 450 q 439 551 488 529 q 347 571 392 572 q 346 571 347 571 l 344 571 q 310 566 335 571 q 250 548 286 561 q 183 514 214 535 q 129 458 151 493 q 107 378 107 422 q 122 303 107 336 q 163 251 138 269 q 215 222 189 233 q 272 206 242 210 q 317 201 301 201 q 344 200 333 200 q 346 200 344 200 l 347 200 q 350 200 349 200 z "},"õ":{"ha":688,"x_min":33,"x_max":671,"o":"m 646 486 q 650 286 669 419 q 644 256 647 271 l 644 254 q 603 145 631 193 q 545 71 575 97 q 480 28 515 44 q 419 6 444 11 q 371 0 393 0 q 321 0 346 0 q 262 6 292 0 q 188 33 232 11 q 113 94 144 56 q 57 206 81 132 q 33 378 33 279 q 46 508 33 450 q 77 606 58 567 q 123 673 96 644 q 176 717 150 701 q 231 742 201 732 q 281 753 261 751 q 321 756 301 756 q 371 756 346 756 q 419 749 393 756 q 481 724 446 743 q 547 677 517 706 q 605 599 578 649 q 646 486 632 550 m 350 200 q 508 256 438 194 q 569 401 579 318 q 569 404 569 403 q 526 490 564 450 q 439 551 488 529 q 347 571 392 572 q 346 571 347 571 l 344 571 q 310 566 335 571 q 250 548 286 561 q 183 514 214 535 q 129 458 151 493 q 107 378 107 422 q 122 303 107 336 q 163 251 138 269 q 215 222 189 233 q 272 206 242 210 q 317 201 301 201 q 344 200 333 200 q 346 200 344 200 l 347 200 q 350 200 349 200 z "},"ö":{"ha":688,"x_min":33,"x_max":671,"o":"m 646 486 q 650 286 669 419 q 644 256 647 271 l 644 254 q 603 145 631 193 q 545 71 575 97 q 480 28 515 44 q 419 6 444 11 q 371 0 393 0 q 321 0 346 0 q 262 6 292 0 q 188 33 232 11 q 113 94 144 56 q 57 206 81 132 q 33 378 33 279 q 46 508 33 450 q 77 606 58 567 q 123 673 96 644 q 176 717 150 701 q 231 742 201 732 q 281 753 261 751 q 321 756 301 756 q 371 756 346 756 q 419 749 393 756 q 481 724 446 743 q 547 677 517 706 q 605 599 578 649 q 646 486 632 550 m 350 200 q 508 256 438 194 q 569 401 579 318 q 569 404 569 403 q 526 490 564 450 q 439 551 488 529 q 347 571 392 572 q 346 571 347 571 l 344 571 q 310 566 335 571 q 250 548 286 561 q 183 514 214 535 q 129 458 151 493 q 107 378 107 422 q 122 303 107 336 q 163 251 138 269 q 215 222 189 233 q 272 206 242 210 q 317 201 301 201 q 344 200 333 200 q 346 200 344 200 l 347 200 q 350 200 349 200 z "},"ø":{"ha":688,"x_min":33,"x_max":671,"o":"m 646 486 q 650 286 669 419 q 644 256 647 271 l 644 254 q 603 145 631 193 q 545 71 575 97 q 480 28 515 44 q 419 6 444 11 q 371 0 393 0 q 321 0 346 0 q 262 6 292 0 q 188 33 232 11 q 113 94 144 56 q 57 206 81 132 q 33 378 33 279 q 46 508 33 450 q 77 606 58 567 q 123 673 96 644 q 176 717 150 701 q 231 742 201 732 q 281 753 261 751 q 321 756 301 756 q 371 756 346 756 q 419 749 393 756 q 481 724 446 743 q 547 677 517 706 q 605 599 578 649 q 646 486 632 550 m 350 200 q 508 256 438 194 q 569 401 579 318 q 569 404 569 403 q 526 490 564 450 q 439 551 488 529 q 347 571 392 572 q 346 571 347 571 l 344 571 q 310 566 335 571 q 250 548 286 561 q 183 514 214 535 q 129 458 151 493 q 107 378 107 422 q 122 303 107 336 q 163 251 138 269 q 215 222 189 233 q 272 206 242 210 q 317 201 301 201 q 344 200 333 200 q 346 200 344 200 l 347 200 q 350 200 349 200 z "},"p":{"ha":650,"x_min":-6,"x_max":628,"o":"m 607 486 q 610 286 626 419 q 606 256 608 271 l 606 254 q 571 145 593 193 q 524 71 549 97 q 469 28 499 44 q 419 6 440 11 q 378 0 397 0 q 338 0 358 0 q 189 64 250 0 q 179 65 185 68 q 175 56 174 63 q 193 -35 182 1 q 217 -99 204 -71 q 235 -156 229 -128 q 227 -198 240 -179 q 192 -217 214 -217 l 47 -217 q 9 -194 22 -217 q 6 -149 -4 -172 q 97 367 89 72 q 31 685 83 546 q 35 732 21 710 q 72 754 49 754 l 158 754 q 199 728 186 754 q 224 721 207 711 q 338 756 275 756 q 378 756 358 756 q 418 749 396 756 q 469 724 440 743 q 524 677 499 706 q 573 599 550 649 q 607 486 596 550 m 361 200 q 492 256 433 194 q 544 401 551 318 q 543 404 543 403 q 531 451 542 428 q 506 492 521 474 q 472 526 490 511 q 435 551 454 540 q 358 571 396 572 q 358 571 358 571 l 357 571 q 328 566 349 571 q 278 548 308 561 q 222 514 249 535 q 177 458 196 493 q 158 378 158 422 q 178 291 158 328 q 222 238 197 254 q 279 211 247 221 q 328 201 311 201 q 357 200 344 200 q 358 200 357 200 l 358 200 q 361 200 360 200 z "},"q":{"ha":650,"x_min":22,"x_max":654,"o":"m 644 -149 q 640 -194 654 -172 q 603 -217 626 -217 l 458 -217 q 422 -198 436 -217 q 414 -156 408 -179 q 441 -76 418 -136 q 475 56 464 -17 q 470 65 475 63 q 461 64 465 68 q 313 0 400 0 q 271 0 292 0 q 231 6 253 0 q 181 28 210 11 q 126 71 151 44 q 78 145 101 97 q 44 254 56 193 q 44 256 44 256 q 39 286 42 271 q 43 486 22 419 q 76 599 54 550 q 124 677 99 649 q 179 724 150 706 q 231 749 208 743 q 271 756 253 756 q 313 756 292 756 q 426 721 375 756 q 451 728 442 711 q 490 754 464 754 l 576 754 q 615 732 601 754 q 618 685 628 710 q 551 367 565 546 q 644 -149 560 72 m 293 200 q 315 201 301 200 q 353 206 328 201 q 400 222 378 210 q 444 251 422 233 q 478 303 465 269 q 490 378 490 336 q 472 458 490 422 q 427 514 453 493 q 372 548 401 535 q 322 566 342 561 q 293 571 301 571 q 292 571 292 571 l 290 571 q 215 551 253 572 q 142 490 174 529 q 106 404 110 450 q 106 401 106 403 q 157 256 99 318 q 289 200 215 194 q 290 200 290 200 q 292 200 290 200 l 293 200 z "},"r":{"ha":589,"x_min":11,"x_max":583,"o":"m 572 607 q 579 592 575 601 q 582 561 583 583 q 565 525 581 539 q 540 510 553 514 q 517 510 526 507 q 499 519 507 514 q 486 531 490 525 l 482 536 q 447 583 472 568 q 401 597 422 599 l 382 596 q 260 557 317 596 q 208 456 206 519 l 208 454 q 209 453 208 454 q 210 453 210 453 q 210 451 210 451 q 214 376 211 403 q 228 260 219 313 q 242 183 236 207 q 259 117 247 158 q 274 64 271 76 q 272 34 278 49 q 254 10 267 19 q 225 1 242 1 l 68 1 q 26 24 42 1 q 22 71 11 46 q 96 406 78 204 q 101 463 97 436 q 103 699 108 581 q 117 737 101 721 q 153 753 132 753 q 186 740 172 753 q 201 710 200 728 l 203 710 l 203 710 q 211 697 203 700 q 225 699 219 693 q 369 753 286 753 q 444 738 408 753 q 501 701 479 722 q 541 658 524 679 q 565 621 558 636 l 572 607 z "},"s":{"ha":544,"x_min":24,"x_max":515,"o":"m 471 332 q 510 260 507 304 q 507 213 511 238 q 453 82 492 136 q 282 -4 390 -4 q 269 -4 276 -4 q 172 11 219 -4 q 86 66 125 28 q 33 172 47 104 q 44 217 28 196 q 101 243 65 243 q 164 210 143 243 q 267 144 204 144 q 372 163 333 144 q 433 238 410 182 q 436 243 436 242 q 435 261 440 251 q 179 369 407 319 q 65 431 108 385 q 35 531 25 474 q 88 663 49 608 q 260 751 150 751 q 369 736 313 756 q 510 575 485 696 q 497 529 514 550 q 440 504 476 504 q 379 536 399 504 q 276 601 339 601 q 111 525 165 601 q 118 481 94 501 q 294 404 163 442 q 471 332 424 368 z "},"t":{"ha":696,"x_min":8,"x_max":689,"o":"m 613 310 q 653 298 635 310 q 680 267 671 286 q 685 225 689 247 q 665 153 678 186 q 638 99 653 121 q 604 58 622 76 q 568 31 586 40 q 532 14 550 21 q 499 5 514 7 q 472 2 483 3 q 454 1 460 1 l 447 1 q 379 13 410 1 q 328 40 349 24 q 290 82 307 56 q 263 129 272 108 q 244 182 253 150 q 232 230 235 214 q 225 271 229 246 q 224 279 224 276 q 219 321 219 300 q 192 596 208 461 q 125 589 149 597 q 71 549 101 581 q 32 547 54 532 q 10 589 10 563 l 10 707 q 29 747 10 732 q 67 749 49 761 q 121 722 99 728 q 175 715 143 715 q 156 803 165 771 q 147 936 132 900 q 215 972 163 972 l 268 972 q 275 974 271 974 q 292 972 279 974 q 315 965 304 969 q 335 949 325 961 q 351 920 346 938 q 353 874 356 903 q 339 806 351 844 q 333 778 335 794 q 331 746 332 763 q 328 715 331 729 q 385 722 361 715 q 440 749 408 728 q 478 747 458 761 q 497 707 497 732 l 497 589 q 475 547 497 563 q 436 549 453 532 q 380 590 406 582 q 308 596 354 597 q 292 365 296 488 q 336 236 290 292 q 390 194 364 204 q 465 183 415 183 q 502 192 488 183 q 522 212 517 201 q 535 242 528 222 q 547 271 543 263 q 613 310 568 310 z "},"u":{"ha":665,"x_min":10,"x_max":654,"o":"m 597 753 q 638 731 624 753 q 643 683 653 708 q 592 512 611 608 q 567 333 572 415 q 559 172 561 251 q 561 53 557 93 q 548 17 563 32 q 511 1 533 1 q 481 12 494 1 q 464 38 468 22 l 464 39 q 463 44 463 42 q 446 43 458 54 q 336 -1 399 -1 q 299 -1 317 0 q 193 46 246 -1 q 192 47 193 46 q 185 54 188 50 q 147 104 164 75 q 122 161 131 133 q 107 213 113 189 q 100 253 101 238 l 99 268 q 87 413 94 350 q 70 516 79 475 q 52 583 61 557 q 33 639 43 610 q 17 690 22 668 q 26 733 11 714 q 65 753 40 753 l 182 753 q 224 731 208 753 q 228 683 239 708 q 197 576 210 638 q 179 480 183 515 q 168 361 175 444 q 160 263 161 278 q 181 219 160 236 q 233 194 201 201 q 285 185 265 188 q 315 183 304 183 q 317 183 317 183 l 318 183 q 421 211 381 182 q 465 250 463 246 q 468 251 467 250 q 489 365 496 282 q 473 490 482 433 q 459 567 464 546 q 441 637 454 588 q 426 690 428 686 q 435 733 421 714 q 475 753 450 753 l 597 753 z "},"ù":{"ha":665,"x_min":10,"x_max":654,"o":"m 597 753 q 638 731 624 753 q 643 683 653 708 q 592 512 611 608 q 567 333 572 415 q 559 172 561 251 q 561 53 557 93 q 548 17 563 32 q 511 1 533 1 q 481 12 494 1 q 464 38 468 22 l 464 39 q 463 44 463 42 q 446 43 458 54 q 336 -1 399 -1 q 299 -1 317 0 q 193 46 246 -1 q 192 47 193 46 q 185 54 188 50 q 147 104 164 75 q 122 161 131 133 q 107 213 113 189 q 100 253 101 238 l 99 268 q 87 413 94 350 q 70 516 79 475 q 52 583 61 557 q 33 639 43 610 q 17 690 22 668 q 26 733 11 714 q 65 753 40 753 l 182 753 q 224 731 208 753 q 228 683 239 708 q 197 576 210 638 q 179 480 183 515 q 168 361 175 444 q 160 263 161 278 q 181 219 160 236 q 233 194 201 201 q 285 185 265 188 q 315 183 304 183 q 317 183 317 183 l 318 183 q 421 211 381 182 q 465 250 463 246 q 468 251 467 250 q 489 365 496 282 q 473 490 482 433 q 459 567 464 546 q 441 637 454 588 q 426 690 428 686 q 435 733 421 714 q 475 753 450 753 l 597 753 z "},"ú":{"ha":665,"x_min":10,"x_max":654,"o":"m 597 753 q 638 731 624 753 q 643 683 653 708 q 592 512 611 608 q 567 333 572 415 q 559 172 561 251 q 561 53 557 93 q 548 17 563 32 q 511 1 533 1 q 481 12 494 1 q 464 38 468 22 l 464 39 q 463 44 463 42 q 446 43 458 54 q 336 -1 399 -1 q 299 -1 317 0 q 193 46 246 -1 q 192 47 193 46 q 185 54 188 50 q 147 104 164 75 q 122 161 131 133 q 107 213 113 189 q 100 253 101 238 l 99 268 q 87 413 94 350 q 70 516 79 475 q 52 583 61 557 q 33 639 43 610 q 17 690 22 668 q 26 733 11 714 q 65 753 40 753 l 182 753 q 224 731 208 753 q 228 683 239 708 q 197 576 210 638 q 179 480 183 515 q 168 361 175 444 q 160 263 161 278 q 181 219 160 236 q 233 194 201 201 q 285 185 265 188 q 315 183 304 183 q 317 183 317 183 l 318 183 q 421 211 381 182 q 465 250 463 246 q 468 251 467 250 q 489 365 496 282 q 473 490 482 433 q 459 567 464 546 q 441 637 454 588 q 426 690 428 686 q 435 733 421 714 q 475 753 450 753 l 597 753 z "},"û":{"ha":665,"x_min":10,"x_max":654,"o":"m 597 753 q 638 731 624 753 q 643 683 653 708 q 592 512 611 608 q 567 333 572 415 q 559 172 561 251 q 561 53 557 93 q 548 17 563 32 q 511 1 533 1 q 481 12 494 1 q 464 38 468 22 l 464 39 q 463 44 463 42 q 446 43 458 54 q 336 -1 399 -1 q 299 -1 317 0 q 193 46 246 -1 q 192 47 193 46 q 185 54 188 50 q 147 104 164 75 q 122 161 131 133 q 107 213 113 189 q 100 253 101 238 l 99 268 q 87 413 94 350 q 70 516 79 475 q 52 583 61 557 q 33 639 43 610 q 17 690 22 668 q 26 733 11 714 q 65 753 40 753 l 182 753 q 224 731 208 753 q 228 683 239 708 q 197 576 210 638 q 179 480 183 515 q 168 361 175 444 q 160 263 161 278 q 181 219 160 236 q 233 194 201 201 q 285 185 265 188 q 315 183 304 183 q 317 183 317 183 l 318 183 q 421 211 381 182 q 465 250 463 246 q 468 251 467 250 q 489 365 496 282 q 473 490 482 433 q 459 567 464 546 q 441 637 454 588 q 426 690 428 686 q 435 733 421 714 q 475 753 450 753 l 597 753 z "},"ü":{"ha":665,"x_min":10,"x_max":654,"o":"m 597 753 q 638 731 624 753 q 643 683 653 708 q 592 512 611 608 q 567 333 572 415 q 559 172 561 251 q 561 53 557 93 q 548 17 563 32 q 511 1 533 1 q 481 12 494 1 q 464 38 468 22 l 464 39 q 463 44 463 42 q 446 43 458 54 q 336 -1 399 -1 q 299 -1 317 0 q 193 46 246 -1 q 192 47 193 46 q 185 54 188 50 q 147 104 164 75 q 122 161 131 133 q 107 213 113 189 q 100 253 101 238 l 99 268 q 87 413 94 350 q 70 516 79 475 q 52 583 61 557 q 33 639 43 610 q 17 690 22 668 q 26 733 11 714 q 65 753 40 753 l 182 753 q 224 731 208 753 q 228 683 239 708 q 197 576 210 638 q 179 480 183 515 q 168 361 175 444 q 160 263 161 278 q 181 219 160 236 q 233 194 201 201 q 285 185 265 188 q 315 183 304 183 q 317 183 317 183 l 318 183 q 421 211 381 182 q 465 250 463 246 q 468 251 467 250 q 489 365 496 282 q 473 490 482 433 q 459 567 464 546 q 441 637 454 588 q 426 690 428 686 q 435 733 421 714 q 475 753 450 753 l 597 753 z "},"v":{"ha":646,"x_min":-6,"x_max":650,"o":"m 642 722 q 643 697 650 710 l 643 697 q 440 175 546 586 q 428 108 431 140 q 432 86 428 100 q 450 51 440 69 l 451 51 q 449 15 458 31 q 404 -1 436 -1 l 375 -1 q 332 -3 357 -3 q 292 -1 310 -3 l 260 -1 q 215 22 226 1 q 215 57 206 36 q 221 69 218 63 q 229 93 224 78 q 236 114 236 110 q 233 154 235 136 q 144 440 219 278 q 7 700 69 601 q 3 729 -4 717 q 124 750 22 760 q 207 726 188 750 q 214 704 215 715 q 240 456 214 585 q 332 286 275 286 q 369 313 351 286 q 436 517 413 371 q 447 704 460 663 q 450 735 440 722 q 543 750 472 760 q 642 722 624 750 z "},"w":{"ha":1040,"x_min":0,"x_max":1040,"o":"m 974 753 q 1023 743 1007 753 q 1040 718 1039 733 q 1036 690 1040 703 q 1024 665 1032 678 q 1018 657 1022 661 l 1017 656 q 799 294 881 511 q 781 43 767 158 q 769 12 783 25 q 733 0 754 -1 l 663 0 q 652 1 658 0 q 630 18 646 3 q 603 60 614 33 q 600 69 601 65 q 519 310 569 140 q 436 60 467 125 q 420 31 429 43 q 403 13 411 18 q 390 4 396 7 q 381 0 383 1 l 376 0 l 307 0 q 300 0 304 0 q 269 14 282 1 q 260 43 257 26 q 242 294 274 158 q 24 656 160 511 q 17 667 18 660 q 4 691 8 679 q 0 718 0 703 q 17 743 0 733 q 67 753 35 753 q 192 753 158 753 q 200 753 196 753 q 220 747 211 751 q 235 733 229 742 q 240 715 240 725 q 235 660 240 693 q 230 599 231 628 q 247 493 229 571 q 301 299 264 415 q 351 185 331 226 q 354 181 353 183 q 360 172 356 178 q 370 165 365 167 q 382 168 375 164 q 394 185 389 172 q 444 539 471 356 l 426 640 q 442 721 413 689 q 469 743 451 736 q 501 750 488 750 l 515 750 q 520 750 517 750 q 525 750 524 750 q 599 721 576 754 q 612 701 607 713 q 617 678 617 689 q 617 660 618 668 q 615 646 617 651 l 614 640 l 596 539 q 646 185 569 356 q 651 176 646 183 q 666 165 657 168 q 685 179 675 163 q 689 185 688 182 q 692 190 690 188 q 739 299 711 231 q 794 493 776 415 q 810 599 811 571 q 805 660 810 628 q 800 715 800 693 q 816 743 801 732 q 850 753 831 754 q 974 753 879 753 z "},"x":{"ha":657,"x_min":3,"x_max":654,"o":"m 608 122 q 624 106 615 115 q 643 74 632 96 q 647 36 654 51 q 543 1 633 1 l 442 1 q 438 1 440 1 q 409 12 421 3 q 393 35 397 21 q 388 90 389 57 q 339 274 386 168 q 331 283 335 283 q 317 274 324 283 q 269 90 271 168 q 263 35 268 57 q 247 12 260 21 q 218 1 235 3 q 215 1 217 1 l 114 1 q 10 36 24 1 q 13 74 3 51 q 33 106 24 96 q 47 122 42 115 l 49 122 q 51 125 50 124 q 269 353 168 215 q 276 404 288 376 q 253 447 265 425 q 192 540 218 504 q 154 589 167 575 q 119 622 142 603 q 88 653 100 640 q 82 660 85 656 q 60 731 47 704 q 119 753 71 753 l 203 751 q 206 751 204 751 q 237 739 224 750 q 251 713 250 728 q 315 461 257 593 q 319 453 318 457 q 326 450 324 450 q 342 461 335 450 q 406 713 400 593 q 413 731 407 722 q 428 744 418 739 q 450 751 438 750 l 451 751 q 454 751 453 751 l 538 753 q 596 731 586 753 q 575 661 608 706 q 569 653 572 657 q 536 622 557 640 q 503 589 515 603 q 464 540 490 575 q 404 447 438 504 q 388 415 396 431 q 385 356 368 382 q 606 125 488 215 q 608 122 607 124 z "},"y":{"ha":611,"x_min":21,"x_max":590,"o":"m 543 751 q 587 721 585 751 q 564 610 589 690 q 556 582 558 592 q 531 403 540 524 q 519 192 521 283 l 518 100 q 514 58 518 79 q 503 10 510 33 q 485 -48 497 -14 q 453 -110 472 -82 q 410 -165 435 -139 q 347 -205 385 -190 q 267 -219 310 -219 q 256 -222 263 -221 q 232 -222 250 -222 q 197 -219 214 -222 q 156 -202 179 -215 q 115 -168 133 -189 q 81 -109 97 -147 q 56 -21 64 -71 q 71 38 49 13 q 126 64 93 64 q 192 25 171 64 q 202 1 196 17 q 213 -23 208 -14 q 226 -42 218 -32 q 248 -58 235 -53 q 278 -64 261 -64 q 312 -61 297 -64 q 341 -47 326 -58 q 360 -33 356 -36 q 383 -8 365 -29 q 401 15 400 13 q 428 60 418 35 q 425 76 432 69 q 410 76 418 82 q 319 50 368 50 q 282 50 300 51 q 176 94 229 50 q 175 96 176 94 q 168 101 171 99 q 113 182 135 132 q 86 267 92 232 l 82 301 q 65 508 75 429 q 51 610 56 588 q 28 696 46 633 q 37 736 22 718 q 76 754 51 754 l 179 754 q 221 733 206 754 q 225 689 236 713 q 207 642 215 667 q 193 590 199 618 q 184 541 188 563 q 177 487 181 519 q 172 436 174 454 q 168 383 171 418 q 164 333 165 347 q 164 315 164 326 q 172 280 164 304 q 197 243 181 256 q 300 222 239 222 q 300 222 300 222 l 301 222 q 371 232 339 222 q 372 233 372 233 q 436 326 435 253 q 436 333 436 329 l 436 333 q 437 396 436 351 q 438 465 438 440 q 433 525 438 490 q 421 585 429 560 q 432 751 371 738 q 446 751 446 751 l 543 751 z "},"ý":{"ha":611,"x_min":21,"x_max":590,"o":"m 543 751 q 587 721 585 751 q 564 610 589 690 q 556 582 558 592 q 531 403 540 524 q 519 192 521 283 l 518 100 q 514 58 518 79 q 503 10 510 33 q 485 -48 497 -14 q 453 -110 472 -82 q 410 -165 435 -139 q 347 -205 385 -190 q 267 -219 310 -219 q 256 -222 263 -221 q 232 -222 250 -222 q 197 -219 214 -222 q 156 -202 179 -215 q 115 -168 133 -189 q 81 -109 97 -147 q 56 -21 64 -71 q 71 38 49 13 q 126 64 93 64 q 192 25 171 64 q 202 1 196 17 q 213 -23 208 -14 q 226 -42 218 -32 q 248 -58 235 -53 q 278 -64 261 -64 q 312 -61 297 -64 q 341 -47 326 -58 q 360 -33 356 -36 q 383 -8 365 -29 q 401 15 400 13 q 428 60 418 35 q 425 76 432 69 q 410 76 418 82 q 319 50 368 50 q 282 50 300 51 q 176 94 229 50 q 175 96 176 94 q 168 101 171 99 q 113 182 135 132 q 86 267 92 232 l 82 301 q 65 508 75 429 q 51 610 56 588 q 28 696 46 633 q 37 736 22 718 q 76 754 51 754 l 179 754 q 221 733 206 754 q 225 689 236 713 q 207 642 215 667 q 193 590 199 618 q 184 541 188 563 q 177 487 181 519 q 172 436 174 454 q 168 383 171 418 q 164 333 165 347 q 164 315 164 326 q 172 280 164 304 q 197 243 181 256 q 300 222 239 222 q 300 222 300 222 l 301 222 q 371 232 339 222 q 372 233 372 233 q 436 326 435 253 q 436 333 436 329 l 436 333 q 437 396 436 351 q 438 465 438 440 q 433 525 438 490 q 421 585 429 560 q 432 751 371 738 q 446 751 446 751 l 543 751 z "},"ÿ":{"ha":611,"x_min":21,"x_max":590,"o":"m 543 751 q 587 721 585 751 q 564 610 589 690 q 556 582 558 592 q 531 403 540 524 q 519 192 521 283 l 518 100 q 514 58 518 79 q 503 10 510 33 q 485 -48 497 -14 q 453 -110 472 -82 q 410 -165 435 -139 q 347 -205 385 -190 q 267 -219 310 -219 q 256 -222 263 -221 q 232 -222 250 -222 q 197 -219 214 -222 q 156 -202 179 -215 q 115 -168 133 -189 q 81 -109 97 -147 q 56 -21 64 -71 q 71 38 49 13 q 126 64 93 64 q 192 25 171 64 q 202 1 196 17 q 213 -23 208 -14 q 226 -42 218 -32 q 248 -58 235 -53 q 278 -64 261 -64 q 312 -61 297 -64 q 341 -47 326 -58 q 360 -33 356 -36 q 383 -8 365 -29 q 401 15 400 13 q 428 60 418 35 q 425 76 432 69 q 410 76 418 82 q 319 50 368 50 q 282 50 300 51 q 176 94 229 50 q 175 96 176 94 q 168 101 171 99 q 113 182 135 132 q 86 267 92 232 l 82 301 q 65 508 75 429 q 51 610 56 588 q 28 696 46 633 q 37 736 22 718 q 76 754 51 754 l 179 754 q 221 733 206 754 q 225 689 236 713 q 207 642 215 667 q 193 590 199 618 q 184 541 188 563 q 177 487 181 519 q 172 436 174 454 q 168 383 171 418 q 164 333 165 347 q 164 315 164 326 q 172 280 164 304 q 197 243 181 256 q 300 222 239 222 q 300 222 300 222 l 301 222 q 371 232 339 222 q 372 233 372 233 q 436 326 435 253 q 436 333 436 329 l 436 333 q 437 396 436 351 q 438 465 438 440 q 433 525 438 490 q 421 585 429 560 q 432 751 371 738 q 446 751 446 751 l 543 751 z "},"z":{"ha":599,"x_min":14,"x_max":578,"o":"m 574 149 q 544 25 576 60 q 482 1 521 1 l 78 1 q 32 24 47 1 q 17 80 15 47 q 44 132 19 113 q 324 463 199 249 q 383 678 372 575 q 349 693 382 693 l 308 693 l 304 693 q 294 693 299 693 q 260 678 279 693 q 229 648 240 663 q 199 606 218 633 q 160 557 171 568 q 118 539 142 543 q 76 543 94 535 q 51 583 51 556 l 51 597 q 50 604 51 599 q 81 728 47 692 q 142 751 103 751 l 429 751 q 442 751 436 753 l 526 751 q 555 742 543 751 q 567 717 567 732 l 567 697 q 553 651 567 671 q 507 596 540 631 q 390 446 433 518 q 301 258 331 333 q 266 156 271 182 q 260 94 261 129 l 260 92 q 296 60 260 60 l 317 60 l 321 60 q 329 60 325 60 q 365 75 346 60 q 395 105 383 90 q 425 147 407 119 q 464 194 453 185 q 506 214 482 210 q 549 210 529 218 q 574 169 574 197 l 574 156 q 574 149 574 154 z "},"{":{"ha":685,"x_min":18,"x_max":650,"o":"m 511 110 q 519 113 514 111 q 538 119 524 115 q 565 125 551 124 q 594 122 578 126 q 622 106 610 117 q 641 70 633 94 q 649 11 649 46 q 649 -1 649 7 q 642 -28 649 -8 q 624 -62 636 -47 q 586 -88 613 -76 q 524 -100 560 -100 q 505 -101 517 -101 q 458 -98 493 -101 q 392 -85 424 -94 q 323 -51 361 -75 q 258 8 285 -26 q 212 102 231 43 q 193 236 193 161 q 192 247 193 240 q 186 274 192 254 q 170 313 181 294 q 136 352 160 331 q 79 389 113 374 q 63 400 72 393 q 36 431 53 407 q 18 483 19 456 q 18 485 18 483 q 18 486 18 486 q 18 488 18 486 q 35 538 19 514 q 64 571 50 561 l 79 581 q 122 606 103 592 q 153 635 142 621 q 174 663 165 649 q 185 690 182 678 q 191 711 189 701 q 193 726 193 721 l 193 732 q 211 866 193 807 q 258 959 229 925 q 323 1017 288 993 q 394 1051 358 1042 q 458 1064 429 1060 q 506 1068 488 1068 l 524 1067 q 586 1056 560 1067 q 624 1028 613 1044 q 642 995 636 1011 q 649 968 649 979 l 649 956 q 641 897 649 921 q 622 862 633 872 q 594 846 610 851 q 565 842 579 840 q 538 848 550 844 q 518 854 526 851 l 511 858 q 497 859 506 858 q 464 859 489 860 q 416 856 439 858 q 365 844 393 853 q 318 823 338 836 q 285 788 299 810 q 271 738 271 765 q 242 592 271 640 q 178 543 214 543 q 142 488 139 543 l 143 488 q 142 485 142 486 l 143 483 l 142 483 q 178 428 139 428 q 242 378 214 428 q 271 232 271 329 q 296 165 271 192 q 356 127 321 138 q 426 112 390 117 q 486 108 461 107 l 511 110 z "},"|":{"ha":329,"x_min":31,"x_max":296,"o":"m 242 1064 q 281 1044 265 1064 q 289 1001 296 1025 q 265 935 282 975 q 236 861 247 896 q 215 725 225 826 q 204 467 206 624 q 271 -32 214 186 q 262 -75 276 -56 q 222 -94 247 -94 l 101 -94 q 59 -72 74 -94 q 56 -25 44 -50 q 106 199 83 43 q 139 479 128 354 q 38 994 129 775 q 35 1028 32 1013 q 52 1053 39 1043 q 83 1064 65 1064 l 242 1064 z "},"}":{"ha":683,"x_min":33,"x_max":665,"o":"m 665 488 q 665 486 665 486 q 665 485 665 486 q 665 483 665 485 q 649 432 664 456 q 619 399 633 408 l 604 389 q 547 353 571 374 q 513 312 524 332 q 497 274 503 292 q 492 247 492 257 l 490 236 q 472 102 490 161 q 425 8 454 43 q 360 -51 396 -26 q 290 -84 325 -75 q 225 -98 254 -93 q 178 -101 196 -103 l 160 -100 q 97 -89 124 -100 q 59 -61 71 -78 q 41 -28 47 -44 q 35 0 35 -12 l 35 11 q 49 88 35 60 q 83 120 63 115 q 124 124 104 125 q 158 117 144 122 l 172 110 q 181 109 176 110 q 203 108 186 108 q 235 110 219 108 q 273 114 251 111 q 313 122 294 117 q 350 137 331 128 q 383 158 369 146 q 404 190 396 171 q 413 232 413 208 q 441 378 413 329 q 506 428 469 428 q 542 483 544 428 l 540 483 q 542 485 540 485 l 540 488 l 542 488 q 506 543 544 543 q 441 592 469 543 q 413 738 413 640 q 388 803 413 776 q 328 841 363 831 q 258 856 293 851 q 197 860 222 861 l 172 858 q 168 856 171 857 q 156 851 165 854 q 137 845 146 847 q 115 843 128 843 q 92 845 103 843 q 71 855 82 847 q 52 875 60 863 q 40 908 44 888 q 35 956 35 929 q 35 968 35 961 q 41 994 35 975 q 59 1028 47 1014 q 97 1055 71 1043 q 160 1067 124 1067 q 178 1068 167 1068 q 225 1064 190 1068 q 291 1051 260 1060 q 360 1017 322 1042 q 426 959 399 993 q 472 866 453 925 q 490 732 490 807 q 490 727 490 731 q 492 712 490 724 q 498 689 494 700 q 510 663 501 678 q 530 634 518 647 q 561 606 542 621 q 604 581 581 592 q 621 571 611 578 q 647 539 631 564 q 665 488 664 514 z "},"~":{"ha":758,"x_min":35,"x_max":715,"o":"m 714 543 q 713 524 714 536 q 706 474 713 511 q 690 404 700 438 q 658 331 679 371 q 610 261 638 290 q 546 226 582 226 q 488 237 514 226 q 442 267 461 247 q 411 306 424 288 q 385 349 399 324 q 363 385 371 375 q 332 421 351 403 q 290 453 313 439 q 245 465 267 467 q 210 440 224 464 q 206 431 207 436 q 204 430 204 431 q 204 428 204 429 q 200 415 201 422 q 199 388 194 407 q 206 361 203 369 q 220 330 210 353 q 238 290 231 307 q 240 241 249 256 q 215 226 232 226 l 199 226 l 78 226 q 44 303 36 226 l 44 303 q 51 342 47 319 q 115 515 78 478 q 236 563 153 563 q 386 433 325 550 q 435 369 406 397 q 546 374 508 301 q 556 400 551 388 q 556 401 556 401 q 556 402 556 401 q 557 403 557 403 q 549 476 568 440 q 524 525 532 504 q 521 574 513 560 q 544 589 529 589 l 561 589 l 569 589 l 574 590 l 661 590 q 667 589 665 590 l 683 589 q 714 543 715 589 z "}," ":{"ha":397,"x_min":0,"x_max":0,"o":""},"­":{"ha":0,"x_min":0,"x_max":0,"o":""},"‘":{"ha":265,"x_min":40,"x_max":226,"o":"m 132 882 q 199 853 172 882 q 222 785 225 825 q 197 727 221 751 q 139 700 172 703 q 70 725 99 699 q 42 792 42 751 q 42 808 42 797 q 50 844 43 818 q 69 892 57 871 q 110 932 82 913 q 178 956 139 951 q 194 951 188 957 q 201 935 201 944 q 185 913 201 917 q 131 888 153 906 q 130 884 129 886 q 132 882 131 882 z "},"’":{"ha":265,"x_min":39,"x_max":224,"o":"m 224 865 q 223 849 224 860 q 215 813 222 839 q 196 765 208 786 q 155 724 183 743 q 88 700 126 704 q 70 706 78 700 q 63 722 63 713 q 81 743 63 740 q 135 769 111 751 q 135 773 136 771 q 132 775 135 775 q 66 803 93 775 q 42 872 39 832 q 69 930 44 906 q 126 956 93 954 q 174 947 151 958 q 210 913 197 935 q 224 865 224 892 z "},"‚":{"ha":265,"x_min":39,"x_max":224,"o":"m 224 221 q 223 204 224 214 q 215 167 222 194 q 196 119 208 140 q 155 79 183 99 q 88 56 126 60 q 70 61 78 54 q 63 78 63 68 q 81 99 63 94 q 135 125 111 106 q 135 128 136 126 q 132 129 135 129 q 66 158 93 129 q 42 226 39 188 q 69 285 44 261 q 126 311 93 308 q 156 308 142 313 q 183 296 171 304 q 204 276 194 288 q 219 251 214 265 q 224 221 224 236 z "},"“":{"ha":460,"x_min":40,"x_max":421,"o":"m 132 882 q 199 853 172 882 q 222 785 225 825 q 197 727 221 751 q 139 700 172 703 q 70 725 99 699 q 42 792 42 751 q 42 808 42 797 q 50 844 43 818 q 69 892 57 871 q 110 932 82 913 q 178 956 139 951 q 194 951 188 957 q 201 935 201 944 q 185 913 201 917 q 131 888 153 906 q 130 884 129 886 q 132 882 131 882 m 328 882 q 394 853 367 882 q 418 785 421 825 q 391 727 415 751 q 333 700 367 703 q 265 725 294 699 q 236 792 236 751 q 237 808 236 797 q 244 844 238 818 q 264 892 251 871 q 305 932 276 913 q 372 956 333 951 q 390 951 382 957 q 397 935 397 944 q 379 913 397 917 q 325 888 349 906 q 324 884 324 886 q 328 882 325 882 z "},"”":{"ha":460,"x_min":39,"x_max":419,"o":"m 418 865 q 417 849 418 860 q 410 813 417 839 q 390 765 403 786 q 349 724 378 743 q 282 700 321 704 q 265 706 272 700 q 258 722 258 713 q 275 743 258 740 q 329 769 307 751 q 330 773 331 771 q 328 775 329 775 q 261 803 288 775 q 236 872 235 832 q 263 930 239 906 q 321 956 288 954 q 390 931 361 958 q 418 865 418 904 m 126 956 q 174 947 151 958 q 210 913 197 935 q 224 865 224 892 q 218 819 224 865 q 88 700 192 713 q 70 706 78 700 q 63 722 63 713 q 81 743 63 740 q 135 769 111 751 q 135 773 136 771 q 132 775 135 775 q 66 803 93 775 q 42 872 39 832 q 69 930 44 906 q 126 956 93 954 z "},"„":{"ha":460,"x_min":39,"x_max":419,"o":"m 418 221 q 417 204 418 214 q 410 167 417 194 q 390 119 403 140 q 349 79 378 99 q 282 56 321 60 q 265 61 272 54 q 258 78 258 68 q 275 99 258 94 q 329 125 307 106 q 330 128 331 126 q 328 129 329 129 q 260 158 288 129 q 236 226 233 188 q 250 267 239 249 q 280 298 261 286 q 321 311 299 310 q 358 306 340 313 q 390 287 376 299 q 410 258 403 275 q 418 221 418 240 m 126 311 q 194 287 165 314 q 224 221 224 260 q 223 204 224 214 q 215 167 222 194 q 196 119 208 140 q 155 79 183 99 q 88 56 126 60 q 70 61 78 54 q 63 78 63 68 q 81 99 63 94 q 135 125 111 106 q 135 128 136 126 q 132 129 135 129 q 66 158 93 129 q 42 226 39 188 q 69 285 44 261 q 126 311 93 308 z "}}}
